<?xml version="1.0" encoding="UTF-8" standalone="no"?><!DOCTYPE svg PUBLIC "-//W3C//DTD SVG 1.1//EN" "http://www.w3.org/Graphics/SVG/1.1/DTD/svg11.dtd"><svg width="100%" height="100%" viewBox="0 0 512 490" version="1.1" xmlns="http://www.w3.org/2000/svg" xmlns:xlink="http://www.w3.org/1999/xlink" xml:space="preserve" xmlns:serif="http://www.serif.com/" style="fill-rule:evenodd;clip-rule:evenodd;stroke-linejoin:round;stroke-miterlimit:2;"><g><g id="Group-715"><path id="Fill-5" d="M258.485,296.838c-1.291,-1.182 -2.184,-2.211 -3.107,-0.713c0.248,2.304 1.177,1.713 3.107,0.713m-40.659,23.182c-1.768,-1.061 -2.747,-3.9 -4.31,-1.746c1.624,1.229 2.006,3.968 4.31,1.746m5.737,-8.222c-7.244,-0.492 -3.09,-4.159 -9.702,-6.459c-3.435,10.325 1.714,9.97 9.702,6.459m-2.804,168.068c-31.938,-5.774 -10.225,-59.127 -16.338,-83.723c-1.609,-30.514 0.135,-61.073 1.024,-91.597c-1.365,-22.101 -19.706,-39.224 -23.215,-61.394c-4.146,-15.933 -9.263,-31.62 -13.184,-47.604c-2.061,-24.481 -22.998,-106.27 11.512,-109.966c8.957,-5.981 2.598,-27.617 18.621,-32.07c4.794,-3.678 13.233,5.849 12.909,-2.679c-0.994,-14.291 13.212,-30.73 27.306,-20.001c9.667,2.618 11.639,32.553 18.274,24.216c32.174,-26.617 35.454,37.771 38.235,57.564c5.819,18.439 -3.458,63.763 20.601,32.193c41.099,-24.61 32.189,42.513 21.335,63.64c-7.507,27.694 -24.901,50.005 -37.5,75.259c-2.167,24.91 3.735,50.744 4.365,75.896c13.267,141.659 -7.561,116.212 -9.223,-5.491c-2.316,-8.631 0.744,-66.211 -7.113,-62.082c-8.861,5.094 -16.584,10.204 -26.612,9.231c-0.761,1.073 -1.174,1.547 -2.531,0.203c-1.461,-3.168 -4.388,-1.398 -6.621,-1.965c-2.67,-1.74 -4.154,-0.515 -5.104,2.044c-1.298,-5.449 4.266,-13.289 -5.2,-12.116c4.565,-0.205 8.835,-3.203 11.023,3.17c0.339,0.917 2.77,4.824 6.085,2.585c1.079,5.205 10.552,5.776 6.944,1.217c38.436,-19.049 62.286,-74.138 71.039,-118.846c7.911,-64.691 -37.23,-12.384 -40.615,18.838c-1.258,3.327 -3.279,6.039 -7.793,6.029c-11.274,0.27 -19.132,10.136 -28.106,15.814c-0.959,6.543 -7.312,6.027 -9.825,11.366c-5.338,2.555 0.179,5.59 -0.404,9.566c-4.239,1.416 -9.92,-3.316 -13.976,-4.7c-1.875,-0.986 -7.361,-11.528 -1.023,-9.817c8.57,2.924 13.688,-6.7 19.468,-11.628c7.233,-5.685 18.062,-13.762 29.453,-16.734c25.402,-18.06 -0.596,-80.253 -0.215,-108.978c0.897,-23.834 -23.398,-51.121 -25.447,-12.31c4.831,25.254 6.891,50.891 9.295,76.458c-0.337,5.289 4.852,27.084 -4.949,19.81c-4.28,-21.967 -3.791,-45.279 -7.338,-67.56c-3.802,-22.34 -5.234,-48.449 -20.972,-66.085c-15.585,-9.56 -17.823,18.051 -14.385,27.646c1.838,7.685 -5.384,27.245 5.475,27.517c4.026,5.377 -5.936,0.841 -4.441,4.366c0.532,3.684 -0.709,8.082 3.495,10.581c-0.054,5.884 -2.168,10.663 1.497,16.198c-2.745,6.921 6.256,0.816 7.084,6.027c-0.059,0.859 4.695,3.561 -0.951,2.375c-11.299,2.28 -1.617,17.454 -2.601,25.232c0.556,11.779 7.682,22.812 -8.799,14.668c-4.268,0.178 0.281,-1.102 -0.054,-2.771c-3.476,-6.425 -8.497,-0.668 -9.865,-3.686c-6.487,-8.474 6.559,-1.675 10.48,-5.006c-9.375,-8.832 -4.39,-4.256 -1.426,-15.052c-5.284,-4.747 4.065,-7.243 -4.253,-11.068c-1.252,-0.871 -1.67,-2.64 -2.567,-3.878c6.545,-3.837 6.66,-13.871 -1.392,-16.944c5.793,-5.521 2.366,-11.622 -0.935,-19.727c5.161,-2.208 2.044,-9.541 2.184,-14.049c-0.943,-8.587 -7.874,-29.957 -15.982,-13.583c-1.32,2.712 -4.085,5.074 -1.743,8.608c3.863,5.814 -1.427,1.623 -2.856,5.235c0.77,18.09 0.503,45.877 11.091,60.018c-5.646,10.095 1.658,22.708 2.234,33.366c2.53,8.714 -0.865,13.159 -7.274,6.252c-3.531,-5.165 -0.474,-13.678 -2.738,-19.541c-2.327,-4.079 -0.767,-9.138 -4.361,-13.103c-3.026,-5.819 2.5,-15.147 -1.579,-21.46c-3.64,-8.715 -1.261,-18.56 -7.602,-26.442c-22.874,-17.252 -6.516,89.918 -4.103,99.756c4.428,6.135 2.127,-6.988 5.617,-8.955c-3.373,-9.835 -6.868,-10.647 6.805,-12.402c-2.641,4.591 3.022,8.909 -0.064,12.48c-2.765,2.838 -2.933,4.411 1.735,4.256c6.465,3.877 -11.474,4.722 -5.573,10.431c0.241,1.923 -2.969,2.181 -3.804,2.92c-0.821,2.12 -3.007,5.885 0.44,6.733c1.375,0.128 3.853,0.055 4.035,-0.518c2.032,-5.25 5.803,0.627 9.559,-1.172c9.015,-0.654 1.789,12.153 -2.176,3.765c0.056,8.022 -0.267,8.507 -4.941,7.907c-0.81,-2.067 1.051,-5.55 -3.011,-5.877c-5.901,-0.83 -2.935,8.695 1.595,8.429c-2.526,5.128 -1.212,8.237 3.099,9.084c-1.023,1.758 0.14,3.57 1.679,4.932c-1.922,2.18 -0.02,5.497 0.299,7.567c-1.181,3.692 1.791,10.425 4.705,10.952c3.499,-3.312 -1.695,-16.176 6.445,-6.555c1.62,4.968 -6.745,5.094 -3.05,9.051c0.833,1.333 3.12,3.92 -1.384,2.385c-0.038,-0.013 -0.791,1.356 -0.797,2.082c0.085,4.469 6.374,4.16 7.04,8.039c-4.142,3.351 -0.15,5.304 1.629,6.698c4.657,6.883 7.79,16.474 16.357,20.986c10.671,-0.9 -17.006,-20.433 -1.978,-16.945c8.526,1.865 4.427,-10.769 0.852,-11.851c-2.986,4.398 -6.075,1.225 -9.13,0.176c0.349,-5.37 5.198,-11.541 10.987,-8.36c1.049,4.647 8.944,7.272 5.985,11.852c-2.973,2.424 -2.707,3.313 1.101,3.717c5.439,1.631 -5.524,8.991 -8.512,9.567c8.079,-0.797 2.706,7.768 7.67,5.324c-0.924,-8.325 14.735,-0.972 7.322,0.506c2.027,4.017 4.118,11.869 -2.673,6.42c-6.7,-5.072 -10.034,6.205 -1.559,6.405c1.426,2.013 -1.082,4.766 -1.123,7.008c0.807,-3.429 -5.707,-3.161 -6.011,-0.556c-0.767,3.321 -2.791,3.229 -5.124,3.374c-5.064,-0.121 0.646,5.143 -6.021,5.554c-6.036,2.356 -0.48,9.305 -1.23,13.617c-0.268,17.534 -2.156,38.051 1.631,54.277c10.445,-1.159 1.132,-14.004 9.139,-17.169c2.345,6.522 6.233,-0.36 5.328,-4.321c5.243,-1.756 13.007,3.156 6.038,7.389c-2.606,0.265 -2.936,-5.438 -4.057,-1.76c-6.225,9.345 4.992,24.188 -12.764,20.371c-0.628,0.036 -1.192,1.206 -1.785,1.857c3.375,2.42 -2.813,7.168 2.228,9.204c0.918,1.968 -4.169,1.744 -4.631,0.368c-3.049,-4.504 -3.096,14.541 -0.513,17.948c-5.397,13.31 8.173,5.488 14.455,10.978c2.769,5.85 -13.992,1.282 -14.766,4.369c-4.42,10.874 4.696,9.42 0.423,16.846c-0.177,3.326 -2.809,7.157 -0.705,10.11c3.536,-3.927 -1.795,-11.92 6.593,-10.371c0.413,6.902 8.279,0.43 8.851,7.201c-1.413,3.874 2.325,4.38 2.923,7.557c-9.334,6.39 -15.842,0.3 -13.001,6.832" style="fill:#121212;"/><path id="Fill-22" d="M104.319,182.214c1.994,-19.466 -1.465,-42.945 14.704,-50.957c-5.158,36.63 -11.874,82.835 17.748,113.13c8.258,13.635 -10.891,8.207 -14.246,-0.152c-13.478,-16.195 -17.139,-43.397 -18.206,-62.021" style="fill:#121212;"/><path id="Fill-24" d="M480.166,257.324c-6.551,-27.853 14.888,-5.514 15.786,-15.216c-0.982,-4.401 -3.943,-10.62 2.008,-12.434c6.867,-3.325 20.86,26.777 10.116,28.336c-5.016,4.261 -16.287,-5.096 -16.384,3.319c-0.948,26.938 -17.887,0.537 -20.065,9.014c0.195,5.639 6.13,12.978 0.644,17.259c-8.632,-3.777 -8.061,-18.922 -10.567,-27.297c-2.395,-15.189 16.665,1.895 18.462,-2.981" style="fill:#121212;"/><path id="Fill-26" d="M68.506,65.262c1.574,28.808 35.423,6.022 19.284,-6.642c-5.12,-1.61 -18.746,-0.385 -19.284,6.642m-8.288,1.087c-3.666,-22.307 42.248,-27.291 42.793,-3.315c0.293,32.3 -43.764,39.764 -42.793,3.315" style="fill:#121212;"/><path id="Fill-28" d="M145.419,374.651c-2.116,-1.647 -3.682,-2.917 -5.343,-4.046c-4.131,3.207 1.57,8.932 5.343,4.046m-21.337,3.418c2.736,-6.738 3.005,-15.2 7.39,-20.922c10.72,-6.747 28.744,1.393 29.416,14.547c2.107,22.54 -33.93,32.843 -36.806,6.375" style="fill:#121212;"/><path id="Fill-30" d="M50.984,351.677c-0.908,19.852 -14.869,17.16 -13.046,-1.912c-0.823,-8.386 -11.386,3.991 -16.329,3.277c-14.543,2.143 0.528,-23.1 -8.233,-21.808c-4.154,1.473 -8.595,7.207 -13.136,4.438c-3.737,-14.832 37.615,-30.418 27.256,-2.793c3.074,10.149 22.674,-15.584 23.488,18.798" style="fill:#121212;"/><path id="Fill-32" d="M388.203,161.304c-0.205,6.908 -4.012,45.659 -12.083,22.016c2.801,-26.396 -1.174,-54.087 -17.823,-75.527c-6.731,-6.226 1.119,-12.307 6.185,-5.642c15.22,15.574 21.657,37.85 23.721,59.153" style="fill:#121212;"/><g id="Group-36"><path id="Fill-34" d="M395.185,4.282c-1.948,7.398 -13.407,11.278 -5.563,18.862c5.338,3.987 6.323,17.96 -3.197,13.274c-11.264,-9.465 -10.008,-0.71 -19.268,3.726c-10.264,1.657 -5.371,-9.772 -1.768,-14.267c4.554,-6.297 -6.467,-10.207 -6.765,-17.291c0.211,-7.084 10.316,-3.558 13.395,0.424c7.45,7.184 17.011,-18.878 23.166,-4.728" style="fill:#121212;"/></g><path id="Fill-37" d="M60.671,182.514c0.979,-3.485 1.208,-19.543 7.852,-18.41c3.443,1.545 2.511,4.329 1.958,7.169c-3.577,18.317 4.242,35.522 13.629,50.617c-4.213,26.956 -28.336,-27.868 -23.439,-39.376" style="fill:#121212;"/><path id="Fill-39" d="M421.144,151.717c2.801,7.168 -5.633,18.577 -8.662,7.063c-0.314,-17.016 -3.535,-33.859 -13.938,-47.757c-1.775,-4.422 2.011,-7.692 5.552,-5.08c13.114,10.92 17.572,29.401 17.048,45.774" style="fill:#121212;"/><path id="Fill-45" d="M351.123,327.78c-3.549,12.823 -23.905,14.226 -23.279,-1.439c1.801,-16.795 22.566,-15.53 23.279,1.439" style="fill:#121212;"/><path id="Fill-129" d="M498.964,483.405c-0.395,-1.057 -0.79,-2.115 -1.183,-3.169c0.395,1.058 0.79,2.114 1.183,3.169" style="fill:#0c87de;"/><path id="Fill-145" d="M397.683,421.843c-0.297,0.332 -0.594,0.665 -0.89,0.992c-0.622,-0.766 0.312,-0.722 0.89,-0.992" style="fill:#753478;"/><path id="Fill-147" d="M400.772,402.158c0.111,0.501 0.634,1.037 -0.105,1.276c0.036,-0.43 0.07,-0.853 0.105,-1.276" style="fill:#753478;"/><path id="Fill-205" d="M249.28,479.92c-5.222,3.548 -9.809,15.187 -15.462,7.326c-1.864,-3.521 -20.484,-9.045 -11.05,-10.833c4.885,1.844 7.151,-2.968 10.991,-3.379c-0.602,-3.175 -4.328,-3.686 -2.928,-7.557c10.334,-1.261 12.828,7.365 18.449,14.443" style="fill:#e7d1e8;"/><path id="Fill-241" d="M219.145,346.222c-0.401,-1.492 -0.954,-0.893 -1.987,-0.399c0.321,1.375 1.055,0.666 1.987,0.399m18.18,14.082c-2.58,7.325 7.239,6.641 7.569,0.225c-0.746,-5.406 -9.807,-7.494 -7.569,-0.225m10.163,-18.474c1.636,-1.896 0.854,-6.719 4.379,-5.701c3.917,-0.112 2.871,4.301 1.875,6.823c-4.083,5.457 3.963,11.346 -1.36,16.175c-0.971,3.961 -9.914,9.28 -3.671,12.591c4.215,2.533 -5.927,8.526 2.794,8.879c12.222,-1.358 -1.471,11.722 -6.168,8.683c-1.479,-4.218 -5.556,-3.655 -8.554,-4.914c-4.816,-2.115 -1.78,6.35 -7.262,3.808c1.396,-2.619 4.043,-15.941 5.28,-11.496c4.106,4.94 7.336,-4.373 4.998,-6.492c-1.459,-0.736 -3.215,-2.229 -3.452,1.068c-3.209,-0.407 -4.101,-6.7 -7.27,-3.838c4.879,2.916 0.965,16.003 -2.936,7.872c1.099,-1.919 0.612,-3.198 -1.533,-3.808c2.207,-3.104 0.952,-5.167 -1.34,-7.649c-14.546,23.113 -5.281,-24.129 -9.376,-33.939c0.55,-12.921 11.612,-0.256 4.653,-2.304c-3.953,1.97 -0.227,21.224 3.652,13.467c0.272,-2.647 0.548,-4.423 4.156,-3.279c5.735,1.781 -1.984,4.362 0.967,7.194c4.821,-0.155 2.216,10.507 0.126,6.209c3.049,-9.926 -12.134,10.349 -3.931,7.765c5.706,-0.786 7.863,-4.568 10.876,-9.258c5.6,-4.712 -12.711,-7.818 1.093,-13.127c6.094,1.823 6.109,-2.251 6.776,-5.996c11.879,-6.772 5.597,12.211 -4.006,11.019c1.789,5.967 13.892,8.53 9.234,0.248" style="fill:#e7d1e8;"/><path id="Fill-243" d="M247.5,301.54c1.169,2.964 -4.211,2.846 -2.742,6.006c3.508,6.258 4.444,4.728 7.266,-0.813c4.82,1.153 -2.843,5.599 2.15,7.166c9.225,2.275 4.851,9.132 -1.765,8.543c-0.143,4.821 4.975,4.394 5.801,0.228c8.483,0.668 3.286,2.633 6.696,4.499c7.609,1.492 9.457,2.506 2.239,6.731c-3.333,0.707 -6.648,-3.375 -9.807,0.281c-2.466,-0.634 -6.037,-3.53 -5.398,-6.331c-6.551,-7.192 -18.363,-2.642 -27.673,-5.958c-6.866,-2.627 3.419,-2.171 3.48,-6.256c0.299,-2.622 6.82,-2.852 6.011,0.555c3.383,-7.834 0.025,-6.267 -5.056,-10.598c4.864,-10.851 13.183,4.798 12.312,-3.246c-0.319,-14.842 -3.257,-5.397 -7.85,-18.56c5.526,-4.273 -8.94,-1.656 -1.633,-6.542c0.884,-7.215 9.265,0.654 5.303,-8.844c-0.093,-1.448 0.882,-3.029 1.553,-4.262c3.683,-3.497 1.788,2.71 3.779,4.577c6.446,4.694 2.418,-4.983 1.525,-8.389c1.94,-9.876 3.844,12.515 8.342,11.409c4.466,-6.599 1.936,1.416 3.158,1.5c-1.06,1.068 -3.06,2.223 -2.971,3.185c-0.359,4.854 3.604,2.397 4.957,5.494c4.319,-0.339 4.259,4.159 6.549,6.051c3.514,3.045 -1.822,5.459 -4.318,7.212c-9.154,2.374 -3.65,-10.661 -17.108,-5.754c9.465,-1.177 3.903,6.671 5.2,12.116" style="fill:#e7d1e8;"/><path id="Fill-245" d="M190.376,149.525c-0.075,0.134 -0.237,0.293 -0.206,0.394c0.283,1.03 0.978,-0.593 0.206,-0.394m-1.465,-7.296c-0.884,-0.705 -1.689,-1.343 -1.972,-0.095c0.672,1.301 1.067,1.557 1.972,0.095m-14.22,32.384c-1.62,-9.362 -4.218,-20.173 -1.175,-29.152c1.831,0.464 5.839,-0.837 2.81,3.56c-0.401,0.582 -0.172,1.598 -0.234,2.413c3.051,1.504 10.639,-4.093 6.277,-6.319c-2.599,-4.716 6.896,-6.841 4.092,-9.874c-5.003,5.597 -4.141,-3.358 -10.066,-2.161c1.929,-3.915 1.672,-6.214 -0.336,-9.759c-8.443,26.99 -7.636,-40.706 6.622,-23.924c2.844,6.107 6.922,11.797 5.506,19.306c0.566,6.443 5.409,12.36 3.137,19.168c-1.48,11.193 6.363,18.595 5.626,29.557c-2.759,-1.347 -13.9,0.543 -8.412,-4.328c0.428,-0.325 3.348,1.436 1.668,-1.597c-0.833,-3.635 -2.87,0.2 -3.587,-3.802c-2.26,1.979 -6.541,1.052 -2.039,4.706c2.542,2.484 -2.454,3.146 -1.26,4.644c7.968,1.976 -0.109,6.343 6.312,6.18c7.113,4.685 -4.701,5.785 -8.142,6.437c0.083,-4.847 -3.597,-4.629 -6.799,-5.055" style="fill:#e7d1e8;"/><path id="Fill-247" d="M243.994,394.786c-5.768,4.411 4.365,0.867 4.158,5.311c0.662,1.505 9.043,1.749 4.638,4.325c-5.211,5.88 -9.183,-6.428 -16.359,-0.029c-8.901,0.947 -13.766,8.971 -6.272,15.374c0.442,-3.262 1.649,-6.036 3.885,-8.467c1.865,2.769 0.034,10.08 5.091,6.82c2.664,-3.822 6.716,2.489 8.147,-1.989c0.407,-3.184 4.497,-3.653 5.779,-0.659c-2.697,1.29 -2.516,1.815 0.431,2.01c3.805,12.154 -19.345,-1.13 -13.275,18.689c-2.481,-0.542 -4.55,-0.129 -2.806,2.542c-1.329,2.286 -6.881,4.616 -4.903,7.381c6.125,1.144 5.501,2.128 1.925,6.619c-1.865,-3.138 -5.524,-1.636 -8.136,-2.968c-1.984,0.457 -5.207,5.664 0.128,5.598c10.733,-0.062 -3.085,13.633 -4.595,2.564c-3.655,2.479 -2.481,-3.209 -1.513,-5.861c-13.196,2.085 -4.409,-15.145 11.27,-12.433c-0.669,-3.308 -4.224,-3.551 -6.73,-4.972c4.156,-4.055 -0.336,-7.765 11.398,-3.777c-1.47,-8.989 -0.991,0.879 -4.807,-9.918c-5.73,14.23 -7.577,3.05 -12.603,-2.831c-6.689,10.656 -4.9,-7.113 -3.264,-11.84c-0.177,2.814 5.598,4.755 5.55,1.753c-5.042,-2.036 1.146,-6.784 -2.229,-9.204c1.59,-3.177 4.815,-1.477 7.585,-1.482c3.527,0.3 5.135,-1.165 5.733,-5.231c5.892,0.686 11.538,-10.079 11.774,2.675" style="fill:#e7d1e8;"/><path id="Fill-249" d="M207.108,197.359c-3.002,3.205 0.386,7.358 -2.625,10.548c-2.311,-2.765 -5.397,-8.797 -7.915,-9.364c-5.063,4.402 5.607,15.792 -3.198,14.468c-5.696,-3.629 -3.778,2.575 -9.636,1.607c-3.453,-0.844 -1.255,-4.623 -0.441,-6.734c0.843,-0.754 4.028,-0.972 3.803,-2.919c-5.9,-5.71 12.039,-6.554 5.575,-10.433c-8.379,1.274 0.353,-9.333 3.193,-5.687c1.047,4.291 5.827,1.828 8.89,2.55c-2.161,3.152 -1.07,5.019 2.354,5.964" style="fill:#e7d1e8;"/><path id="Fill-251" d="M205.561,162.323c4.994,-2.035 5.024,6.859 8.837,3.837c1.395,-1.206 8.167,1.978 6.61,4.368c-4.591,3.182 6.388,0.179 6.364,4.975c-2.092,3.705 0.786,6.421 0.345,10.302c-1.087,-6.112 -8.283,-1.776 -8.834,-8.131c-0.001,-0.732 -5.567,-4.05 -7.151,-2.502c-1.001,3.731 7.626,2.955 3.32,5.826c-3.271,1.283 -1.227,5.676 -5.386,3.667c-7.316,1.793 -0.539,-5.599 -3.43,-10.973c-0.617,-3.657 -3.251,-7.45 -0.675,-11.369" style="fill:#e7d1e8;"/><path id="Fill-253" d="M207.908,82.117c4.083,-7.331 -7.585,-9.315 -10.397,-15.654c3.018,-6.802 8.487,-8.921 11.783,-0.956c2.138,7.29 9.85,24.92 1.215,28.486c-0.562,-2.753 -5.191,-3.491 -1.322,-6.174c3.225,-2.236 1.118,-3.5 -1.279,-5.702" style="fill:#e7d1e8;"/><path id="Fill-255" d="M226.306,328.549c1.787,2.061 3.314,0.33 3.602,-1.22c-1.755,-3.791 -2.637,-2.572 -3.602,1.22m-3.683,-9.54c0.314,7.347 18.05,0.501 20.971,9.756c-4.545,3.288 -6.973,-5.137 -12.661,2.325c-9.154,10.076 -14.671,-11.149 -8.31,-12.081" style="fill:#753478;"/><path id="Fill-257" d="M233.215,139.56c-6.734,11.432 -9.412,-7.004 -0.497,-7.232c5.646,1.187 0.892,-1.515 0.951,-2.374c-0.198,-2.54 6.12,-0.543 5.768,2.934c2.822,1.637 5.903,3.188 6.412,7.118c-3.675,-0.043 -8.791,-5.076 -9.64,0.949c-4.38,6.534 -0.882,-9.332 -2.994,-1.395" style="fill:#e7d1e8;"/><path id="Fill-259" d="M229.193,461.772c4.643,-8.902 -4.774,-4.004 -5.781,-8.796c1.621,-4.903 8.243,-3.123 11.023,-0.264c9.765,0.462 -3.388,19.392 -5.242,9.06" style="fill:#753478;"/><path id="Fill-261" d="M225.545,56.218c-0.793,-0.513 -1.078,-0.327 -1.29,0.547c0.806,0.551 1.049,0.275 1.29,-0.547m-5.148,-10.382c4.131,3.531 7.507,8.355 7.306,13.988c-0.325,19.147 -13.955,-4.056 -7.306,-13.988" style="fill:#e7d1e8;"/><path id="Fill-263" d="M179.587,181.786c1.579,2.494 5.833,5.156 4.608,8.412c-3.723,3.275 -0.816,7.991 -3.987,11.124c-2.547,-4.009 -7.587,-19.34 -0.621,-19.536" style="fill:#e7d1e8;"/><path id="Fill-265" d="M212.746,288.856c7.65,-1.668 14.679,6.022 14.188,13.9c-6.521,-1.58 -11.171,-8.088 -14.188,-13.9" style="fill:#e7d1e8;"/><path id="Fill-267" d="M221.615,378.739c3.862,3.721 -1.114,7.867 0.564,11.694c-9.811,8.284 -10.306,-17.788 -0.564,-11.694" style="fill:#e7d1e8;"/><path id="Fill-269" d="M236.746,267.836c4.005,8.344 -3.74,7.144 -8.002,2.877c1.953,-4.421 3.072,-4.825 8.002,-2.877" style="fill:#753478;"/><path id="Fill-271" d="M172.71,146.306c-3.436,-3.233 -1.741,-7.14 -1.43,-10.858c3.827,1.946 6.976,2.128 11.009,1.786c0.487,8.115 -7.106,2.997 -9.579,9.072" style="fill:#e7d1e8;"/><path id="Fill-273" d="M225.436,103.567c1.675,1.09 4.564,0.217 5.169,3.203c11.6,2.506 -10.453,8.47 -5.169,-3.203" style="fill:#753478;"/><path id="Fill-275" d="M222.255,424.767c-3.086,-3.378 -4.28,0.705 -6.276,1.587c-5.911,-8.475 10.834,-8.499 6.276,-1.587" style="fill:#753478;"/><path id="Fill-277" d="M223.563,311.798c-8.001,3.519 -13.132,3.855 -9.702,-6.461c6.593,2.294 2.482,5.977 9.702,6.461" style="fill:#e7d1e8;"/><path id="Fill-279" d="M190.21,224.599c-2.663,8.118 -10.871,-6.931 -3.011,-5.877c4.062,0.328 2.201,3.81 3.011,5.877" style="fill:#e7d1e8;"/><path id="Fill-281" d="M216.459,266.932c-3.142,-7.279 9.6,-8.717 9.088,-1.54c-3.28,-2.692 -5.92,0.915 -9.088,1.54" style="fill:#e7d1e8;"/><path id="Fill-283" d="M225.436,103.567c0.086,11.598 -10.702,-12.89 2.024,-7.749c-2.131,4.672 -6.483,0.471 -2.024,7.749" style="fill:#e7d1e8;"/><path id="Fill-285" d="M272.9,300.545c-0.512,5.31 -13.949,6.162 -11.145,0.713c3.98,1.29 8.302,-2.103 11.145,-0.713" style="fill:#e7d1e8;"/><path id="Fill-287" d="M217.885,142.729c-4.886,4.64 -3.258,-7.614 -1.686,-8.083c4.947,3.234 4.947,3.234 1.686,8.083" style="fill:#e7d1e8;"/><path id="Fill-289" d="M212.122,112.116c-4.31,-1.509 -2.082,-5.238 -2.606,-8.004c3.723,-4.642 4.569,6.372 2.606,8.004" style="fill:#e7d1e8;"/><path id="Fill-291" d="M260.185,220.645c4.612,2.457 0.562,5.856 -3.336,4.521c1.118,-1.506 2.227,-3.014 3.336,-4.521" style="fill:#753478;"/><path id="Fill-293" d="M216.77,459.068c-0.327,3.227 1.097,6.999 -1.377,9.579c-1.743,-2.079 0.077,-9.881 1.377,-9.579" style="fill:#e7d1e8;"/><path id="Fill-295" d="M204.517,184.156c-2.825,-0.655 -5.272,-0.269 -7.465,2.326c1.254,-6.767 2.495,-6.847 7.465,-2.326" style="fill:#e7d1e8;"/><path id="Fill-297" d="M213.633,130.768c-3.709,1.452 -3.691,-3.504 -6.42,-3.739c1.831,-3.684 6.207,2.211 6.42,3.739" style="fill:#753478;"/><path id="Fill-299" d="M216.77,459.068c-0.377,0.035 -0.646,-0.145 -0.682,-0.531c2.127,-10.602 7.144,-2.698 0.682,0.531" style="fill:#753478;"/><path id="Fill-301" d="M260.531,296.321c1.754,0.511 5.86,-1.1 6.201,1.108c-2.68,2.782 -5.823,3.457 -6.201,-1.108" style="fill:#e7d1e8;"/><path id="Fill-303" d="M229.388,291.371c2.964,0.973 4.172,5.062 0.11,5.305c-0.435,-1.752 -0.212,-3.526 -0.11,-5.305" style="fill:#e7d1e8;"/><path id="Fill-305" d="M202.072,216.474c1.734,0.733 1.8,1.61 0.656,3.132c-2.785,9.396 -7.114,0.384 -0.656,-3.132" style="fill:#e7d1e8;"/><path id="Fill-307" d="M236.347,371.253c0.238,-3.297 1.993,-1.803 3.452,-1.067c2.785,2.226 -1.715,2.374 -3.452,1.067" style="fill:#753478;"/><path id="Fill-309" d="M214.56,273.753c-1.62,-0.285 -3.054,-1.399 -4.592,-2.016c1.949,0.442 6.173,-1.06 4.592,2.016" style="fill:#753478;"/><path id="Fill-311" d="M173.168,135.667c-2.905,0.554 -2.394,-4.281 -0.415,-5.227c0.141,1.741 0.278,3.484 0.415,5.227" style="fill:#753478;"/><path id="Fill-313" d="M223.179,435.015c0.545,-1.921 2.73,-3.027 4.581,-2.429c-0.95,1.606 -2.87,2.073 -4.581,2.429" style="fill:#753478;"/><path id="Fill-315" d="M217.826,320.02c-2.303,2.223 -2.688,-0.517 -4.31,-1.746c1.561,-2.155 2.542,0.685 4.31,1.746" style="fill:#e7d1e8;"/><path id="Fill-317" d="M219.199,441.439c-1.176,0.093 -2.353,0.185 -3.527,0.265c1.488,-2.046 2.142,-2.82 3.527,-0.265" style="fill:#753478;"/><path id="Fill-319" d="M226.582,123.927c2.572,-0.432 4.37,-0.064 3.327,3.23c-4.044,0.836 -4.044,0.836 -3.327,-3.23" style="fill:#e7d1e8;"/><path id="Fill-321" d="M259.225,301.463c-2.412,0.035 -5.532,2.455 -6.621,-1.967c2.233,0.567 5.16,-1.204 6.621,1.967" style="fill:#e7d1e8;"/><path id="Fill-323" d="M270.747,291.425c0.099,-3.252 1.708,-1.172 3.561,-0.189c-1.187,0.063 -2.374,0.126 -3.561,0.189" style="fill:#e7d1e8;"/><path id="Fill-325" d="M214.361,101.081c-2.03,0.376 -2.226,-0.553 -1.512,-2.129c0.504,0.71 1.008,1.42 1.512,2.129" style="fill:#e7d1e8;"/><path id="Fill-327" d="M239.998,297.831l-0.886,-1.473c0.868,0.446 2.05,0.55 0.886,1.473" style="fill:#e7d1e8;"/><path id="Fill-329" d="M258.485,296.838c-1.93,1 -2.86,1.591 -3.107,-0.713c0.925,-1.497 1.814,-0.469 3.107,0.713" style="fill:#e7d1e8;"/><path id="Fill-331" d="M211.022,160.832c0.154,-0.554 -0.399,-2.009 0.277,-1.968c-0.073,0.652 -0.266,1.33 -0.277,1.968" style="fill:#e7d1e8;"/><path id="Fill-333" d="M266.732,297.43l1.469,1.93c-1.688,-0.478 -3.633,-0.297 -1.469,-1.93" style="fill:#e7d1e8;"/><path id="Fill-335" d="M215.31,110.783c0.346,-0.398 0.692,-0.796 1.037,-1.194c-0.345,0.398 -0.691,0.796 -1.037,1.194" style="fill:#e7d1e8;"/><path id="Fill-337" d="M221.986,458.276l-0.156,-0.369c0.025,0.087 0.001,0.39 0.156,0.369" style="fill:#753478;"/><path id="Fill-419" d="M249.28,479.92c-9.984,-13.738 -6.237,-4.89 -0.252,-13.84c6.294,-0.041 3.538,10.954 0.252,13.84" style="fill:#753478;"/><path id="Fill-421" d="M252.566,469.728c0.068,-7.598 -9.215,0.233 -7.875,-6.492c1.23,-3.408 -0.862,-4.969 -1.956,-7.228c2.445,-0.398 4.541,-0.461 5.544,2.628c1.634,5.673 12.517,5.997 4.287,11.092" style="fill:#e7d1e8;"/><path id="Fill-423" d="M145.419,374.651c-3.776,4.887 -9.472,-0.84 -5.344,-4.047c1.662,1.13 3.228,2.4 5.344,4.047" style="fill:#e7d1e8;"/><path id="Fill-429" d="M242.734,456.008c1.095,2.259 3.187,3.82 1.958,7.228c-1.275,3.537 1.949,3.226 4.333,2.842c0.269,2.141 -0.795,3.11 -2.821,3.447c-6.039,3.412 -4.252,-5.652 -10.881,-3.293c-5.249,0.437 3.49,-13.372 7.411,-10.224" style="fill:#121212;"/><path id="Fill-439" d="M206.161,191.666c0.451,-0.428 1.288,-0.861 1.283,-1.284c-2.6,-10.124 5.186,-1.792 5.544,-7.738c7.871,-5.425 -1.079,-2.237 -1.257,-7.471c1.593,-1.56 7.138,1.78 7.153,2.5c0.202,5.327 4.561,2.942 7.161,5.044c-1.775,0.645 -3.818,1.097 -2.745,3.8c-1.27,3.395 -5.156,4.457 -7.847,6.567c-4.795,-2.411 -7.302,3.541 -9.292,-1.418" style="fill:#121212;"/><path id="Fill-441" d="M256.136,279.935c-3.425,1.256 -3.747,-1.69 -3.916,-3.514c2.71,-4.436 12.19,-5.467 10.176,-12.835c8.616,1.145 -5.221,10.831 -1.485,14.431c6.293,-0.61 8.262,-14.268 15.714,-9.52c-3.636,-0.006 -2.099,4.068 -6.14,3.975c-3.35,1.246 -5.318,13.074 1.595,9.923c-5.122,4.464 -11.97,-7.453 -15.944,-2.46" style="fill:#753478;"/><path id="Fill-443" d="M226.78,205.408c-1.888,1.556 -6.128,6.23 -6.677,1.624c1.998,-0.464 4.267,-1.103 2.378,-3.679c-4.055,-5.393 6.371,-6.197 8.062,-11.752c5.112,0.696 6.535,2.151 4.643,6.244c-2.55,5.338 6.429,1.292 4.432,8.671c-5.27,-3.912 -4.18,-1.842 -9.097,-1.956c3.569,-6.652 -4.488,-3.747 -3.741,0.848" style="fill:#e7d1e8;"/><path id="Fill-445" d="M224.925,253.882c-7.056,5.097 -3.459,-14.293 1.114,-10.987c4.777,2.772 2.717,8.346 -1.114,10.987" style="fill:#121212;"/><path id="Fill-447" d="M226.214,223.549c2.172,-0.008 4.1,0.021 0.943,2.31c0.747,1.664 4.486,8.469 -0.556,7.471c-6.89,-1.263 -8.878,-8.473 -0.387,-9.781" style="fill:#e7d1e8;"/><path id="Fill-449" d="M209.723,248.718c10.949,-6.6 3.405,1.772 8.279,5.518c-3.001,5.007 -9.06,-3.22 -8.279,-5.518" style="fill:#e7d1e8;"/><path id="Fill-451" d="M208.764,249.547c-12.057,-9.501 -3.064,-18.298 0.362,-9.218c-5.293,3.252 1.394,5.844 -0.362,9.218" style="fill:#121212;"/><path id="Fill-453" d="M242.805,128.722c2.228,-6.517 -9.32,-0.576 -4.735,-6.977c3.363,-1.196 -0.148,-3.959 1.424,-5.434c4.107,-4.365 0.284,6.204 5.035,7.562c3.033,2.271 1.892,5.681 -1.724,4.849" style="fill:#e7d1e8;"/><path id="Fill-455" d="M273.314,266.894c-5.628,2.426 -4.895,-12.648 2.199,-7.839c1.176,2.643 0.731,6.235 -2.199,7.839" style="fill:#e7d1e8;"/><path id="Fill-457" d="M212.028,218.99c-4.115,15.867 -9.373,-2.136 -4.313,-9.112c0.538,4.18 2.041,6.662 4.313,9.112" style="fill:#e7d1e8;"/><path id="Fill-459" d="M269.413,264.016c7.133,7.511 -12.182,13.643 -4.016,0.389c1.453,1.078 2.815,1.19 4.016,-0.389" style="fill:#121212;"/><path id="Fill-461" d="M270.605,250.526c4.392,5.495 -5.363,5.173 -6,0.045c3.282,-6.143 1.773,-0.444 6,-0.045" style="fill:#753478;"/><path id="Fill-463" d="M223.829,71.968c2.994,2.821 3.714,8.616 2.028,12.337c-4.979,1.358 -3.66,-9.416 -2.028,-12.337" style="fill:#e7d1e8;"/><path id="Fill-465" d="M220.161,206.969c-2.051,-0.131 -7.22,1.766 -2.611,3.665c5.002,6.162 -13.24,-1.132 -3.447,-4.013c1.994,-0.556 4.363,-3.881 6.058,0.348" style="fill:#e7d1e8;"/><path id="Fill-467" d="M252.041,230.309c0.161,-0.975 0.322,-1.95 0.484,-2.925c0.412,1.682 6.566,-0.181 2.595,4.21c-1.95,2.937 -2.116,1.21 -3.079,-1.285" style="fill:#753478;"/><path id="Fill-469" d="M231.175,214.425c1.801,0.982 7.722,3.308 3.621,4.743c-4.779,0.574 -11.35,-6.837 -3.621,-4.743" style="fill:#e7d1e8;"/><path id="Fill-471" d="M263.664,263.606c-3.704,-0.944 -3.99,-5.934 0.837,-5.733c2.637,1.148 -0.269,3.974 -0.837,5.733" style="fill:#121212;"/><path id="Fill-473" d="M217.546,213.29c2.813,-1.847 0.843,3.53 2.814,0.904c2.266,0.093 3.171,4.266 0.451,2.736c-0.764,0.146 0.192,0.747 0.392,1.118c6.447,5.886 -5.983,3.401 -3.657,-4.758" style="fill:#753478;"/><path id="Fill-475" d="M234.653,109.948c-3.338,-5.859 0.859,-6.769 5.395,-3.626c-1.118,2.367 -2.809,3.425 -5.395,3.626" style="fill:#e7d1e8;"/><path id="Fill-477" d="M256.45,205.546c-2.577,3.404 -4.814,6.26 -6.123,1.081c0.882,-3.193 3.538,-3.752 6.123,-1.081" style="fill:#e7d1e8;"/><path id="Fill-479" d="M236.178,66.766c0.758,5.246 -1.771,9.611 -4.688,3.365c-0.677,-2.163 2.442,-5.932 4.688,-3.365" style="fill:#e7d1e8;"/><path id="Fill-481" d="M226.78,205.408c-1.121,-3.119 2.58,-3.28 3.249,-5.301c3.596,1.939 -0.353,5.513 -3.249,5.301" style="fill:#753478;"/><path id="Fill-483" d="M224.925,253.882c2.022,-3.031 5.077,-1.026 7.348,-3.755c1.833,5.48 -3.699,6.978 -7.348,3.755" style="fill:#e7d1e8;"/><path id="Fill-485" d="M206.83,225.779c1.802,0.018 3.752,0.769 4.384,2.52c-0.156,5.48 -11.785,-1.346 -4.384,-2.52" style="fill:#121212;"/><path id="Fill-487" d="M224.313,86.697c4.971,0.397 7.71,7.25 1.844,6.205c-0.526,-2.046 -2.523,-4.112 -1.844,-6.205" style="fill:#121212;"/><path id="Fill-489" d="M248.407,164.257c-1.644,4.139 -3.343,1.493 -5.035,-0.836c1.14,-3.68 3.304,-2.321 5.035,0.836" style="fill:#e7d1e8;"/><path id="Fill-491" d="M236.53,64.724c0.692,-3.568 2.748,-5.053 6.192,-5.705c-1.1,2.079 -3.708,7.773 -6.192,5.705" style="fill:#e7d1e8;"/><path id="Fill-493" d="M206.161,191.666c1.45,1.801 1.722,3.526 0.945,5.695c-3.886,-0.148 -4.931,-6.137 -0.945,-5.695" style="fill:#753478;"/><path id="Fill-495" d="M230.545,191.603c-1.791,2.175 -3.581,4.349 -5.373,6.52c-0.105,-5.696 -0.052,-5.761 5.373,-6.52" style="fill:#753478;"/><path id="Fill-497" d="M270.605,250.526c-2.782,0.517 -2.388,-2.263 -3.552,-3.424c3.679,-4.371 6.677,-0.48 3.552,3.424" style="fill:#e7d1e8;"/><path id="Fill-499" d="M212.028,218.99c-0.75,-1.77 0.246,-3.539 0.56,-5.316c3.008,2.354 2.447,3.36 -0.56,5.316" style="fill:#753478;"/><path id="Fill-501" d="M215.244,235.91c-2.77,2.184 -2.823,-1.788 -4.533,-2.003c3.519,-2.174 6.672,-3.148 4.533,2.003" style="fill:#753478;"/><path id="Fill-503" d="M224.985,101.852c-3.234,-3.617 -2.053,-3.802 2.255,-4.094c-0.752,1.364 -1.503,2.729 -2.255,4.094" style="fill:#121212;"/><path id="Fill-505" d="M215.244,235.91c-0.457,-4.137 4.807,-5.646 4.398,-0.822c-0.188,0.645 -2.866,0.567 -4.398,0.822" style="fill:#e7d1e8;"/><path id="Fill-507" d="M236.012,242.373c4.615,-0.84 4.487,2.361 0.111,4.107c0.348,-1.252 2.566,-4.407 -0.111,-4.107" style="fill:#121212;"/><path id="Fill-509" d="M233.753,182.747c-2.715,1.873 -2.613,-0.664 -4.101,-2.167c1.985,-1.768 2.474,0.807 4.101,2.167" style="fill:#e7d1e8;"/><path id="Fill-511" d="M236.166,242.351c-2.287,-0.468 -2.249,-1.961 -2.123,-3.915c2.831,0.577 2.924,1.751 2.123,3.915" style="fill:#121212;"/><path id="Fill-513" d="M276.375,280.873c-1.211,-2.643 -4.077,-4.405 -1.16,-5.451c2.748,1.644 3.161,1.321 1.16,5.451" style="fill:#e7d1e8;"/><path id="Fill-515" d="M258.221,200.546c0.103,-1.498 0.917,-2.66 1.754,-3.853c1.49,1.545 -0.232,5.568 -1.754,3.853" style="fill:#e7d1e8;"/><path id="Fill-517" d="M231.542,51.831c-1.219,1.78 -2.137,1.785 -2.78,-0.085c0.566,-1.986 1.525,-1.638 2.78,0.085" style="fill:#e7d1e8;"/><path id="Fill-519" d="M222.151,188.717c0.953,-3.042 2.03,-1.539 3.894,-0.017c-1.298,0.005 -2.596,0.011 -3.894,0.017" style="fill:#e7d1e8;"/><path id="Fill-521" d="M222.176,221.257c1.389,-1.833 1.93,-0.98 3,0.628c-1,-0.21 -1.999,-0.419 -3,-0.628" style="fill:#e7d1e8;"/><path id="Fill-523" d="M266.338,247.96c-0.578,0.87 -1.156,1.74 -1.734,2.612c-0.878,-1.836 -0.573,-2.888 1.734,-2.612" style="fill:#e7d1e8;"/><path id="Fill-525" d="M237.165,101.547c-1.155,-1.333 -1.173,-1.683 0.225,-2.269c1.027,0.542 0.395,1.249 -0.225,2.269" style="fill:#e7d1e8;"/><path id="Fill-527" d="M217.318,239.904c-0.778,-1.353 -2.265,-2.446 -0.015,-2.933c0.425,1.123 1.349,2.138 0.015,2.933" style="fill:#e7d1e8;"/><path id="Fill-529" d="M238.962,96.985c0.697,-0.506 1.278,-0.484 1.968,0.018c-0.699,0.505 -1.278,0.496 -1.968,-0.018" style="fill:#e7d1e8;"/><path id="Fill-531" d="M258.836,201.293c-0.682,0.785 -1.974,0.393 -2.923,0.626c1.036,-0.383 2.216,-2.078 2.923,-0.626" style="fill:#e7d1e8;"/><path id="Fill-533" d="M209.101,255.244c-0.494,0.607 -0.579,-0.078 -0.737,-0.548c0.398,-0.63 0.551,0.116 0.737,0.548" style="fill:#e7d1e8;"/><path id="Fill-535" d="M259.613,257.135l-0.416,-0.185c0.245,-0.009 0.606,-0.279 0.416,0.185" style="fill:#121212;"/><path id="Fill-537" d="M221.655,257.802c-0.633,0.172 -1.265,0.343 -1.897,0.514c0.696,-0.474 1.259,-1.563 1.897,-0.514" style="fill:#e7d1e8;"/><path id="Fill-539" d="M214.465,193.5c0.331,-0.141 0.661,-0.283 0.988,-0.416c-0.332,0.144 -0.66,0.28 -0.988,0.416" style="fill:#753478;"/><path id="Fill-541" d="M230.553,213.815l1.272,-0.225c-0.447,0.689 -0.717,1.024 -1.272,0.225" style="fill:#e7d1e8;"/><path id="Fill-543" d="M243.195,129.113c-0.372,0.093 -0.744,0.186 -1.116,0.279c0.426,-0.34 0.707,-0.947 1.116,-0.279" style="fill:#e7d1e8;"/><path id="Fill-545" d="M239.961,128.47c-0.103,-0.272 -0.151,-0.355 0.187,-0.274l-0.187,0.274Z" style="fill:#e7d1e8;"/><path id="Fill-547" d="M220.361,214.194c-0.948,1.117 -1.121,1.171 -1.018,-0.358c0.41,-0.08 0.748,0.04 1.018,0.358" style="fill:#e7d1e8;"/><path id="Fill-549" d="M220.998,217.791c-0.258,-0.33 -0.826,-0.741 -0.186,-0.862c0.373,0.247 1.057,1.216 0.186,0.862" style="fill:#e7d1e8;"/><path id="Fill-551" d="M222.735,218.33c-0.861,0.487 -1.445,1.062 -1.532,-0.283c0.51,0.098 1.021,0.19 1.532,0.283" style="fill:#e7d1e8;"/><path id="Fill-553" d="M218.989,221.124c0.602,0.195 1.204,0.389 1.806,0.575c-0.602,-0.198 -1.204,-0.386 -1.806,-0.575" style="fill:#e7d1e8;"/><path id="Fill-555" d="M201.327,223.438c0.757,1.039 0.229,0.883 -0.763,0.758c0.246,-0.259 0.5,-0.512 0.763,-0.758" style="fill:#e7d1e8;"/><path id="Fill-557" d="M218.175,239.041c0.454,1.227 0.38,1.415 -0.857,0.861c0.285,-0.286 0.571,-0.573 0.857,-0.861" style="fill:#e7d1e8;"/><path id="Fill-559" d="M208.941,249.604c-0.392,-0.192 0.245,-1.048 0.267,-1.486c1.085,0.195 0.06,1.02 -0.267,1.486" style="fill:#e7d1e8;"/><path id="Fill-561" d="M221.075,257.223c0.271,-0.224 0.541,-0.447 0.811,-0.67c-0.183,0.752 -0.05,1.691 -0.811,0.67" style="fill:#e7d1e8;"/><path id="Fill-563" d="M276.541,268.398l0.225,0.051c-0.097,0.032 -0.175,0.054 -0.225,-0.051" style="fill:#753478;"/><path id="Fill-565" d="M224.007,87.745c0.102,-0.349 0.204,-0.698 0.306,-1.047c-0.103,0.349 -0.204,0.698 -0.306,1.047" style="fill:#e7d1e8;"/><path id="Fill-567" d="M237.368,65.566c-0.789,0.859 -1.25,1.558 -2.059,0.328c0.791,-0.804 1.275,-1.542 2.059,-0.328" style="fill:#e7d1e8;"/><path id="Fill-569" d="M237.41,438.713c-0.397,-2.742 13.044,-5.385 10.157,-1.177c-0.762,1.382 -2.522,2.506 -1.108,4.094c3.395,-3.369 1.135,7.634 -1.35,7.489c-8.165,-1.159 5.556,-5.744 -7.699,-10.406" style="fill:#121212;"/><path id="Fill-571" d="M239.212,388.267c-14.888,-2.262 3.183,-7.521 6.124,1.012c0.231,0.654 2.146,0.719 3.282,1.057c-6.36,12.154 -2.745,-4.432 -9.406,-2.069" style="fill:#753478;"/><path id="Fill-573" d="M243.596,328.763c-7.45,-6.184 5.548,-6.755 8.343,-0.913c0.768,6.137 -5.19,0.648 -8.343,0.913" style="fill:#121212;"/><path id="Fill-575" d="M247.487,341.829c3.807,5.939 -3.156,6.88 -7.027,2.97c-5.255,-4.613 3.761,-5.171 7.027,-2.97" style="fill:#121212;"/><path id="Fill-577" d="M252.024,306.734c-2.819,5.561 -3.767,7.041 -7.266,0.811c-0.738,-5.372 4.941,-3.685 7.266,-0.811" style="fill:#121212;"/><path id="Fill-579" d="M248.389,413.505c-1.259,2.607 -1.499,6.152 -5.267,3.493c-5.848,0.423 8.597,-10.691 5.267,-3.493" style="fill:#753478;"/><path id="Fill-581" d="M275.664,384.794c-3.21,1.283 -6.827,5.301 -8.405,0.904c2.799,-4.309 4.042,-6.039 8.405,-0.904" style="fill:#e7d1e8;"/><path id="Fill-583" d="M258.21,322.671c-0.297,2.304 -2.734,3.879 -4.628,3.151c-3.116,-3.754 1.696,-4.491 4.628,-3.151" style="fill:#121212;"/><path id="Fill-585" d="M248.9,410.518c-1.491,0.829 -2.981,1.658 -4.472,2.484c-2.45,-5.391 7.169,-9.753 4.472,-2.484" style="fill:#e7d1e8;"/><path id="Fill-587" d="M260.601,344.512c-2.096,-1.94 -2.185,-3.22 0.207,-4.019c3.031,0.613 1.665,2.049 -0.207,4.019" style="fill:#e7d1e8;"/><path id="Fill-589" d="M247.775,440.316c-0.847,1.137 -1.807,1.559 -1.931,-0.068c1.315,-2.496 1.946,-3.269 1.931,0.068" style="fill:#e7d1e8;"/><path id="Fill-591" d="M207.908,82.117c2.395,2.201 4.506,3.47 1.278,5.703c-3.868,2.681 0.762,3.421 1.32,6.172c-8.55,1.066 -10.462,-9.305 -2.598,-11.875" style="fill:#121212;"/><path id="Fill-593" d="M202.1,88.868c-0.844,0.285 -1.244,4.634 -2.397,3.939c0.106,-4.126 0.106,-4.126 2.397,-3.939" style="fill:#753478;"/><path id="Fill-595" d="M200.129,93.128c-0.494,0.287 -0.914,1.361 -1.392,0.574c0.486,-0.328 0.859,-1.237 1.392,-0.574" style="fill:#753478;"/><path id="Fill-597" d="M220.442,329.584c7.754,12.15 13.109,-8.731 21.816,0.981c-0.021,9.811 -6.931,3.255 -12.318,9.526c0.896,5.326 8.567,5.536 4.453,9.597c-3.26,5.301 -7.452,11.219 -14.284,8.469c1.917,-2.018 8.455,-15.442 7.338,-6.979c-0.039,0.355 0.58,1.059 0.957,1.103c1.907,-0.448 2.985,-7.05 -1.085,-7.311c-0.342,-0.063 -0.728,-1.808 -0.506,-2.607c0.454,-1.634 4.13,-3.131 -0.46,-4.586c-3.608,-1.144 -3.884,0.63 -4.156,3.278c-4.427,9.739 -8.545,-19.596 -1.755,-11.471" style="fill:#121212;"/><path id="Fill-599" d="M237.325,360.304c-2.24,-7.269 6.827,-5.181 7.569,0.227c-0.334,6.414 -10.148,7.098 -7.569,-0.227" style="fill:#121212;"/><path id="Fill-601" d="M224.608,371.48c-7.739,1.824 -5.062,-3.546 -1.339,-7.651c2.296,2.48 3.54,4.555 1.339,7.651" style="fill:#121212;"/><path id="Fill-603" d="M219.145,346.222c-0.932,0.267 -1.666,0.976 -1.987,-0.399c1.034,-0.494 1.586,-1.093 1.987,0.399" style="fill:#121212;"/><path id="Fill-605" d="M189.965,167.513c0.946,3.094 -2.359,9.464 -3.013,3.477c2.237,-3.288 -2.296,-2.147 -3.632,-3.939c1.606,-3.949 3.554,-2.725 -1.321,-7.441c2.594,-0.596 5.226,-3.015 5.657,0.808c1.989,-2.107 1.739,-0.38 2.55,1.085c1.68,3.033 -1.24,1.272 -1.668,1.597c-2.327,1.772 -2.258,2.184 1.427,4.413" style="fill:#121212;"/><path id="Fill-607" d="M173.168,135.667c-3.247,-12.641 10.197,-13.901 2.163,-1.462c12.272,-3.724 5.092,8.145 -2.163,1.462" style="fill:#121212;"/><path id="Fill-609" d="M173.517,145.462c0.71,-3.903 6.109,-2.877 8.355,-2.478c3.593,4.813 -5.719,13.376 -5.549,6.037c3.031,-4.397 -0.977,-3.096 -2.806,-3.559" style="fill:#121212;"/><path id="Fill-611" d="M181.872,142.985c-1.9,-0.205 0.809,-4.645 0.302,-5.689c4.803,-0.014 0.977,3.504 -0.302,5.689" style="fill:#753478;"/><path id="Fill-613" d="M182.304,148.722c0.015,-1.206 0.029,-2.413 0.054,-3.614c1.77,1.24 2.613,2.458 -0.054,3.614" style="fill:#753478;"/><path id="Fill-615" d="M177.776,134.03c-0.815,0.058 -1.63,0.116 -2.446,0.174c0.82,-1.241 1.405,-1.109 2.446,-0.174" style="fill:#753478;"/><path id="Fill-617" d="M176.306,124.803c-1.285,1.138 -0.557,-0.775 -0.247,-1.482c0.083,0.494 0.165,0.988 0.247,1.482" style="fill:#753478;"/><path id="Fill-619" d="M190.376,149.525c0.772,-0.199 0.076,1.424 -0.206,0.394c-0.031,-0.101 0.131,-0.26 0.206,-0.394" style="fill:#121212;"/><path id="Fill-621" d="M186.691,158.048l-0.073,-0.347c0.051,0.097 0.22,0.257 0.073,0.347" style="fill:#121212;"/><path id="Fill-623" d="M248.802,406.445c-3.767,0.642 -5.332,2.755 -4.374,6.557c-5.773,6.83 -8.844,8.434 -10.383,-1.704c-7.022,17.589 -11.391,-3.43 -2.595,-5.383c6.883,-2.174 12.19,-5.799 17.352,0.53" style="fill:#121212;"/><path id="Fill-625" d="M228.684,427.294c1.426,3.578 -6.97,3.952 -7.147,0.122c2.382,-0.041 4.765,-0.081 7.147,-0.122" style="fill:#753478;"/><path id="Fill-627" d="M231.717,425.435c-3.229,0.29 -0.651,-2.659 -0.27,-4.488c2.93,1.223 1.825,2.41 0.27,4.488" style="fill:#121212;"/><path id="Fill-629" d="M220.144,452.275l0.173,-0.229c-0.003,0.028 -0.275,0.203 -0.173,0.229" style="fill:#753478;"/><path id="Fill-631" d="M226.306,328.549c0.965,-3.793 1.849,-5.011 3.602,-1.22c-0.291,1.55 -1.813,3.282 -3.602,1.22" style="fill:#121212;"/><path id="Fill-711" d="M262.891,272.327c7.163,-0.052 1.48,5.171 -1.98,5.69c-2.437,-2.798 0.035,-3.872 1.98,-5.69" style="fill:#e7d1e8;"/></g></g></svg>