<?xml version="1.0" encoding="UTF-8" standalone="no"?><!DOCTYPE svg PUBLIC "-//W3C//DTD SVG 1.1//EN" "http://www.w3.org/Graphics/SVG/1.1/DTD/svg11.dtd"><svg width="100%" height="100%" viewBox="0 0 512 512" version="1.1" xmlns="http://www.w3.org/2000/svg" xmlns:xlink="http://www.w3.org/1999/xlink" xml:space="preserve" xmlns:serif="http://www.serif.com/" style="fill-rule:evenodd;clip-rule:evenodd;stroke-linejoin:round;stroke-miterlimit:2;"><rect id="Artboard1" x="0" y="0" width="512" height="512" style="fill:none;"/><clipPath id="_clip1"><rect id="Artboard11" serif:id="Artboard1" x="0" y="0" width="512" height="512"/></clipPath><g clip-path="url(#_clip1)"><g id="Group-942"><path id="Fill-136" d="M253.794,294.37c-0.216,-0.427 -0.517,-0.137 -0.833,0.009c0.333,0.16 0.607,0.453 0.833,-0.009m56.101,-20.028c-0.391,-0.453 -0.423,0.694 -0.024,0.261c0.047,-0.054 0.019,-0.172 0.024,-0.261m-82.725,54.404c-0.857,-1.723 -2.227,-0.393 -1.5,0.863c0.406,-0.234 0.813,-0.468 1.5,-0.863m24.292,19.457c1.487,5.493 0.924,14.629 9.293,13.83c29.267,-3.403 59.062,-4.635 88.626,-6.925c6.988,0.755 -3.196,-58.848 -6.199,-63.053c-28.336,6.794 -59.425,2.638 -89.078,3.665c-11.818,13.089 3.46,35.852 -2.642,52.483m-3.946,-110.612c-2.915,10.964 3.209,22.348 0.73,34.459c-2.189,13.063 10.535,3.922 16.682,4.793c21.82,0.729 44.052,-3.072 65.863,-4.698c19.749,-1.463 6.082,-28.838 7.01,-41.367c-0.156,-17.728 -35.107,-3.258 -47.861,-7.501c-13.596,4.173 -52.185,-8.923 -42.424,14.314m-18.276,154.044c0.145,-14.71 -6.976,-36.993 1.716,-47.435c-13.378,-3.891 0.535,-26.104 -8.355,-33.15c0.975,-4.957 5.032,-14.586 0.687,-20.448c-1.603,-4.798 1.635,-13.496 -0.742,-18.828c-4.115,3.656 -9.878,-1.819 -14.596,-0.193c-2.978,1.82 -2.915,1.923 -7.934,-1.282c5.45,1.409 1.369,-7.453 2.98,-11.037c-1.86,-20.865 27.556,11.892 17.877,-32.434c-2.635,-0.448 -3.01,-5.19 -1.247,-7.477c2.252,-3.511 -4.348,-4.172 -1.162,-6.866c9.389,-9.531 -7.805,-101.79 16.667,-77.141c20.499,72.281 -19.502,82.5 67.068,68.842c9.643,-3.012 31.099,5.99 33.945,-5.202c0.52,-10.771 -10.879,-68.489 1.83,-68.694c13.681,16.77 11.957,45.908 16.195,67.492c1.546,4.453 1.919,8.441 0.528,12.934c7.286,8.551 5.325,28.923 6.379,40.531c5.378,0.808 15.988,-1.638 18.04,4.256c2.194,14.273 0.565,16.904 -14.033,16.46c-1.451,17.704 6.05,37.58 6.523,56.072c3.791,27.707 19.113,146.154 22.827,173.805c-26.432,16.836 -34.962,-89.651 -37.742,-110.73c0.596,-16.248 -5.297,-18.571 -20.3,-17.254c-26.101,1.513 -51.381,2.056 -79.077,3.231c-6.613,9.215 1.206,121.385 1.41,134.913c-12.205,-13.495 -23.475,-23.56 -28.383,-32.826" style="fill:#0c0c0c;"/><path id="Fill-164" d="M381.201,432.271c-21.933,4.438 -132.25,34.884 -143.523,-0c19.853,2.782 132.061,-8.751 143.523,-0" style="fill:#0c0c0c;"/><path id="Fill-212" d="M413.525,399.014c-2.837,-1.207 2.989,-1.395 4.32,-2.036c-1.441,0.679 -2.881,1.357 -4.32,2.036" style="fill:#F8D159;"/><path id="Fill-252" d="M208.159,371.531c1.018,0.678 2.036,1.357 3.054,2.036c-1.018,-0.68 -2.036,-1.358 -3.054,-2.036" style="fill:#F8D159;"/><path id="Fill-254" d="M211.213,373.567c0.679,1.017 1.357,2.035 2.036,3.053c-0.679,-1.018 -1.357,-2.036 -2.036,-3.053" style="fill:#F8D159;"/><path id="Fill-256" d="M201.034,366.509c1.018,0.295 2.036,0.589 3.053,0.883c-1.018,-0.294 -2.035,-0.589 -3.053,-0.883" style="fill:#F8D159;"/><path id="Fill-260" d="M191.873,359.316c0.678,0.339 1.357,0.679 2.036,1.018c-0.679,-0.34 -1.358,-0.679 -2.036,-1.018" style="fill:#F8D159;"/><path id="Fill-366" d="M191.736,7.41c-5.061,-2.917 -2.356,-3.245 -0.64,-7.41c-0.344,4.238 10.628,10.245 0.64,7.41" style="fill:#EFB400;"/><path id="Fill-404" d="M415.295,99.095c-8.326,-0.057 -13.234,0.901 -12.218,-9.016c1.223,-3.549 -3.139,-11.817 2.336,-11.7c8.809,0.085 17.91,-0.054 25.248,4.977c4.807,7.935 0.886,21.995 1.889,32.121c-1.927,6.269 -10.049,2.399 -14.835,2.787c-6.776,-2.463 -2.464,-14.625 -0.786,-19.672c-0.545,0.168 -1.089,0.335 -1.634,0.503" style="fill:#0c0c0c;"/><path id="Fill-406" d="M114.993,111.167c2.879,-7.211 6.014,-16.944 4.998,-23.955c-4.49,-7.266 11.588,-5.922 16.193,-7.49c6.399,1.709 20.48,-3.698 22.519,3.693c3.822,20.039 -11.455,11.733 -24.547,13.505c-3.218,3.404 3.258,15.444 -1.94,15.441c-3.599,-1.036 -20.771,2.703 -17.223,-1.194" style="fill:#0c0c0c;"/><path id="Fill-408" d="M117.249,245.129c6.04,0.376 14.767,-3.963 19.557,-0.508c0.386,12.65 20.092,0.175 15.767,14.704c2.302,19.176 -27.35,14.734 -36.297,5.969c-2.305,-4.31 4.32,-5.208 0.473,-7.662c-2.952,-3.41 0.372,-8.495 0.5,-12.503" style="fill:#0c0c0c;"/><path id="Fill-410" d="M260.726,86.586c3.447,16.972 -18.525,9.253 -28.816,10.101c-5.861,-2.605 -12.047,4.439 -10.179,-4.615c0.397,-9.599 -0.622,-12.107 9.913,-11.85c8.586,1.757 31.857,-8.535 29.082,6.364" style="fill:#0c0c0c;"/><path id="Fill-412" d="M135.719,170.6c5.047,28.07 -6.954,12.114 -17.899,26.717c-0.692,0.442 -3.414,-0.039 -2.692,-1.814c4.034,-5.025 0.139,-5.74 -3.645,-2.208c-1.964,-2.042 -0.842,-2.911 0.823,-4.462c5.157,-5.975 1.389,-14.839 1.637,-22.072c-0.24,-7.477 4.702,-4.86 8.41,-2.31c5.753,0.46 16.209,-4.605 13.366,6.149" style="fill:#0c0c0c;"/><path id="Fill-414" d="M113.496,209.662c-0.165,-10.008 16.8,-6.675 22.404,-6.151c-0.194,8.806 0.666,15.463 1.007,23.586c-30.242,10.124 -21.425,5.067 -23.411,-17.435" style="fill:#0c0c0c;"/><path id="Fill-416" d="M278.797,88.065c0.368,-10.301 0.346,-10.044 11.034,-9.118c5.625,2.496 21.994,-4.859 21.1,3.756c-1.558,4.977 2.711,15.405 -5.082,14.15c-9.215,-1.704 -30.651,6.938 -27.052,-8.788" style="fill:#0c0c0c;"/><path id="Fill-418" d="M400.452,270.534c-6.142,1.952 -0.458,-9.407 -2.736,-13.008c-0.806,-5.576 3.352,-5.842 6.657,-5.893c6.808,1.387 28.893,-2.811 29.758,2.841c-1.006,4.353 0.391,9.16 -4.112,12.401c-2.182,2.959 -21.229,6.853 -17.857,0.331c0.333,-0.582 -0.816,-1.994 -1.279,-3.02c-6.169,6.419 2.726,4.896 -10.431,6.348" style="fill:#0c0c0c;"/><path id="Fill-420" d="M354.934,87.846c7.022,13.401 -33.484,12.79 -30.587,6.94c1.59,-4.47 -2.357,-12.141 2.726,-14.527c8.137,-1.122 31.565,-6.325 27.861,7.587" style="fill:#0c0c0c;"/><path id="Fill-422" d="M203.677,90.011c-0.308,3.694 1.708,8.652 -4.257,7.551c-8.485,-3.092 -28.006,5.958 -26.837,-7.875c-0.099,-10.587 -0.187,-10.086 10.667,-8.22c9.447,2.468 23.413,-6.634 20.427,8.544" style="fill:#0c0c0c;"/><path id="Fill-424" d="M179.087,271.44c-12.903,2.395 -10.268,-9.02 -11.465,-18.191c-1.792,-4.215 10.426,-1.796 13.795,-6.919c0.92,5.589 5.681,1.796 8.113,3.436c7.037,8.616 2.784,24.91 -10.525,21.566c1.388,0.044 0.96,-0.972 0.082,0.108" style="fill:#0c0c0c;"/><path id="Fill-426" d="M423.003,203.43c-16.126,1.791 -5.282,-13.063 -9.23,-22.644c1.547,-5.608 11.533,-2.359 16.348,-3.673c5.647,4.948 2.434,16.46 4.01,23.682c-1.641,3.698 -7.848,2.383 -11.128,2.635" style="fill:#0c0c0c;"/><path id="Fill-428" d="M417.514,139.771c0.052,-1.05 -0.587,-0.89 -1.313,-1.144c-0.2,1.163 0.221,1.218 1.313,1.144m15.701,15.235c6.296,11.182 -23.434,9.946 -17.68,-0.654c2.687,-4.76 -2.572,-15.447 1.076,-17.988c27.028,-4.617 14.017,7.92 16.604,18.642" style="fill:#0c0c0c;"/><path id="Fill-430" d="M123.341,124.207c18.426,5.592 9.946,-1.132 12.531,20.254c0.464,6.838 -8.916,3.431 -13.056,4.906c-11.179,2.293 -3.971,-11.061 -10.339,-13.922c5.244,-3 2.923,-11.266 10.959,-11.262l-0.095,0.024Z" style="fill:#0c0c0c;"/><path id="Fill-432" d="M434.794,216.731c-1.122,7.322 2.65,16.039 -2.174,20.438c-5.107,-1.325 -15.863,2.258 -17.621,-3.624c3.867,-7.295 -8.177,-18.101 5.542,-18.065c3.636,0.983 16.194,-5.186 14.253,1.251" style="fill:#0c0c0c;"/><path id="Fill-434" d="M372.132,96.828c1.739,-23.349 -3.459,-15.909 19.532,-17.432c10.324,19.329 -1.864,19.541 -19.624,17.442l0.092,-0.01Z" style="fill:#0c0c0c;"/><path id="Fill-436" d="M100.444,266.364c-8.889,3.584 5.286,3.449 -0.681,9.172c-5.06,3.294 -8.397,2.801 -11.292,-2.541c1.598,8.781 -3.665,5.609 -9.813,4.033c1.897,-3.439 6.304,0.355 7.44,-3.292c-3.727,-0.09 -6.218,-0.493 -8.593,-3.7c-2.238,-1.134 -4.844,-1.921 -7.05,-3.246c3.764,-4.306 -1.82,-2.582 -2.633,-3.934c-3.093,-6.115 8.452,-3.063 -1.15,-8.027c7.204,-9.944 9.223,15.238 13.195,1.222c1.218,6.641 7.818,10.667 14.644,10.421c-3.598,-3.496 4.199,-3.025 5.806,-1.03c0.062,0.287 -0.124,1.044 0.127,0.922" style="fill:#EFB400;"/><path id="Fill-438" d="M114.513,211.641c-0.017,2.742 -0.033,5.482 -0.052,8.224c-5.626,-4.082 -5.936,-15.288 -10.181,-14.166c-2.5,1.053 -4.042,1.275 -4.258,-2.067c-5.01,-4.158 -12.703,10.423 -16.012,3.171c-1.268,-1.728 -5.937,-1.57 -7.37,-3.333c-3.653,-9.861 6,2.015 10.84,-0.82c-8.528,-10.016 20.011,-10.702 21.538,-3.094c0.476,4.471 3.073,11.935 5.495,12.085" style="fill:#EFB400;"/><path id="Fill-446" d="M81.139,131.308c1.289,4.162 3.287,6.941 7.927,7.368c-0.456,5.094 -0.755,14.809 -8.363,11.942c-4.97,3.369 10.602,7.778 4.049,9.191c-12.909,-0.008 -2.446,-11.313 -11.973,-11.89c6.868,-6.951 -3.651,-13.831 8.36,-16.611" style="fill:#FCE8A8;"/><path id="Fill-448" d="M67.743,262.616c7.888,1.837 -1.511,4.015 9.779,7.274c2.992,5.681 11.244,1.653 7.56,5.444c-3.298,-0.406 -6.381,0.043 -7.374,3.697c-1.822,-3.435 -4.193,-11.073 -9.29,-5.278c-0.152,4.626 7.53,14.736 1.903,16.346c-3.093,-6.655 -6.73,-10.635 -13.785,-13.313c-4.21,-6.64 5.246,-0.926 8.638,-0.064c3.194,-8.731 -13.45,-3.374 2.569,-14.106" style="fill:#F8D159;"/><path id="Fill-454" d="M116.847,245.312c-0.125,4.019 -3.378,9.132 -0.492,12.552c3.795,2.448 -2.745,3.382 -0.458,7.689c-3.528,0.696 -5.959,1.037 -6.503,5.649c-0.824,0.242 -1.674,0.391 -2.514,0.575c-1.961,-4.026 -7.41,-0.551 -6.52,-6.2c-0.143,-3.892 3.682,-5.897 6.028,-5.28c6.725,1.079 5.408,-12.909 10.459,-14.985" style="fill:#EFB400;"/><path id="Fill-456" d="M71.758,99.487c-3.03,1.824 -5.732,3.35 -9.158,1.377c1.714,-0.64 4.684,-0.982 3.006,-3.457c-4.577,-5.457 5.696,-0.99 1.248,-8.087c3.908,4.436 8.643,-2.554 12.855,-3.817c-0.751,8.884 7.43,8.294 0.332,10.792c-1.502,2.223 -1.063,2.903 -2.641,0.12c-3.896,1.062 -1.667,4.63 -7.966,2.209c0.775,0.288 1.55,0.576 2.324,0.863" style="fill:#FCE8A8;"/><path id="Fill-458" d="M205.154,284.963c-0.883,-0.515 -1.346,-0.844 -1.859,-1.032c-1.225,0.963 0.493,1.882 1.859,1.032m2.09,10.226c-1.018,-4.932 -8.483,-1.208 -5.853,-9.03c-3.167,-6.992 -0.855,-11.92 6.845,-9.147c6.834,4.92 8.007,-8.723 11.12,2.147c-2.058,-0.134 -10.149,-0.499 -6.326,2.511c2.972,0.83 8.076,-0.958 2.894,2.709c-3.555,-0.335 -12.228,0.189 -12.054,4.495c6.608,3.567 16.134,4.755 3.374,6.315" style="fill:#F8D159;"/><path id="Fill-468" d="M76.007,166.938c4.471,-0.16 2.671,5.188 1.606,6.513c-4.309,1.277 -2.076,4.895 -2.945,7.309c-1.676,5.572 -3.42,5.136 -3.919,11.622c-2.583,-4.169 -11.195,-17.952 -1.9,-14.215c3.522,11.74 -0.859,-7.017 7.158,-11.229" style="fill:#EFB400;"/><path id="Fill-470" d="M87.932,279.052c-0.323,-11.799 4.837,-0.802 7.04,5.09c0.35,1.164 7.164,2.697 -0.03,3.792c4.511,4.335 -2.241,8.158 -6.784,7.066c-1.76,-1.576 0.57,-2.631 1.788,-3.237c10.449,-4.82 -6.947,-1.384 -2.014,-12.711" style="fill:#F8D159;"/><path id="Fill-474" d="M87.03,125.648c1.192,-3.828 1.139,-8.218 4.947,-10.626c-3.593,14.994 19.807,2.077 9.886,10.916c-7.65,-4.465 -2.252,4.475 -3.604,7.406c-2.128,-5.812 -3.879,-10.373 -11.229,-7.696" style="fill:#EFB400;"/><path id="Fill-484" d="M117.85,7.694c26.456,-3.603 0.749,13.007 0.12,5.691c-0.569,-2.143 -7.41,-8.114 -0.12,-5.691" style="fill:#FCE8A8;"/><path id="Fill-488" d="M110.097,70.196c9.267,12.307 -12.095,3.576 -3.813,-4.038c-2.296,-12.226 6.248,1.054 3.813,4.038" style="fill:#EFB400;"/><path id="Fill-490" d="M192.209,265.576c-2.163,-11.054 6.707,-1.854 9.504,-9.067c2.904,2.45 -0.148,7.153 1.18,10.299c1.199,5.36 -4.083,2.179 -4.844,-0.15c-1.808,-3.361 -3.207,0.589 -5.84,-1.082" style="fill:#EFB400;"/><path id="Fill-494" d="M162.728,306.755c-1.11,0.52 -0.534,0.808 -0.144,1.565c0.891,-0.413 0.468,-0.876 0.144,-1.565m-9.535,5.146c3.686,-2.087 7.113,-9.328 11.96,-7.145c-0.289,1.086 4.084,1.565 0.325,3.197c-7.381,3.892 6.054,3.261 0.644,5.58c-6.599,3.502 -5.713,-3.502 -12.929,-1.632" style="fill:#F8D159;"/><path id="Fill-496" d="M145.206,53.966c4.934,-0.256 16.94,2.413 7.558,1.722c12.428,8.875 -23.689,2.098 -7.558,-1.722" style="fill:#EFB400;"/><path id="Fill-500" d="M193.24,227.386c0.355,-0.221 0.406,-0.499 0.029,-0.642c-0.37,0.108 -0.344,0.419 -0.029,0.642m-0.485,-3.565c1.975,1.249 3.672,5.465 0.043,5.192c-2.368,-1.304 -4.461,-3.886 -7.377,-0.785c-0.408,0.433 -1.771,-0.064 -2.692,-0.131c-0.567,-5.653 13.213,-10.555 10.026,-4.276" style="fill:#EFB400;"/><path id="Fill-514" d="M148.103,315.556c-5.715,2.169 -10.879,8.34 -13.232,-0.766c7.693,2.101 6.995,-13.585 13.232,0.766" style="fill:#F8D159;"/><path id="Fill-518" d="M76.189,167.97c-11.609,5.173 2.582,-11.609 8.737,-7.509c1.04,8.882 -10.184,1.954 -8.737,7.509" style="fill:#FCE8A8;"/><path id="Fill-524" d="M194.566,8.143c2.526,10.479 -8.924,8.174 -12.872,0.969c5.007,1.492 8.52,-0.375 12.872,-0.969" style="fill:#EFB400;"/><path id="Fill-526" d="M103.21,80.414c10.378,2.192 10.833,3.916 2.104,9.161c-1.367,-3.223 -6.921,-6.566 -2.104,-9.161" style="fill:#EFB400;"/><path id="Fill-530" d="M113.981,299.074c-0.508,0.266 -0.19,0.549 0.001,0.905c0.505,-0.263 0.202,-0.552 -0.001,-0.905m-8.557,-2.422c-0.741,-4.695 4.457,-1.56 5.486,-0.047c0.755,5.836 3.642,-0.043 6.657,0.914c-2.522,0.946 -2.76,3.774 -1.016,5.515c-4.606,1.433 -9.608,-2.562 -11.127,-6.382" style="fill:#EFB400;"/><path id="Fill-532" d="M81.94,256.753c0.127,-8.565 9.891,-4.72 8.269,-2.723c-2.423,2.339 -3.725,4.177 1.083,4.762c3.831,6.974 -6.736,-1.133 -9.352,-2.039" style="fill:#F8D159;"/><path id="Fill-534" d="M204.848,251.185c-6.88,7.091 -4.331,-4.296 -2.396,-8.7c-2.931,3.147 -5.655,1.537 -3.938,-2.454c2.6,2.213 3.49,-0.398 4.793,-1.844c5.403,2.13 1.557,6.764 0.516,7.662c-3.649,3.151 -0.134,3.801 1.025,5.336" style="fill:#F8D159;"/><path id="Fill-536" d="M120.62,24.87c4.577,-0.683 2.434,-0.18 1.398,-3.392c14.945,-1.701 0.696,18.555 -1.398,3.392" style="fill:#FCE8A8;"/><path id="Fill-540" d="M94.834,45.805c-2.981,-2.892 -8.702,-10.3 -0.572,-7.536c2.663,4.663 5.764,0.406 9.054,1.067c-0.875,3.129 -4.948,3.563 -8.482,6.469" style="fill:#EFB400;"/><path id="Fill-548" d="M133.853,70.502c-4.348,-0.565 -9.891,-0.788 -3.438,2.658c-10.848,7.268 -1.464,-5.829 -5.723,-9.122c2.416,-3.685 8.475,4.666 9.161,6.464" style="fill:#EFB400;"/><path id="Fill-552" d="M178.64,26.806c-6.898,6.039 -7.659,0.819 -11.197,-4.232c2.598,-3.879 7.207,2.777 11.197,4.232" style="fill:#F8D159;"/><path id="Fill-556" d="M122.478,321.891c-7.527,2.387 -26.764,-1.072 -11.237,-5.326c1.537,5.83 1.54,5.84 8.446,3.667c1.603,-0.504 3.577,-1.761 2.791,1.659" style="fill:#F8D159;"/><path id="Fill-560" d="M143.927,73.057c-3.329,0.073 -8.039,-4.533 -2.264,-3.033c3.416,1.537 3.911,0.607 3.732,-3.184c6.286,6.559 3.445,-1.761 9.834,-2.713c-2.513,2.805 -8.05,10.596 -11.302,8.93" style="fill:#F8D159;"/><path id="Fill-562" d="M80.841,130.866c-4.083,2.405 -8.963,1.833 -2.836,-1.674c-9.012,-4.879 4.06,-11.435 2.836,1.674" style="fill:#F8D159;"/><path id="Fill-564" d="M114.513,110.95c-9.732,3.332 -4.058,1.615 -11.376,7.126c-11.232,-7.943 4.753,-4.444 11.376,-7.126" style="fill:#F8D159;"/><path id="Fill-566" d="M72.453,45.805c-1.819,-0.064 -11.469,-9.499 -8.143,-11.197c4.42,3.049 12.742,6.212 8.143,11.197" style="fill:#EFB400;"/><path id="Fill-586" d="M177.622,39.476c-6.28,5.593 -4.07,-0.315 -9.161,-5.7c7.793,-1.06 4.543,2.638 9.161,5.7" style="fill:#F8D159;"/><path id="Fill-588" d="M203.677,237.635c-5.716,6.046 -3.831,0.066 -0.487,-3.447c-1.031,-3.52 -0.634,-3.293 2.198,-4.144c2.038,3.122 -0.703,5.16 -1.711,7.591" style="fill:#EFB400;"/><path id="Fill-590" d="M105.549,296.207c3.78,4.166 -6.563,6.343 -9.358,4.33c2.253,-2.863 6.203,-2.959 9.358,-4.33" style="fill:#F8D159;"/><path id="Fill-592" d="M195.944,301.007c-4.508,-0.726 -7.51,4.521 -8.143,-2.025c2.975,-8.522 2.585,-0.359 8.143,2.025" style="fill:#F8D159;"/><path id="Fill-594" d="M85.418,245.997c-0.442,-6.025 1.9,-0.141 2.704,-0.295c7.49,-0.241 -1.004,7.668 -5.164,1.008c1.123,-0.128 3.453,1.159 2.46,-0.713" style="fill:#F8D159;"/><path id="Fill-598" d="M87.168,159.809c-3.644,-4.375 2.154,-6.382 5.969,-4.204c-1.461,2.072 -3.783,3.025 -5.969,4.204" style="fill:#EFB400;"/><path id="Fill-600" d="M64.636,314.529c-4.75,-0.34 -9.501,-0.679 -14.25,-1.018c4.75,0.34 9.5,0.679 14.25,1.018" style="fill:#F8D159;"/><path id="Fill-602" d="M119.404,87.539c2.82,2.33 -0.057,4.113 -0.722,6.107c-3.085,-2.728 -2.807,-5.088 0.722,-6.107" style="fill:#EFB400;"/><path id="Fill-606" d="M220.374,272.822c3.323,-3.108 3.627,1.464 2.368,4.045c-0.791,-1.351 -1.579,-2.698 -2.368,-4.045" style="fill:#F8D159;"/><path id="Fill-610" d="M205.105,230.044c1.923,-0.712 4.266,-3.689 5.09,-0.794c-1.614,0.296 -3.747,0.417 -5.09,0.794" style="fill:#EFB400;"/><path id="Fill-616" d="M81.865,261.583c-1.338,-2.037 -1.518,-3.347 1.234,-2.975c1.037,1.667 1.691,3.157 -1.234,2.975" style="fill:#F8D159;"/><path id="Fill-618" d="M138.942,322.943c-1.303,0.825 -1.981,1.158 -3.053,-0.013c1.201,-1.669 1.499,-1.737 3.053,0.013" style="fill:#F8D159;"/><path id="Fill-620" d="M119.602,83.467c-0.831,1.629 -0.887,4.093 -3.053,2.583c1.018,-0.861 2.035,-1.721 3.053,-2.583" style="fill:#EFB400;"/><path id="Fill-622" d="M64.614,171.006c-1.174,-1.667 -1.522,-1.947 0.135,-3.054c1.582,1.101 0.796,1.427 -0.135,3.054" style="fill:#0c0c0c;"/><path id="Fill-624" d="M83.564,258.447c-1.523,0.313 -1.849,-0.075 -1.492,-1.938c1.006,0.517 2.686,0.339 1.492,1.938" style="fill:#EFB400;"/><path id="Fill-630" d="M102.496,207.65c0.99,1.245 1.163,1.281 0.081,2.036c-0.527,-0.669 -0.16,-0.908 -0.081,-2.036" style="fill:#EFB400;"/><path id="Fill-632" d="M207.141,295.189c-0.809,0.66 -1.313,1.678 -2.036,0.422c0.646,-0.162 1.55,-0.216 2.036,-0.422" style="fill:#F8D159;"/><path id="Fill-634" d="M103.316,117.76c-0.943,0.221 -3.255,2.433 -3.039,0.633c0.945,-0.343 2.647,-2.387 3.039,-0.633" style="fill:#F8D159;"/><path id="Fill-636" d="M194.926,8.136c-1.264,-0.072 -2.716,0.344 -3.053,-1.011c1.019,0.337 2.037,0.674 3.053,1.011" style="fill:#F8D159;"/><path id="Fill-638" d="M84.994,159.752c-1.697,-0.02 -3.393,-0.038 -5.089,-0.056c0.66,-1.97 3.488,0.116 5.089,0.056" style="fill:#EFB400;"/><path id="Fill-640" d="M121.638,81.431c-0.679,0.679 -1.36,1.358 -2.036,2.036c0.681,-0.678 1.358,-1.357 2.036,-2.036" style="fill:#EFB400;"/><path id="Fill-642" d="M99.245,121.549c-1.123,0.573 -1.385,0.987 -2.036,0.018c0.789,-0.52 1.058,-0.637 2.036,-0.018" style="fill:#F8D159;"/><path id="Fill-650" d="M119.202,25.447c-0.206,-0.338 -0.412,-0.678 -0.618,-1.018c0.651,0.274 1.549,0.41 0.618,1.018" style="fill:#FCE8A8;"/><path id="Fill-654" d="M152.746,63.109c-0.606,-0.36 -0.511,-0.606 -0.168,-1.018c0.726,0.307 0.51,0.506 0.168,1.018" style="fill:#F8D159;"/><path id="Fill-656" d="M158.282,314.966c-0.413,0.453 -0.656,0.669 -1.018,-0.014c0.286,-0.523 0.62,-0.135 1.018,0.014" style="fill:#F8D159;"/><path id="Fill-658" d="M372.123,97.718c1.036,0.573 1.332,0.753 -0.034,1.018c-0.019,-0.293 0.318,-0.961 0.034,-1.018" style="fill:#0c0c0c;"/><path id="Fill-660" d="M87.714,125.351c-0.77,0.682 -0.031,1.17 -0.042,0.058c-0.003,0 0.042,-0.058 0.042,-0.058" style="fill:#EFB400;"/><path id="Fill-662" d="M74.815,128.427c-0.784,0.311 -1.513,1.521 -2.036,0.334c0.657,-0.068 1.556,-0.844 2.036,-0.334" style="fill:#F8D159;"/><path id="Fill-670" d="M410.163,267.355c-0.206,-0.341 -0.152,-0.341 0.215,-0.296l-0.215,0.296" style="fill:#0c0c0c;"/><path id="Fill-674" d="M114.7,219.923c0.805,0.256 0.856,0.415 0.15,0.902c0.07,-0.322 0.018,-0.622 -0.15,-0.902" style="fill:#EFB400;"/><path id="Fill-680" d="M78.887,158.258c0.34,0.017 0.68,0.033 1.018,0.049c-0.342,-0.018 -0.68,-0.033 -1.018,-0.049" style="fill:#EFB400;"/><path id="Fill-686" d="M123.674,124.134c-0.405,-0.309 -1.469,-0.433 -0.805,-0.92c0.258,0.253 0.436,0.908 0.805,0.92" style="fill:#0c0c0c;"/><path id="Fill-706" d="M69.355,2.634l-0.277,-0.049c0.155,-0.13 0.252,-0.23 0.277,0.049" style="fill:#0c0c0c;"/><path id="Fill-708" d="M447.216,234.054c0.94,0.095 2.095,-0.418 2.888,0.144c6.217,-8.546 -2.308,11.742 7.124,8.48l-0.058,-0.054c10.946,17.573 -19.521,5.71 -9.954,-8.57" style="fill:#F8D159;"/><path id="Fill-710" d="M458.573,220.883c-0.581,6.849 4.388,4.681 2.684,7.25c-11.831,6.005 -13.276,-3.749 -2.684,-7.25" style="fill:#F8D159;"/><path id="Fill-716" d="M276.159,448.234c0.405,0.558 0.811,1.116 1.217,1.675c-0.678,-0.68 -1.357,-1.358 -2.036,-2.036c0.273,0.12 0.546,0.24 0.819,0.361" style="fill:#EFB400;"/><path id="Fill-726" d="M356.533,390.545c-0.18,-0.123 -0.361,-0.245 -0.541,-0.366c0.072,0.217 0.54,0.238 0.541,0.366" style="fill:#0c0c0c;"/><path id="Fill-744" d="M314.552,442.493c-4.145,2.355 -8.415,4.442 -12.747,6.398c0.695,-4.805 16.136,-13.681 12.747,-6.398" style="fill:#FCE8A8;"/><path id="Fill-834" d="M452.431,259.563c0.336,4.692 -3.224,9.847 -8.071,7.6c-0.704,-3.304 6.26,-5.089 8.071,-7.6" style="fill:#F8D159;"/><path id="Fill-836" d="M268.215,251.419c0.386,-0.416 0.757,-1.638 1.018,-0.626c-0.274,0.24 -0.902,0.395 -1.018,0.626" style="fill:#F8D159;"/><path id="Fill-838" d="M259.526,254.229c-0.281,-0.209 -0.288,-0.47 0.064,-0.53c0.328,0.142 0.26,0.393 -0.064,0.53" style="fill:#F8D159;"/><path id="Fill-840" d="M258.386,245.063c0.111,-0.173 0.221,-0.346 0.332,-0.519c0.066,0.278 -0.463,0.366 -0.332,0.519" style="fill:#F8D159;"/></g></g></svg>
