<?xml version="1.0" encoding="UTF-8" standalone="no"?><!DOCTYPE svg PUBLIC "-//W3C//DTD SVG 1.1//EN" "http://www.w3.org/Graphics/SVG/1.1/DTD/svg11.dtd"><svg width="100%" height="100%" viewBox="0 0 512 400" version="1.1" xmlns="http://www.w3.org/2000/svg" xmlns:xlink="http://www.w3.org/1999/xlink" xml:space="preserve" xmlns:serif="http://www.serif.com/" style="fill-rule:evenodd;clip-rule:evenodd;stroke-linejoin:round;stroke-miterlimit:2;"><rect id="Artboard1" x="0" y="0" width="512" height="512" style="fill:none;"/><g><path id="Fill-5" d="M255.526,152.33c0.823,-2.279 2.027,-4.005 -0.047,-5.035c-3.493,1.313 -2.183,2.278 0.047,5.035m-66.016,-10.191c-0.07,-2.067 -3.197,-0.077 -4.578,0.011c-0.916,4.007 3.344,2.24 4.578,-0.011m14.384,0.89c-3.146,-1.934 -8.324,-0.117 -7.046,3.892c4.041,4.438 6.101,1.743 7.046,-3.892m-24.835,-76.811c3.145,-1.891 -1.342,-4.236 -1.584,-5.806c0.563,-2.456 -3.591,-4.832 -5.47,-4.15c5.328,8.05 -3.867,4.65 7.054,9.956m78.092,27.488c-10.864,-3.102 -3.879,31.989 -5.508,39.518c-1.432,4.202 15.511,4.305 14.01,-0.006c-0.35,-10.168 -0.512,-20.369 -0.012,-30.533c0.477,-8.733 0.545,-8.826 -8.49,-8.979m-70.599,64.993c-3.399,1.352 -1.725,5.03 1.157,5.611c0.141,-1.336 0.457,-2.663 0.011,-3.972c3.315,0.639 6.643,-5.717 2.88,-7.63c-3.828,-13.801 -8.46,-1.739 -4.048,5.991m-27.951,-111.584c-3.531,2.575 1.988,2.819 1.304,4.742c-0.026,0.07 1.387,0.726 2.177,0.94c-0.986,-7.82 2.132,-6.26 4.319,-13.421c-3.394,1.319 -5.142,5.306 -7.8,7.739m53.436,33.017c-7.893,9.996 40.111,2.054 48.567,4.53c25.007,1.016 50.078,-0.022 75.091,1.339c2.575,0.119 2.781,-1.031 2.619,-3.075c-1.542,-24.778 0.299,-49.676 0.242,-74.495c-0.129,-5.73 -9.406,-1.555 -13.152,-2.369c-4.729,0.961 -12.655,-0.101 -16.409,1.932c-3.399,4.275 -3.855,-2.875 -6.52,-1.028c-11.077,2.959 -23.437,-1.733 -35.128,1.649c-3.694,2.229 -5.017,-1.396 -8.637,-0.818c-6.568,1.588 -13.963,-1.024 -19.765,1.605c-12.987,0.362 -23.763,-0.519 -36.476,0.361c-2.993,-0.177 2.015,7.684 0.078,10.944c-1.394,1.602 -1.793,-0.232 -1.592,-1.691c-3.091,-3.124 -3.088,-3.118 -3.382,-7.734c-9.022,-4.35 -12.765,8.986 -19.175,14.852c6.454,-2.652 2.725,3.564 7.592,5.054c-3.959,4.266 4.97,18.987 -4.894,16.992c-2.628,0.496 -5.278,-3.467 -5.929,-5.446c3.059,-0.915 0.426,-4.469 -1.231,-4.878c-6.312,-2.47 -5.128,1.264 -3.024,5.848c-0.815,1.877 0.838,2.519 1.763,3.526c-0.17,4.149 -1.415,9.524 4.22,6.364c0.785,-2.245 4.957,-4.788 5.787,-1.245c-1.267,5.47 1.563,2.537 4.934,2.712c1.315,3.148 -2.164,5.399 0.526,8.313c-2.512,1.667 -0.332,2.059 0.747,2.751c-1.265,2.143 -5.537,0.53 -7.919,1.256c-1.215,0.582 -1.056,1.64 0.464,1.703c20.303,1.556 -3.646,1.636 13.483,13.077c1.006,3.347 4.3,2.627 7.028,2.608c1.791,-0.69 2.515,-3.508 5.15,-2.601c0.428,-3.174 -7.662,-3.586 -2.968,-7.106c3.453,-4.004 8.061,-0.36 9.881,-6.068c4.416,-1.034 1.064,10.282 -1.971,11.138m38.72,90.307c-5.426,-2.707 -0.951,7.837 -6.334,1.152c-0.799,-0.861 -1.476,-1.72 -2.4,-0.176c-3.567,2.34 0.172,-4.28 -4.644,-1.678c-1.806,0.233 -1.508,-1.952 -0.554,-2.471c2.432,0.476 1.549,-1.543 2.016,-2.516c4.691,-1.656 4.568,0.196 7.922,1.979c-0.248,-3.74 -4.505,-6.841 3.161,-6.542c-6.165,-4.402 3.06,-4.149 -1.761,-8.546c-7.802,-3.033 3.054,-7.017 -0.544,-8.111c-11.115,-0.424 -21.021,-2.065 -32.737,-0.672c0.154,1.407 3.852,1.326 4.735,0.405c2.291,4.943 -4.2,6.55 -3.349,10.571c12.31,1.343 -3.087,-10.686 14.581,-3.362c3.104,-2.354 0.193,-4.465 6.638,-3.508c3.71,2.921 -3.075,9.14 1.935,8.259c3.968,-3.598 3.115,1.028 6.739,1.18c-1.253,1.483 -3.267,2.814 -3.601,4.483c-1.996,6.138 -7.318,1.092 -5.728,-3.18c-0.288,-2.572 -2.456,-1.261 -3.733,-1.452c-2.457,-0.5 -0.662,3.09 -1.95,3.901c-3.766,-0.078 -7.34,-5.065 -9.518,0.384c-1.613,3.178 1.21,6.39 -3.085,7.013c-3.931,0.08 -6.509,-6.376 -2.149,-7.333c-0.701,-1.353 -1.455,-6.345 -3.172,-4.498c-2.494,-0.918 -5.164,-0.143 -4.539,0.89c2.161,4.098 2.108,18.452 -2.408,11.537c4.175,-4.26 -2.318,-9.375 -6.89,-7.254c2.308,5.748 1.154,12.386 -4.142,4.987c3.405,-1.703 -3.228,-6.134 2.774,-7.056c0.713,-0.235 1.465,-1.168 1.659,-1.92c0.221,-1.321 -0.789,-2.823 -1.988,-3.513c1.826,-1.326 0.041,-1.827 -0.592,-2.592c-3.859,1.742 -2.57,5.672 -3.633,8.909c0.357,9.764 3.955,6.768 -8.319,6.496c5.45,4.222 4.386,3.913 4.052,10.423c0.383,2.076 -4.252,3.938 -4.09,6.575c-1.049,11.731 2.198,23.872 -0.877,35.045c-0.501,3.745 -0.226,3.858 4.037,3.361c8.646,-0.588 17.467,0.761 24.674,-3.181c0.553,6.068 16.144,-1.201 5.974,0.172c-0.599,-1.8 1.366,-3.159 1.831,-2.779c3.044,2.493 5.741,-1.146 8.562,-0.177c-5.146,10.48 38.297,1.849 47.829,4.617c16.333,-0.881 34.084,2.263 49.744,-1.319c12.118,-11.14 24.097,-22.465 36.67,-33.09c3.301,-5.664 -10.99,-13.274 -13.744,-18.961c-8.647,-5.584 -12.156,-21.721 -23.244,-21.087c-19.172,-2.148 -38.618,0.556 -56.886,-1.635l0.042,-0c-9.673,-2.661 -9.987,6.475 -1.08,0.776c2.823,1.382 -0.595,5.203 3.312,5.03c-0.071,1.377 -0.137,5.995 -2.048,4.157c-2.262,-3.702 -5.593,1.423 -1.28,1.976c0.345,2.873 -3.283,4.149 -4.424,1.304c-1.42,-4.965 -2.896,4.143 -5.902,-0.812c-0.29,1.819 -0.596,3.628 -2.225,4.829c2.713,0.967 3.21,4.035 -0.506,2.942c-5.548,-3.427 -4.674,2.233 -4.811,6.068m23.539,193.474c-0.101,11.19 -0.057,22.379 0.086,33.568c-10.768,-3.932 -9.538,-18.008 -9.789,-27.52c1.888,-33.783 1.221,-67.773 0.75,-101.634c-2.005,-9.128 4.518,-35.595 -2.7,-39.231c-3.203,1.212 -10.982,-1.741 -11.18,2.911c-1.943,44.057 0.865,88.678 -2.225,132.576c-17.508,-15.226 -5.849,-41.215 -8.94,-62.123c-1.979,-10.708 8.547,-88.303 -9.765,-72.679c-18.302,-3.809 -6.052,9.074 -15.005,23.94c-5.285,13.424 -12.781,25.891 -16.867,39.907c-1.676,5.751 -1.287,11.112 -0.59,16.708c-3.47,5.223 -9.604,1.576 -8.499,-4.061c0.755,-27.632 26.545,-50.753 24.585,-77.121c-9.696,0.032 -21.021,0.282 -31.371,-0.816c-15.601,-3.376 -4.4,-36.386 -7.196,-49.086c0.491,-5.032 -4.314,-3.04 -6.518,-0.82c-25.738,20.527 -29.715,58.728 -21.779,88.775c2.325,7.405 5.829,14.448 8.956,21.587c0.799,7.914 -7.08,1.409 -7.724,-2.924c-7.646,-16.553 -13.626,-34.094 -22.69,-49.92c-24.358,-34.468 -75.496,-61.016 -115.558,-38.702c-24.849,32.178 101.963,78.539 111.921,108.723c9.34,8.39 -17.143,26.156 -6.246,11.147c-8.401,1.43 -15.125,7.347 -22.679,10.998c-89.838,39.93 -88.01,-65.112 -0.019,-35.3c2.596,1.038 4.234,8.259 0.005,5.23c-88.755,-20.091 -69.407,61.462 8.329,17.076c17.547,-10.124 -30.446,-0.023 -29.81,-7.323c3.043,-6.826 17.487,-3.14 24.423,-5.138c5.978,-0.542 11.004,2.881 15.398,6.471c21.057,-4.483 -103.778,-68.362 -108.915,-91.822c-18.15,-44.104 60.877,-36.441 83.213,-23.607c39.286,15.19 53.375,64.211 52.085,39.504c0.1,-26.915 12.965,-54.173 36.73,-66.01c4.101,-9.576 -3.926,-28.844 10.1,-31.361c13.447,-3.018 50.245,5.212 56.337,-4.726c0.063,-11.092 0.172,-22.18 0.183,-33.268c1.226,-7.84 -9.669,-2.279 -14.273,-3.994c-10.883,-2.097 -26.165,4.192 -34.286,-4.456c-12.308,-12.281 -27.087,-22.755 -39.888,-34.715c-14.712,-8.709 33.504,-50.113 42.215,-52.972c46.821,-1.011 95.567,-2.309 143.924,-1.393c14.486,3.462 5.603,54.885 8.716,68.995c2.811,26.252 -5.299,24.127 -27.719,24.197c-9.389,2.195 -40.749,-4.358 -43.84,3.274c3.567,9.253 -5.74,36.912 3.793,39.609c39.389,1.663 48.472,-7.409 76.704,25.318c29.125,24.584 12.516,28.795 -9.396,48.34c-25.536,23.262 -20.882,19.121 -54.733,18.981c-5.098,1.448 -18.012,-3.297 -18.276,4.05c-0.394,21.355 -0.891,42.779 0.047,63.989c-1.497,20.902 0.03,34.192 -0.412,56.466c1.215,3.369 -2.908,6.931 0.388,10.382" style="fill:#151313;"/><path id="Fill-7" d="M310.753,339.118c-15.213,19.593 1.567,-31.28 5.55,-35.85c10.784,-24.321 29.964,-43.17 50.864,-59.051c85.28,-57.167 132.9,-26.506 42.253,48.814c-3.272,4.907 3.953,1.434 9.525,-0.483c26.083,-8.074 59.374,-14.175 82.629,3.83c44.663,48.785 -66.846,57.907 -95.817,54.014c194.97,-17.185 54.898,-105.235 -24.952,-26.837c-9.116,9.411 -16.081,20.524 -23.155,31.398c-6.662,-17.996 26.003,-40.989 36.563,-55.173c19.025,-22.274 45.179,-39.419 58.364,-66.087c3.783,-31.667 -59.474,0.346 -71.902,8.577c-34.39,20.933 -63.597,55.198 -69.922,96.848" style="fill:#151313;"/><path id="Fill-27" d="M409.493,127.618c20.209,-1.833 18.182,-27.928 -3.605,-21.046c-6.369,6.568 -9.92,20.203 3.605,21.046m6.009,-28.667c27.341,1.458 14.165,41.18 -8.976,35.926c-25.437,-3.753 -10.16,-37.295 8.976,-35.926" style="fill:#151313;"/><path id="Fill-31" d="M108.242,134.203c-3.858,-1.807 -4.45,-8.397 -7.362,-10.992c-1.224,-0.75 -5.423,3.047 -7.572,3.439c-2.493,-0.118 -4.482,-1.604 -2.539,-4.017c16.461,-9.785 -0.565,-12.777 7.296,-20.409c6.933,-0.851 5.389,13.447 13.342,6.023c12.768,-7.752 8.965,6.637 -0.78,8.553c-5.023,4.285 11.633,16.61 -2.385,17.403" style="fill:#151313;"/><path id="Fill-33" d="M292.689,278.23c0.401,4.784 7.716,7.475 8.001,1.691c-0.715,-6.408 -5.205,-6.45 -8.001,-1.691m16.015,1.339c0.053,15.626 -21.499,14.73 -22.022,0.687c0.425,-13.8 21.521,-17.752 22.022,-0.687" style="fill:#151313;"/><path id="Fill-71" d="M274.029,289.984c-0.014,-1.896 -0.027,-3.792 -0.041,-5.686c0.013,1.897 0.027,3.791 0.041,5.686" style="fill:#0089ab;"/><path id="Fill-77" d="M273.633,316.347c0.153,-1.524 0.307,-3.049 0.459,-4.571c-0.154,1.525 -0.306,3.048 -0.459,4.571" style="fill:#0089ab;"/><path id="Fill-79" d="M54.002,354.349c-0.555,0.486 -1.109,0.972 -1.663,1.456c0.555,-0.487 1.109,-0.972 1.663,-1.456" style="fill:#0089ab;"/><path id="Fill-85" d="M421.991,351.834c1.303,-0.108 2.606,-0.218 3.91,-0.326c-1.303,0.108 -2.606,0.218 -3.91,0.326" style="fill:#36b0ce;"/><path id="Fill-91" d="M273.908,302.897c0.019,-0.559 0.039,-1.119 0.057,-1.676c-0.02,0.56 -0.039,1.118 -0.057,1.676" style="fill:#0089ab;"/><path id="Fill-93" d="M273.82,293.621c0.085,-0.553 0.168,-1.105 0.253,-1.655c-0.085,0.553 -0.169,1.104 -0.253,1.655" style="fill:#0089ab;"/><path id="Fill-95" d="M304.38,338.401c-0.05,0.463 -0.101,0.926 -0.15,1.386c0.05,-0.465 0.1,-0.925 0.15,-1.386" style="fill:#0089ab;"/><path id="Fill-97" d="M274.067,351.199c0.066,-0.444 0.132,-0.888 0.199,-1.326c-0.066,0.445 -0.132,0.885 -0.199,1.326" style="fill:#0089ab;"/><path id="Fill-105" d="M274.028,354.11c-0.299,-0.156 -0.335,-0.325 -0.12,-0.579c0.304,0.159 0.336,0.312 0.12,0.579" style="fill:#0089ab;"/><path id="Fill-107" d="M274.353,297.352c-0.23,-0.114 -0.285,-0.146 -0.033,-0.287c0.186,0.105 0.22,0.151 0.033,0.287" style="fill:#0089ab;"/><path id="Fill-109" d="M274.072,309.791c-0.333,-0.1 -0.337,-0.253 -0.159,-0.519c0.313,0.12 0.353,0.247 0.159,0.519" style="fill:#0089ab;"/><path id="Fill-121" d="M165.976,295.92c0.296,-8.094 6.098,-63.522 15.044,-53.606c-3.025,18.587 -6.662,37.279 -6.276,56.254c-3.167,4.298 -9.567,3.359 -8.768,-2.648" style="fill:#151313;"/><path id="Fill-185" d="M194.823,72.379c-0.873,-3.628 -5.691,-6.388 0.164,-7.356c-3.367,4.033 3.057,2.277 4.514,5.318c3.873,-3.894 3.854,1.917 5.973,2.412c1.571,1.703 -6.254,4.255 -0.838,6.533c5.732,2.688 -0.631,2.841 -2.691,5.484c-1.203,0.352 -3.038,-0.146 -1.919,-1.526c0.991,-0.486 2.354,-0.715 1.129,-2.173c-0.759,-0.902 -1.662,-1.673 -3.025,-0.48c-3.559,3.424 -7.939,-1.407 -9.109,-5.156c5.253,2.71 14.975,-4.769 5.802,-3.056" style="fill:#0089ab;"/><path id="Fill-187" d="M278.294,29.407c-2.18,1.28 -11.464,5.206 -8.213,0.029c2.345,-0.891 1.749,-1.861 0.481,-3.322c-9.696,-11.703 1.015,-6.717 -7.173,-16.406c7.621,-3.728 1.085,5.588 6.591,7.218c7.229,5.306 -3.039,5.72 8.314,12.481" style="fill:#36b0ce;"/><path id="Fill-189" d="M246.161,156.402c-0.596,-0.046 -1.456,0.139 -1.737,-0.182c-1.942,-4.874 -3.465,-0.334 -7.137,-1.002c3.37,-9.127 -5.022,-14.01 10.333,-11.688c0.163,0.007 1.967,0.638 0.23,1.71c-5.384,2.616 1.048,7.485 -1.689,11.162" style="fill:#0089ab;"/><path id="Fill-191" d="M280.208,150.549c-1.051,-2.239 -0.646,-6.159 -4,-5.565c2.052,-1.938 4.504,0.994 6.817,0.799c4.847,-1.128 9.897,-1.803 14.9,-0.595c-13.023,0.19 0.132,7.682 -14.938,6.499c1.359,-2.518 -1.209,-1.321 -2.779,-1.138" style="fill:#0089ab;"/><path id="Fill-193" d="M216.167,73.047c1.916,-1.819 3.75,1.135 5.057,0.358c1.071,-0.814 4.835,-7.807 4.076,-3.129c-2.158,12.282 -4.06,4.846 -10.711,9.927c-3.138,0.828 1.319,-5.304 1.578,-7.156" style="fill:#06bbe8;"/><path id="Fill-197" d="M255.893,165.598c-6.325,-2.187 -0.524,-1.432 2.826,-1.217c-0.871,-0.968 -1.127,-2.999 -2.645,-2.953c2.772,-1.691 1.044,-6.839 4.361,-2.882c-1.995,5.741 7.111,3.467 5.964,8c-4.476,-2.828 -5.494,3.216 -10.506,-0.948" style="fill:#36b0ce;"/><path id="Fill-199" d="M186.077,212.085c6.509,-2.834 5.691,8.256 0.484,8.505c-1.907,0.469 0.953,0.724 1.714,1.017c-7.556,1.947 -3.075,-5.877 -2.198,-9.522" style="fill:#36b0ce;"/><path id="Fill-201" d="M230.171,212.843c1.821,-2.746 5.416,0.071 6.444,-3.67c2.058,4.966 -4.872,6.949 -3.338,11.384c-7.373,0.3 -4.105,-2.872 -3.106,-7.714" style="fill:#0089ab;"/><path id="Fill-203" d="M195.303,165.931c-3.634,-3.403 -2.245,-12.374 1.795,-15.131c0.634,0.765 2.418,1.267 0.593,2.593c2.182,1.116 2.845,4.424 0.328,5.431c-6.034,0.918 0.676,5.36 -2.772,7.057c0.001,-0.001 0.056,0.05 0.056,0.05" style="fill:#0089ab;"/><path id="Fill-205" d="M179.059,66.218c-10.77,-5.176 -1.816,-2.032 -7.054,-9.956c1.86,-0.694 6.043,1.703 5.471,4.15c0.238,1.565 4.732,3.921 1.583,5.806" style="fill:#0089ab;"/><path id="Fill-207" d="M238.841,164.75c-2.655,-3.341 3.518,1.12 3.718,-3.865c0.335,-1.668 2.349,-2.999 3.602,-4.484c0.676,0.36 5.745,4.498 1.728,3.794c-5.618,0.476 -0.473,4.115 -1.124,6.532c-3.372,-1.782 -3.203,-3.636 -7.924,-1.977" style="fill:#0089ab;"/><path id="Fill-209" d="M170.91,43.704c-0.641,-2.209 -1.974,-4.371 -2.194,-6.625c7.018,-0.744 11.955,5.947 2.194,6.625" style="fill:#0089ab;"/><path id="Fill-211" d="M246.128,8.67c3.84,3.61 0.127,8.815 -1.187,5.443c-1.269,-4.242 -3.105,-7.048 -6.129,-2.179c-0.209,-5.145 3.95,-3.574 7.316,-3.264" style="fill:#36b0ce;"/><path id="Fill-213" d="M224.365,9.516c-3.43,2.331 0.679,3.746 0.968,6.084c-1.702,2.623 -12.691,-8.936 -0.968,-6.084" style="fill:#36b0ce;"/><path id="Fill-215" d="M189.987,13.361c3.104,-2.591 4.571,-0.148 4.053,3.279c-4.111,3.127 -11.487,-2.606 -4.053,-3.279" style="fill:#36b0ce;"/><path id="Fill-217" d="M233.185,146.876c0.132,-4.496 -3.531,-3.389 -5.992,-4.058c5.283,-4.509 16.392,5.021 5.992,4.058" style="fill:#36b0ce;"/><path id="Fill-219" d="M220.669,149.568c4.672,3.354 -2.283,4.887 -4.4,4.267c-1.269,-2.07 3.083,-6.803 4.4,-4.267" style="fill:#0089ab;"/><path id="Fill-221" d="M238.55,178.925c-7.497,2.318 -0.231,-7.247 -2.892,-7.505c2.013,-2.742 2.895,1.173 4.512,0.766c9.041,0.619 -8.363,1.849 -1.62,6.739" style="fill:#0089ab;"/><path id="Fill-223" d="M158.601,47.115c2.658,-2.434 4.406,-6.419 7.798,-7.739c-0.981,3.208 -3.86,10.494 -7.798,7.739" style="fill:#36b0ce;"/><path id="Fill-225" d="M198.704,169.802c2.487,7.188 -1.662,0.157 -5.066,-0.052c-3.827,-0.513 -0.058,-3.487 1.666,-3.819c0.867,1.027 2.33,2.642 3.4,3.871" style="fill:#06bbe8;"/><path id="Fill-227" d="M194.916,82.161c2.163,-0.442 4.655,-3.68 6.239,-1.089c1.226,1.457 -0.138,1.686 -1.129,2.171c-0.537,3.07 -4.447,1.417 -5.11,-1.082" style="fill:#36b0ce;"/><path id="Fill-229" d="M158.601,47.115c3.601,-0.082 6.176,7.802 1.304,4.742c0.684,-1.923 -4.835,-2.167 -1.304,-4.742" style="fill:#0089ab;"/><path id="Fill-231" d="M269.722,144.169c-2.49,1.669 -6.917,5.151 -8.251,0.525c2.581,-1.329 5.479,-0.483 8.251,-0.525" style="fill:#0089ab;"/><path id="Fill-233" d="M192.667,167.145c-0.587,1.207 -1.402,2.498 0.97,2.606c-7.68,1.584 -11.286,-6.266 -0.97,-2.606" style="fill:#0089ab;"/><path id="Fill-235" d="M188.503,67.044c1.442,4.57 -5.849,1.985 -8.605,1.504c1.821,-2.499 5.842,-0.913 8.605,-1.504" style="fill:#36b0ce;"/><path id="Fill-237" d="M213.402,162.041c-0.851,-5.975 0.882,-9.324 2.995,-1.823c0.083,0.346 -1.943,1.202 -2.995,1.823" style="fill:#36b0ce;"/><path id="Fill-239" d="M205.953,172.388c-0.044,-4.839 6.516,-2.659 6.981,0.838c-2.046,2.031 -4.619,-0.369 -6.981,-0.838" style="fill:#0089ab;"/><path id="Fill-241" d="M192.145,75.547c-2.045,0.109 -3.82,-0.205 -5.434,-1.53c2.552,-3.247 7.068,-3.652 5.434,1.53" style="fill:#06bbe8;"/><path id="Fill-243" d="M243.09,173.363c-1.68,-1.707 -0.406,-4.128 1.333,-1.772c5.007,2.808 0.161,8.044 -1.333,1.772" style="fill:#06bbe8;"/><path id="Fill-245" d="M185.095,198.849c1.659,-2.604 4.611,-2.136 5.513,0.195c0.009,1.625 -1.38,1.957 -3.063,1.47c-2.243,0.679 -2.711,1.535 -2.45,-1.665" style="fill:#36b0ce;"/><path id="Fill-247" d="M170.91,43.704c3.412,-1.214 5.144,-0.948 4.695,2.579c-2.141,1.308 -5.56,0.667 -4.695,-2.579" style="fill:#36b0ce;"/><path id="Fill-249" d="M186.552,158.699c1.575,1.562 1.562,3.563 1.156,5.612c-2.881,-0.582 -4.555,-4.26 -1.156,-5.612" style="fill:#06bbe8;"/><path id="Fill-251" d="M178.439,50.88c-2.148,-1.811 -4.248,-1.697 -2.929,-4.494c0.796,0.195 1.887,1.002 1.711,-0.823c1.62,2.687 8.566,5.46 1.218,5.317" style="fill:#36b0ce;"/><path id="Fill-253" d="M213.483,80.469c-3.71,4.128 0.676,3.364 4.029,4.099c-5.635,1.267 -10.934,-2.305 -4.029,-4.099" style="fill:#06bbe8;"/><path id="Fill-255" d="M189.51,142.139c-1.235,2.252 -5.496,4.016 -4.579,0.011c1.381,-0.089 4.509,-2.077 4.579,-0.011" style="fill:#0089ab;"/><path id="Fill-257" d="M247.098,153.546c-1.833,-5.973 6.818,2.054 -0.228,3.159c0.382,-0.868 0.088,-2.151 0.228,-3.159" style="fill:#0c4568;"/><path id="Fill-259" d="M225.475,142.66c-3.666,0.035 -6.787,1.54 -10.375,1.006c0.732,-2.676 7.555,-0.646 10.375,-1.006" style="fill:#36b0ce;"/><path id="Fill-261" d="M271.081,154.779c0.363,2.618 -1.725,0.727 -2.456,1.332c-4.594,-1.468 -1.356,-5.42 2.456,-1.332" style="fill:#06bbe8;"/><path id="Fill-263" d="M255.526,152.33c-2.23,-2.757 -3.54,-3.723 -0.046,-5.035c2.072,1.034 0.869,2.751 0.046,5.035" style="fill:#0089ab;"/><path id="Fill-265" d="M214.319,68.653c-0.316,-1.952 -1.013,-3.273 1.795,-3.18c-0.409,1.392 0.308,3.869 -1.795,3.18" style="fill:#06bbe8;"/><path id="Fill-267" d="M240.474,229.701c-2.825,-0.15 -5.649,-0.3 -8.474,-0.45c1.304,-1.224 2.367,-2.638 4.367,-0.576c0.835,0.86 2.706,0.714 4.107,1.026" style="fill:#0c4568;"/><path id="Fill-269" d="M240.17,172.187c-1.617,0.406 -2.5,-3.509 -4.511,-0.767c-2.517,-2.428 -0.435,-2.621 1.72,-1.682c3.039,-1.494 3.135,0.19 2.791,2.449" style="fill:#06bbe8;"/><path id="Fill-271" d="M230.171,212.843c-0.253,0.619 -0.119,3.755 -0.86,2.8c-3.427,-0.63 -1.151,-5.086 0.86,-2.8" style="fill:#06bbe8;"/><path id="Fill-273" d="M212.942,172.613c-1.365,-1.448 -2.638,-2.957 -3.229,-4.889c3.766,0.906 3.766,0.906 3.229,4.889" style="fill:#36b0ce;"/><path id="Fill-275" d="M219.216,220.072c-1.033,-2.243 1.653,-1.407 3.163,-1.652c0.939,1.928 -1.866,1.315 -3.163,1.652" style="fill:#0089ab;"/><path id="Fill-277" d="M220.669,149.568c-1.65,-1.02 -0.925,-2.656 -0.784,-4.276c1.185,1.502 2.339,2.596 0.784,4.276" style="fill:#36b0ce;"/><path id="Fill-279" d="M188.141,63.374c1.36,0.615 2.675,1.243 0.748,2.751c-1.079,-0.692 -3.259,-1.084 -0.748,-2.751" style="fill:#36b0ce;"/><path id="Fill-281" d="M250.677,170.503c0.565,1.114 2.037,2.162 0.179,2.63c-0.033,-0.679 -1.515,-3.385 -0.179,-2.63" style="fill:#0089ab;"/><path id="Fill-283" d="M275.06,145.174c-1.794,-0.335 -3.587,-0.67 -5.381,-1.005l5.381,1.005Z" style="fill:#0089ab;"/><path id="Fill-285" d="M251.031,166.215c-0.092,1.409 -0.185,2.818 -0.275,4.226c0.092,-1.41 0.184,-2.818 0.275,-4.226" style="fill:#0089ab;"/><path id="Fill-287" d="M253.551,163.3c-0.668,1.226 -0.985,1.53 -1.853,0.272c0.617,-0.09 1.235,-0.182 1.853,-0.272" style="fill:#0089ab;"/><path id="Fill-289" d="M185.24,202.588c-0.051,0.961 -0.101,1.922 -0.151,2.881c0.051,-0.961 0.101,-1.92 0.151,-2.881" style="fill:#36b0ce;"/><path id="Fill-291" d="M240.76,234.467c-0.015,-0.831 -0.03,-1.661 -0.046,-2.489c0.016,0.831 0.031,1.66 0.046,2.489" style="fill:#0c4568;"/><path id="Fill-293" d="M190.804,10.67c-0.348,0.611 -0.696,1.223 -1.044,1.834c0.348,-0.611 0.697,-1.223 1.044,-1.834" style="fill:#36b0ce;"/><path id="Fill-295" d="M229.183,229.363c-0.624,0.099 -1.248,0.198 -1.872,0.296c0.625,-0.098 1.248,-0.197 1.872,-0.296" style="fill:#0c4568;"/><path id="Fill-297" d="M182.847,48.53c-0.573,-0.126 -1.146,-0.253 -1.718,-0.379c0.572,0.126 1.145,0.253 1.718,0.379" style="fill:#36b0ce;"/><path id="Fill-299" d="M213.177,80.233c-0.379,-0.034 -0.758,-0.068 -1.138,-0.101c0.55,-0.252 2.052,-0.989 1.138,0.101" style="fill:#36b0ce;"/><path id="Fill-301" d="M220.034,84.608c0.121,0.015 0.242,0.031 0.36,0.045c-0.162,0.159 -0.247,0.155 -0.36,-0.045" style="fill:#06bbe8;"/><path id="Fill-303" d="M245.846,150.568c-0.266,-0.27 -0.611,-0.445 -0.103,-0.643c0.211,0.174 0.257,0.411 0.103,0.643" style="fill:#0c4568;"/><path id="Fill-305" d="M230.53,229.78c-0,0.001 -0.002,0.003 -0.004,0.004c-0,0.001 0.004,-0.004 0.004,-0.004" style="fill:#0c4568;"/><path id="Fill-313" d="M80.099,234.944c28.402,8.539 48.699,33.553 53.649,60.734c-11.284,-5.984 -13.025,-28 -26.197,-35.658c-6.378,-5.103 -13.876,-9.719 -18.257,-16.621c-4.035,-0.188 -17.364,-5.489 -9.195,-8.455" style="fill:#151313;"/><path id="Fill-317" d="M375.92,280.48c-15.566,17.782 -30.212,35.639 -42.589,55.824c-21.671,12.657 34.89,-65.609 42.589,-55.824" style="fill:#151313;"/><path id="Fill-319" d="M395.995,341.167c0.539,-10.194 60.585,-36.163 51.218,-20.385c-18.517,3.376 -33.871,12.844 -51.218,20.385" style="fill:#151313;"/><path id="Fill-321" d="M219.81,50.693c-1.477,4.654 -4.324,-3.11 -5.135,-5.013c2.619,-1.818 2.14,-2.824 -0.796,-3.236c-2.218,-0.311 -4.765,-1.514 -5.422,2.199c0.413,2.719 -3.948,7.062 -3.828,2.658c3.452,-2.294 -0.009,-2.898 -0.944,-4.099c2.887,-2.438 -0.526,-4.575 -1.778,-7.585c-4.927,-5.127 4.184,0.502 5.981,-2.593c4.184,-1.42 13.251,-3.413 3.839,1.87c0.706,1.324 1.426,2.643 2.115,3.978c1.319,2.87 7.261,-4.521 5.015,6.608c-1.099,1.996 -0.053,3.602 0.953,5.213" style="fill:#36b0ce;"/><path id="Fill-323" d="M197.165,53.923c-3.78,-0.871 -4.727,-3.608 -6.124,-6.771c-1.904,-1.034 -5.391,-1.935 -0.091,-3.201c1.532,-2.408 -1.228,-6.04 -1.497,-8.77c1.275,-0.792 3.919,1.966 4.129,-1.592c-0.173,5.735 2.261,10.9 8.166,13.519c-2.946,4.937 -4.185,0.871 -7.595,1.712c0.554,2.682 2.106,1.787 4.03,1.305c2.24,2.854 3.403,3.093 -1.018,3.798" style="fill:#36b0ce;"/><path id="Fill-325" d="M193.582,33.589c-0.21,3.558 -2.854,0.8 -4.13,1.591c-3.526,3.108 -3.599,-3.875 -3.628,-6.109c0.204,-1.244 -1.272,-4.801 2.304,-1.821c0.087,-7.096 10.358,-10.477 5.633,-1.416c-1.497,3.113 -3.989,5.519 -0.179,7.755" style="fill:#151313;"/><path id="Fill-327" d="M194.986,65.023c-6.078,3.32 -0.4,-3.512 -3.814,-6.734c-0.734,-2.797 4.327,-3.012 6.064,-4.456c-1.888,15.816 6.053,-6.109 4.825,6.493c-3.162,0.974 -3.499,4.653 -7.075,4.697" style="fill:#36b0ce;"/><path id="Fill-329" d="M226.868,34.276c-1.729,0.34 -1.905,-0.597 -1.991,-2.046c-0.108,-1.812 1.122,-0.662 1.646,-0.989c1.982,-1.233 3.875,-2.612 5.795,-3.935c12.983,2.343 0.197,4.999 -5.45,6.97" style="fill:#36b0ce;"/><path id="Fill-331" d="M213.897,24.649c-0.536,2.914 2.523,2.97 2.857,5.154c-4.234,4.061 -15.903,-3.403 -7.607,-7.006c0.985,2.151 2.584,2.729 4.75,1.852" style="fill:#36b0ce;"/><path id="Fill-333" d="M213.897,24.649c-2.779,1.706 -6.812,-2.136 -2.899,-3.532c-5.561,-0.704 -4.592,-9.506 1.359,-3.587c0.573,4.175 3.982,4.038 1.54,7.119" style="fill:#151313;"/><path id="Fill-335" d="M258.162,39.964c-0.699,-1.323 -0.871,-3.09 0.655,-3.722c3.704,-1.527 1.855,-5.726 7.384,-3.164c-0.801,2.028 -4.148,1.886 -2.199,3.923c-0.712,0.822 -1.194,1.784 -1.671,2.753c-0.902,2.383 -8.365,4.271 -4.169,0.21" style="fill:#151313;"/><path id="Fill-337" d="M224.549,49.516c-2.997,2.242 -2.979,0.03 -2.908,-3.157c0.496,-0.813 -2.519,-3.632 1.438,-2.545c0.047,-0.908 1.053,-2.027 2.281,-2.079c0.114,3.256 5.341,3.004 4.669,6.799c-2.004,-0.668 -4.026,-1.42 -5.48,0.982" style="fill:#36b0ce;"/><path id="Fill-339" d="M235.306,72.07c2.133,1.189 8.804,1.527 6.437,3.801c-3.318,-1.698 -18.88,4.227 -6.437,-3.801" style="fill:#06bbe8;"/><path id="Fill-341" d="M213.961,36.988c1.055,1.157 1.56,-1.115 0.326,-1.419c-0.763,0.075 -0.662,0.874 -0.326,1.419m2.826,1.555c-2.479,3.468 -3.701,-1.488 -5.061,-3.651c3.329,-1.64 6.248,-5.167 8.345,0.058c-1.663,1.491 -5.87,0.679 -3.284,3.593" style="fill:#06bbe8;"/><path id="Fill-343" d="M236.568,28.155c-6.47,-0.669 -1.558,-1.201 -2.498,-5.684c-0.45,-1.154 0.415,-2.819 0.684,-4.253c3.092,0.253 3.633,7.185 1.814,9.937" style="fill:#06bbe8;"/><path id="Fill-345" d="M278.294,29.407c-1.509,-1.681 3.208,-2.178 4.423,-2.472c-1.126,2.335 -0.458,6.942 2.041,3.353c0.466,-0.737 0.482,-2.153 1.678,-0.825c1.055,6.232 -6.478,4.22 -8.142,-0.056" style="fill:#0089ab;"/><path id="Fill-347" d="M248.545,50.214c-2.144,-1.586 -9.648,-7.051 -4.657,-8.363c2.574,2.894 6.202,3.412 4.657,8.363" style="fill:#06bbe8;"/><path id="Fill-349" d="M255.561,42.508c-3.627,4.038 -1.563,-3.574 -9.072,-2.806c0.649,-2.308 4.338,-2.161 6.005,-1.823c2.932,0.917 -0.5,5.38 3.133,4.699l-0.066,-0.07" style="fill:#06bbe8;"/><path id="Fill-351" d="M224.549,49.516c0.845,-3.309 9.102,-0.674 5.86,1.027c-6.403,4.251 -5.055,5.397 -5.86,-1.027" style="fill:#0089ab;"/><path id="Fill-353" d="M260.978,32.525c1.314,3.402 -2.221,2.921 -3.551,5.284c-1.333,-1.345 0.908,-4.4 -2.317,-4.838c1.334,-0.056 4.25,-3.794 5.868,-0.446" style="fill:#36b0ce;"/><path id="Fill-355" d="M285.734,17.316c-1.184,-0.406 -6.502,1.053 -4.778,-1.243c-1.834,-5.742 4.927,-2.437 4.778,1.243" style="fill:#36b0ce;"/><path id="Fill-357" d="M231.133,36.938c-1.423,1.089 -2.693,3.351 -4.759,1.353c-1.303,-1.26 -1.846,2.764 -2.421,0.314c-0.624,-2.664 1.876,-2.402 3.584,-2.618c1.805,-1.977 2.171,1.49 3.596,0.951" style="fill:#36b0ce;"/><path id="Fill-359" d="M236.753,55.173c-2.334,3.182 -2.986,2.701 -3.847,-0.756c0.573,-2.992 2.2,-0.66 3.847,0.756" style="fill:#36b0ce;"/><path id="Fill-361" d="M214.139,24.592c-0.25,-1.003 2,-1.953 -0.127,-3.151c-4.75,-8.853 11.84,2.265 0.127,3.151" style="fill:#0089ab;"/><path id="Fill-363" d="M223.6,42.303c-0.904,3.644 -3.698,-1.474 -1.958,4.057c-5.748,-0.078 -1.281,-10.87 1.958,-4.057" style="fill:#151313;"/><path id="Fill-365" d="M231.133,36.938c-5.192,-2.137 -5.39,-2.5 0.652,-4.772c0.244,1.662 2.479,5.099 -0.652,4.772" style="fill:#151313;"/><path id="Fill-367" d="M260.403,17.06c-5.312,-1.943 -4.395,-1.968 -0.041,-4.092c3.489,-1.901 0.877,2.956 0.041,4.092" style="fill:#0089ab;"/><path id="Fill-369" d="M305.915,18.061c-0.94,2.104 -2.696,0.661 -3.877,-0.054c-1.908,-4.374 1.864,-1.797 3.877,0.054" style="fill:#36b0ce;"/><path id="Fill-371" d="M202.269,36.961c2.842,2.232 3.501,5.092 0.995,6.279c-1.79,-1.286 -2.61,-4.33 -0.995,-6.279" style="fill:#0089ab;"/><path id="Fill-373" d="M285.734,17.316c-0.495,-1.194 1.924,0.738 3.266,-0.637c0.368,4.597 -4.843,6.437 -3.266,0.637" style="fill:#06bbe8;"/><path id="Fill-375" d="M216.06,18.229c-1.009,-0.299 -3.704,0.643 -3.704,-0.699c2.514,-3.717 4.488,-4.2 3.704,0.699" style="fill:#06bbe8;"/><path id="Fill-377" d="M198.914,28.734c0.364,-3.451 3.407,-3.585 2.86,0.1c0.663,4.307 -2.581,1.427 -2.86,-0.1" style="fill:#36b0ce;"/><path id="Fill-379" d="M211.407,65.349c-3.215,-1.584 -0.544,-3.545 -0.076,-5.906c3.087,1.694 1.118,3.38 0.076,5.906" style="fill:#06bbe8;"/><path id="Fill-381" d="M190.266,21.141c-1.555,6.642 -3.719,2.987 -3.501,-1.974c1.075,0.855 2.119,1.71 3.501,1.974" style="fill:#36b0ce;"/><path id="Fill-383" d="M192.454,28.452c1.949,-3.779 6.933,-1.419 4.156,3.227c-1.325,-1.854 -1.327,-3.737 -4.156,-3.227" style="fill:#36b0ce;"/><path id="Fill-385" d="M260.348,41.639c1.874,-2.135 1.83,1.761 2.751,3.228c-3.187,-0.304 -6.354,0.095 -2.751,-3.228" style="fill:#06bbe8;"/><path id="Fill-387" d="M217.963,23.405c0.23,-3.682 6.956,1.52 3.354,2.518c-1.24,-0.561 -2.29,-1.649 -3.354,-2.518" style="fill:#36b0ce;"/><path id="Fill-389" d="M224.71,54.499c2.876,-1.445 2.429,1.218 1.265,2.969c-2.118,0.452 -1.955,-1.337 -1.265,-2.969" style="fill:#36b0ce;"/><path id="Fill-391" d="M218.857,45.479c3.565,0.262 3.653,3.4 0.951,5.218c-1.004,-1.616 -2.05,-3.221 -0.951,-5.218" style="fill:#0089ab;"/><path id="Fill-393" d="M201.07,39.454c1.159,2.204 2.581,4.734 -0.824,3.857c-0.69,-1.347 -1.128,-2.944 0.824,-3.857" style="fill:#36b0ce;"/><path id="Fill-395" d="M253.997,20.328c0.808,0.961 4.203,2.432 2.134,2.924c-1.251,-0.963 -4.436,-1.215 -2.134,-2.924" style="fill:#0089ab;"/><path id="Fill-397" d="M282.717,26.935c-3.395,1.08 -3.641,0.407 -2.871,-2.904c0.957,0.968 1.914,1.936 2.871,2.904" style="fill:#36b0ce;"/><path id="Fill-399" d="M214.59,80.205c1.439,-1.882 3.345,-2.391 5.591,-1.907c-1.126,2.797 -3.201,2.812 -5.591,1.907" style="fill:#36b0ce;"/><path id="Fill-401" d="M234.755,18.218c-0.336,-1.127 -3.001,-3.321 -1.394,-3.787c0.319,1.155 2.241,2.902 1.394,3.787" style="fill:#06bbe8;"/><path id="Fill-403" d="M197.113,29.979c-0.085,-1.416 1.776,-1.885 2.161,-0.499c-0.055,0.822 -1.531,0.299 -2.161,0.499" style="fill:#0089ab;"/><path id="Fill-405" d="M260.348,41.639c-1.08,1.137 -1.702,3.007 -2.78,0.89c0.927,-0.296 1.853,-0.593 2.78,-0.89" style="fill:#36b0ce;"/><path id="Fill-407" d="M213.378,30.784c0.597,0.111 2.678,-0.729 2.313,0.324c-0.682,-0.175 -2.034,0.328 -2.313,-0.324" style="fill:#06bbe8;"/><path id="Fill-409" d="M264.054,36.902c-0.852,-0.941 -1.395,-1.787 0.571,-1.866c-0.19,0.623 -0.381,1.245 -0.571,1.866" style="fill:#36b0ce;"/><path id="Fill-411" d="M216.081,18.15c0.258,-0.349 0.517,-0.698 0.775,-1.047c-0.258,0.348 -0.517,0.697 -0.775,1.047" style="fill:#0089ab;"/><path id="Fill-413" d="M209.283,21.054c0.571,0.021 1.143,0.042 1.715,0.064c-0.772,0.393 -1.405,1.12 -1.715,-0.064" style="fill:#36b0ce;"/><path id="Fill-415" d="M199.02,25.677c-1.334,0.081 -0.762,-1.039 0.063,-0.055l-0.063,0.055" style="fill:#0089ab;"/><path id="Fill-417" d="M199.977,26.052c-0.238,0.442 -0.474,0.884 -0.709,1.324c-0.086,-0.97 -0.674,-2.259 0.709,-1.324" style="fill:#0089ab;"/><path id="Fill-419" d="M258.162,39.964c-0.292,0.258 -0.585,0.515 -0.877,0.771c-0.533,-0.767 0.307,-0.608 0.877,-0.771" style="fill:#36b0ce;"/><path id="Fill-421" d="M258.326,44.422c-0.094,0.326 -0.188,0.652 -0.282,0.978c0.068,-0.322 0.309,-0.681 0.282,-0.978" style="fill:#06bbe8;"/><path id="Fill-423" d="M224.62,49.877c1.49,0.387 1.059,0.662 0.013,1.417c-0.004,-0.471 -0.008,-0.944 -0.013,-1.417" style="fill:#36b0ce;"/><path id="Fill-425" d="M201.963,60.4c0.173,0.21 0.346,0.419 0.52,0.629c-0.176,-0.169 -0.306,-0.778 -0.52,-0.629" style="fill:#36b0ce;"/><path id="Fill-427" d="M256.666,42.272c-0.323,0.133 -0.743,0.143 -1.106,0.235c0.3,0.137 0.75,-0.194 1.106,-0.235" style="fill:#36b0ce;"/><path id="Fill-429" d="M262.011,40.274l-0.036,-0.382c0.66,-0.307 0.707,0.286 0.036,0.382" style="fill:#36b0ce;"/><path id="Fill-431" d="M263.207,38.045c0.266,-0.348 0.531,-0.697 0.795,-1.044c-0.265,0.348 -0.53,0.696 -0.795,1.044" style="fill:#36b0ce;"/><path id="Fill-433" d="M216.5,30.146c-0.13,-0.275 0.003,-0.319 0.254,-0.343c0.023,0.204 -0.038,0.328 -0.254,0.343" style="fill:#06bbe8;"/><path id="Fill-435" d="M234.102,169.436c7.105,6.107 -3.593,2.165 -4.658,7.566c1.254,4.426 -2.909,-0.764 -3.026,3.049c-0.131,1.985 0.49,3.046 2.641,2.718c0.411,4.203 -2.916,1.48 -0.8,7.542c-4.861,3.682 -5.165,-1.938 -9.634,-0.225c-5.474,3.323 -5.155,-3.217 0.337,-1.552c4.846,-1.128 -5.963,-9.778 5.858,-16.346c3.265,-2.35 3.454,-2.087 1.182,-5.084c10.099,-2.127 -2.12,9.273 8.1,2.332" style="fill:#151313;"/><path id="Fill-437" d="M201.869,182.828c0.23,5.855 -0.372,11.197 1.5,16.952c-3.06,-2.099 -3.521,-5.751 -7.113,-6.697c-2.366,-3.147 -1.714,3.371 -3.35,-0.171c0.343,-4.634 -8,-7.437 0.179,-8.521c0.854,-0.057 2.102,3.734 2.576,-0.265c1.011,-1.803 4.333,-1.22 6.208,-1.298" style="fill:#151313;"/><path id="Fill-439" d="M211.282,199.682c1.543,7.357 -9.807,24.309 -7.129,13.576c0.725,-0.515 -2.764,-1.321 -0.651,-2.909c0.146,-0.11 0.099,-0.478 0.141,-0.725c-3.236,2.851 -2.655,-2.369 -4.628,-2.19c0.89,-1.844 1.78,-3.688 2.572,-5.326c-1.001,2.576 4.14,4.341 2.066,1.216c1.612,-3.103 2.682,0.617 4.26,-1.749c1.122,-0.631 2.246,-1.262 3.369,-1.893" style="fill:#151313;"/><path id="Fill-441" d="M312.04,169.636c-2.233,0.029 -5.754,1.462 -7.1,-0.947c-0.545,-2.044 2.971,-0.158 3.35,-2.214c1.421,-4.344 5.574,-6.189 9.832,-6.73c3.531,-1.432 2.864,2.874 5.784,3.354c2.768,1.798 -4.986,4.69 -6.357,4.269c-1.693,-4.299 -4.778,-0.79 -6.446,-0.511c-2.294,0.326 0.335,1.992 0.937,2.779" style="fill:#0089ab;"/><path id="Fill-443" d="M205.953,172.388c5.467,0.8 6.336,5.551 7.314,10.272c-4.361,-2.451 -7.749,5.974 -10.079,0.337c-0.05,-0.171 -0.861,-0.118 -1.319,-0.169c-5.85,-4.593 5.874,-3.125 3.302,-8.017c-0.294,-0.431 0.494,-1.596 0.782,-2.423" style="fill:#151313;"/><path id="Fill-445" d="M297.014,203.881c-3.065,2.911 -5.757,4.477 -4.226,-0.78c6.114,-1.988 1.96,-2.037 -0.43,-2.427c-0.811,-3.233 8.648,-1.369 3.758,-3.969c-0.233,-5.352 6.493,4.209 5.753,6.837c-1.714,1.134 -2.455,3.05 -4.855,0.339" style="fill:#0089ab;"/><path id="Fill-447" d="M260.556,167.72c2.654,1.604 2.908,2.851 6.209,-0.018c0.293,5.394 -6.966,10.668 -11.807,13.65c-0.97,-8.811 5.501,-3.044 5.598,-13.632" style="fill:#06bbe8;"/><path id="Fill-449" d="M238.712,189.334c-11.16,-4.018 4.831,-10.351 3.225,-1.884c-0.432,1.725 -1.047,3.142 -3.225,1.884" style="fill:#151313;"/><path id="Fill-451" d="M243.09,173.363c2.05,2.201 0.678,5.741 3.382,7.057c0.367,0.087 0.466,1.302 0.688,1.997c-3.094,0.095 -3.3,-3.082 -4.64,-5.152c-2.481,-3.056 -0.937,4.235 -3.969,1.661c-4.321,-3.794 1.511,-5.157 4.539,-5.563" style="fill:#36b0ce;"/><path id="Fill-453" d="M229.059,182.769c-3.65,1.093 -3.53,-5.838 -0.102,-3.917c0.988,0.208 0.724,0.001 0.488,-1.851c0.262,-2.626 3.802,-3.394 6.141,-3.483c0.478,5.34 -5.264,4.548 -6.527,9.251" style="fill:#36b0ce;"/><path id="Fill-455" d="M260.556,167.72c-0.565,1.721 -0.747,3.844 -1.693,5.178c3.966,-1.295 -1.851,4.471 -1.602,1.28c-4.787,-3.489 -2.009,-11.118 3.295,-6.458" style="fill:#0089ab;"/><path id="Fill-457" d="M208.538,192.97c-0.83,-8.25 0.75,-0.536 3.071,-6.74c0.403,4.788 6.845,12.077 -3.071,6.74" style="fill:#36b0ce;"/><path id="Fill-459" d="M271.472,218.259c-1.354,-2.972 -4.696,-3.367 -3.545,-5.311c1.274,-2.658 3.089,-1.03 4.755,-0.85c6.523,0.164 -0.632,2.231 0.079,4.988c0.055,0.186 -0.627,0.587 -1.289,1.173" style="fill:#0089ab;"/><path id="Fill-461" d="M205.399,201.524c-2.311,1.1 -0.204,3.262 -2.321,3.566c-0.998,-0.024 -1.679,-2.262 -1.492,-2.981c-0.79,1.637 -1.681,3.481 -2.572,5.325c0.169,-6.835 0.151,-13.36 6.385,-5.91" style="fill:#36b0ce;"/><path id="Fill-463" d="M234.182,207.1c-3.639,-4.053 2.266,-11.607 3.702,-6.421c-7.258,-0.712 4.34,6.059 -3.702,6.421" style="fill:#06bbe8;"/><path id="Fill-465" d="M222.274,197.453c6.076,1.413 -1.064,5.079 -2.012,0.744c-1.913,0.249 -3.969,0.979 -3.065,-2.37c1.182,-3.782 4.19,0.153 5.077,1.626" style="fill:#151313;"/><path id="Fill-467" d="M303.162,175.154c-3.605,3.255 -0.745,11.203 -5.503,5.254c0.59,-1.395 0.661,-2.246 -0.906,-2.789c0.995,-3.303 4.273,0.23 6.409,-2.465" style="fill:#0089ab;"/><path id="Fill-469" d="M196.709,219.195c-6.01,-1.072 3.321,-4.216 -1.209,-6.509c4.685,-4.117 3.321,4.194 1.209,6.509" style="fill:#36b0ce;"/><path id="Fill-471" d="M295.951,186.981c-1.924,2.08 -3.037,5.163 -6.227,5.317c-0.895,-3.571 2.814,-6.32 6.227,-5.317" style="fill:#0089ab;"/><path id="Fill-473" d="M203.541,178.479c-3.532,2.161 -4.889,0.82 -8.979,-1.113c3.614,0.002 4.927,-0.789 2.834,-3.234c6.589,-4.188 -0.358,4.816 6.145,4.347" style="fill:#36b0ce;"/><path id="Fill-475" d="M208.538,192.97c4.46,1.935 -0.108,4.672 -2.744,2.127c-4.143,-0.515 -0.939,-6.971 2.744,-2.127" style="fill:#151313;"/><path id="Fill-477" d="M238.371,199.763c-6.49,-1.352 -1.233,-2.884 -7.902,-0.975c1.181,-4.062 9.705,-4.1 7.902,0.975" style="fill:#0089ab;"/><path id="Fill-479" d="M216.735,213.013c-8.335,3.377 -0.47,-8.436 1.025,-1.079c1.077,1.657 0.468,1.756 -1.025,1.079" style="fill:#06bbe8;"/><path id="Fill-481" d="M266.842,175.306c-0.226,2.931 -6.53,10.631 -4.426,3.571c1.242,-1.291 1.729,-4.365 4.426,-3.571" style="fill:#06bbe8;"/><path id="Fill-483" d="M232.201,196.15c-1.99,3.637 -6.49,6.319 -10.526,4.591c3.457,-1.646 6.999,-3.104 10.526,-4.591" style="fill:#36b0ce;"/><path id="Fill-485" d="M303.954,194.526c-3.23,-3.164 -0.915,-3.791 1.545,-5.706c1.995,0.867 -0.882,3.311 -1.545,5.706" style="fill:#06bbe8;"/><path id="Fill-487" d="M208.502,196.873c0.419,-0.546 0.838,-1.092 1.259,-1.638c-0.649,3.142 2.418,2.304 4.23,3.152c-1.897,0.129 -5.615,4.229 -6.317,2.338c0.028,-0.658 -4.857,-2.291 0.373,-2.018c0.12,0.006 0.302,-1.196 0.455,-1.834" style="fill:#36b0ce;"/><path id="Fill-489" d="M278.696,162.939c4.287,1.438 1.545,2.194 -0.952,3.688c-1.852,-1.177 -1.073,-2.437 0.952,-3.688" style="fill:#0089ab;"/><path id="Fill-491" d="M261.541,205.681c1.887,1.509 -4.313,6.478 -5.185,1.855c0.395,-2.224 4.971,-0.06 5.185,-1.855" style="fill:#0089ab;"/><path id="Fill-493" d="M234.182,207.1c2.725,-0.835 3.43,-0.899 2.433,2.072c-2.27,4.875 -7.101,1.224 -2.433,-2.072" style="fill:#151313;"/><path id="Fill-495" d="M215.273,191.348c3.007,-0.929 6.924,-3.771 8.106,0.797c-2.235,-0.543 -7.337,1.042 -8.106,-0.797" style="fill:#0089ab;"/><path id="Fill-497" d="M236.048,196.057c-5.15,0.837 0.457,-4.685 -2.925,-6.525c4.031,-0.978 2.722,4.211 2.925,6.525" style="fill:#36b0ce;"/><path id="Fill-499" d="M266.764,167.702c-2.963,2.339 -3.554,2.348 -5.705,0.094c0.802,-3.724 5.031,-2.402 5.705,-0.094" style="fill:#0089ab;"/><path id="Fill-501" d="M193.084,184.392c-1.731,1.169 -7.929,0.899 -4.216,-1.855c1.27,-4.647 1.933,-0.411 4.216,1.855" style="fill:#36b0ce;"/><path id="Fill-503" d="M193.697,194.049c0.851,-0.328 0.687,-3.342 2.56,-0.967c-0.294,1.678 -3.307,3.314 -0.084,5.098c-1.244,3.664 -3.914,-1.755 -2.476,-4.131" style="fill:#36b0ce;"/><path id="Fill-505" d="M280.208,150.549c7.357,-1.124 0.144,2.477 -3.079,1.131c-5.621,-2.362 0.303,-2.735 3.079,-1.131" style="fill:#36b0ce;"/><path id="Fill-507" d="M308.401,177.025c-1.415,-1.167 -2.63,-2.17 -3.846,-3.173c1.888,-2.032 6.735,1.049 3.846,3.173" style="fill:#0089ab;"/><path id="Fill-509" d="M190.071,202.865c1.4,1.147 1.642,4.108 3.753,5.214c-3.207,2.588 -5.172,-3.124 -3.753,-5.214" style="fill:#06bbe8;"/><path id="Fill-511" d="M228.258,190.311c0.45,-1.805 -2.671,-4.309 1.072,-5.468c3.573,1.644 0.011,3.337 -1.072,5.468" style="fill:#36b0ce;"/><path id="Fill-513" d="M238.712,189.334c2.178,1.258 2.793,-0.159 3.225,-1.883c0.911,1.849 1.043,7.852 -1.286,4.379c-2.411,0.484 -1.954,-1.165 -1.939,-2.496" style="fill:#0089ab;"/><path id="Fill-515" d="M324.977,169.761c0.813,1.727 3.834,3.638 1.362,4.488c-1.948,-1.662 -4.156,-1.476 -1.362,-4.488" style="fill:#0089ab;"/><path id="Fill-517" d="M279.519,189.464c-2.199,2.453 -2.69,1.236 -4.506,-0.279c1.858,-0.528 2.82,-1.646 4.506,0.279" style="fill:#0089ab;"/><path id="Fill-519" d="M203.837,216.738c2.336,-1.798 2.69,-0.352 3.081,2.015c-1.408,1.904 -2.231,-0.776 -3.081,-2.015" style="fill:#36b0ce;"/><path id="Fill-521" d="M221.675,200.741c9.373,0.984 -4.74,5.453 -0.577,-0.085c0.192,0.34 0.343,0.138 0.577,0.085" style="fill:#151313;"/><path id="Fill-523" d="M222.274,197.453c-0.735,-1.257 -2.122,-2.265 0.035,-2.569c-0.012,0.856 -0.024,1.713 -0.035,2.569" style="fill:#0089ab;"/><path id="Fill-525" d="M332.572,161.131c0.894,0.524 1.544,1.027 0.698,1.717c-1.082,-0.217 -1.331,-0.576 -0.698,-1.717" style="fill:#0089ab;"/><path id="Fill-527" d="M312.004,169.667c0.991,0.537 1.357,1.431 1.638,2.463c-0.881,-0.621 -1.477,-1.527 -1.638,-2.463" style="fill:#0089ab;"/><path id="Fill-529" d="M241.434,193.211c-0.485,0.339 -1.017,1.879 -1.515,1.124c0.507,-0.344 1.014,-0.88 1.515,-1.124" style="fill:#0089ab;"/><path id="Fill-531" d="M200.323,181.076c0.511,0.583 1.022,1.165 1.534,1.747c-1.544,0.089 -1.929,-0.203 -1.534,-1.747" style="fill:#36b0ce;"/><path id="Fill-533" d="M266.723,175.203c0.146,-0.204 0.291,-0.408 0.437,-0.611c-0.146,0.181 -0.214,0.863 -0.437,0.611" style="fill:#06bbe8;"/><path id="Fill-535" d="M221.635,200.717c-0.377,0.426 -0.586,-0.168 -0.722,-0.485c0.446,-0.601 0.474,0.107 0.722,0.485" style="fill:#36b0ce;"/><path id="Fill-537" d="M208.502,196.873c-0.153,0.638 -0.335,1.84 -0.455,1.834c-5.23,-0.273 -0.345,1.36 -0.372,2.017c-2.39,6.151 -7.853,-8.916 -5.465,-11.996c6.025,-1.152 -1.323,6.39 3.583,6.369c0.962,0.121 1.809,1.157 2.709,1.776" style="fill:#0089ab;"/><path id="Fill-539" d="M213.28,179.918c-2.421,-1.573 -3.665,-5.309 -0.346,-6.692c2.419,2.261 3.013,4.316 0.346,6.692" style="fill:#36b0ce;"/><path id="Fill-541" d="M219.607,185.708c3.677,2.844 -1.772,3.194 -3.885,2.57c0.862,-1.517 1.675,-3.098 3.885,-2.57" style="fill:#36b0ce;"/><path id="Fill-543" d="M213.28,179.918c1.331,-2.022 1.488,0.785 2.223,1.916c-2.386,1.239 -2.381,0.426 -2.223,-1.916" style="fill:#0c4568;"/><path id="Fill-545" d="M232.821,169.853c-0.871,0.977 -1.724,1.898 -3.061,2.186c-0.754,-2.311 1.197,-3.871 3.061,-2.186" style="fill:#36b0ce;"/><path id="Fill-547" d="M192.145,75.547c-0.392,-3.054 4.751,-5.208 6.659,-2.6c-1.322,1.878 -4.658,3.943 -6.659,2.6" style="fill:#36b0ce;"/><path id="Fill-549" d="M191.639,66.718c0.609,0.814 1.218,1.628 1.828,2.443c-1.811,0.084 -2.134,-0.944 -1.828,-2.443" style="fill:#36b0ce;"/><path id="Fill-551" d="M193.428,76.274c0.203,-0.213 0.451,-0.335 0.74,-0.363c-0.089,0.782 -0.132,1.033 -0.74,0.363" style="fill:#06bbe8;"/><path id="Fill-553" d="M247.098,153.546c-0.281,1.05 0.64,3.551 -1.025,2.957c0.342,-0.986 0.684,-1.971 1.025,-2.957" style="fill:#151313;"/><path id="Fill-555" d="M190.562,152.744c0.003,1.864 0.006,3.728 0.01,5.593c-1.082,-2.494 -5.368,-6.782 -0.01,-5.593" style="fill:#0089ab;"/><path id="Fill-557" d="M187.566,153.045c-0.376,-0.339 -1.897,-0.644 -1.17,-1.122c0.532,0.338 1.905,0.397 1.17,1.122" style="fill:#0089ab;"/><path id="Fill-559" d="M198.182,50.125c-1.924,0.481 -3.475,1.379 -4.029,-1.303c1.684,-1.285 2.718,0.55 4.029,1.303" style="fill:#0089ab;"/><path id="Fill-561" d="M259.316,172.504c-0.151,0.132 -0.302,0.263 -0.453,0.394c-0.04,-0.272 0.23,-0.469 0.453,-0.394" style="fill:#06bbe8;"/></g></svg>