<svg xmlns="http://www.w3.org/2000/svg" width="2000" height="600" fill="#7f7f7f" fill-rule="evenodd" xmlns:v="https://vecta.io/nano"><path d="M1768.9 406v-55h10.2v7.4h.5c.333-2.533 1.333-4.567 3-6.1s3.733-2.3 6.2-2.3c2.267 0 4.233.767 5.9 2.3s2.8 3.567 3.4 6.1h.3c.4-2.533 1.45-4.567 3.15-6.1s3.817-2.3 6.35-2.3c3.267 0 5.95 1.317 8.05 3.95s3.15 6.017 3.15 10.15V406h-10.8v-41c0-3.867-1.6-5.8-4.8-5.8s-4.8 1.933-4.8 5.8v41h-9.4v-41c0-3.867-1.6-5.8-4.8-5.8-3.133 0-4.7 1.933-4.7 5.8v41zm-34.9.9c-7.067 0-12.667-1.95-16.8-5.85s-6.2-9.15-6.2-15.75v-13.6c0-6.6 2.067-11.85 6.2-15.75s9.733-5.85 16.8-5.85 12.667 1.95 16.8 5.85 6.2 9.117 6.2 15.65v13.7c0 6.6-2.067 11.85-6.2 15.75s-9.733 5.85-16.8 5.85zm0-10.9c3.333 0 5.917-.917 7.75-2.75s2.75-4.483 2.75-7.95v-13.6c0-3.467-.917-6.117-2.75-7.95s-4.417-2.75-7.75-2.75-5.917.917-7.75 2.75-2.75 4.483-2.75 7.95v13.6c0 3.467.917 6.117 2.75 7.95s4.417 2.75 7.75 2.75zm-59.7 11c-4.667 0-8.75-.883-12.25-2.65s-6.217-4.267-8.15-7.5-2.9-7.05-2.9-11.45v-13.8c0-4.4.967-8.217 2.9-11.45s4.65-5.733 8.15-7.5 7.583-2.65 12.25-2.65c6.933 0 12.467 1.783 16.6 5.35s6.3 8.417 6.5 14.55h-12.2c-.2-2.867-1.283-5.083-3.25-6.65s-4.517-2.35-7.65-2.35c-3.333 0-5.967.917-7.9 2.75s-2.9 4.45-2.9 7.85v13.9c0 3.4.967 6.033 2.9 7.9s4.567 2.8 7.9 2.8c3.2 0 5.767-.783 7.7-2.35s3-3.783 3.2-6.65h12.2c-.2 6.133-2.367 10.983-6.5 14.55s-9.667 5.35-16.6 5.35zm-60.3 0c-2.867 0-5.15-.833-6.85-2.5s-2.55-3.933-2.55-6.8.85-5.15 2.55-6.85 3.983-2.55 6.85-2.55 5.15.85 6.85 2.55 2.55 3.983 2.55 6.85-.85 5.133-2.55 6.8-3.983 2.5-6.85 2.5zm-59.9 0c-4.667 0-8.733-.9-12.2-2.7s-6.15-4.317-8.05-7.55-2.85-7.017-2.85-11.35v-13.8c0-4.333.95-8.117 2.85-11.35s4.583-5.75 8.05-7.55 7.533-2.7 12.2-2.7c4.6 0 8.617.9 12.05 2.7s6.1 4.317 8 7.55 2.85 7.017 2.85 11.35v9.9h-33.9v3.9c0 7.8 3.7 11.7 11.1 11.7 5.733 0 9.1-1.9 10.1-5.7h12.3c-.933 4.733-3.45 8.517-7.55 11.35s-9.083 4.25-14.95 4.25zm-11-35.4v2.1l21.8-.1v-2.1c0-3.8-.9-6.717-2.7-8.75s-4.5-3.05-8.1-3.05c-3.667 0-6.417 1.033-8.25 3.1s-2.75 5-2.75 8.8zm-40.2 34.4c-5.467 0-9.85-1.633-13.15-4.9s-4.95-7.567-4.95-12.9v-43.9h-18.1V333h30.6v54.9c0 2.067.583 3.717 1.75 4.95s2.75 1.85 4.75 1.85h16.1V406zm-91.2 18v-73h12.2v9.9h.2c1-3.467 2.783-6.15 5.35-8.05s5.75-2.85 9.55-2.85c5.4 0 9.75 1.9 13.05 5.7s4.95 8.9 4.95 15.3v14.9c0 6.467-1.65 11.6-4.95 15.4s-7.65 5.7-13.05 5.7c-3.733 0-6.9-.95-9.5-2.85s-4.4-4.583-5.4-8.05h-.2l.3 12.5V424zm22.7-27.8c3.2 0 5.683-.933 7.45-2.8s2.65-4.533 2.65-8v-13.8c0-3.467-.883-6.133-2.65-8s-4.25-2.8-7.45-2.8-5.7.967-7.5 2.9-2.7 4.667-2.7 8.2v13.2c0 3.533.9 6.267 2.7 8.2s4.3 2.9 7.5 2.9zm-85.5 9.8v-55h10.2v7.4h.5c.333-2.533 1.333-4.567 3-6.1s3.733-2.3 6.2-2.3c2.267 0 4.233.767 5.9 2.3s2.8 3.567 3.4 6.1h.3c.4-2.533 1.45-4.567 3.15-6.1s3.817-2.3 6.35-2.3c3.267 0 5.95 1.317 8.05 3.95s3.15 6.017 3.15 10.15V406h-10.8v-41c0-3.867-1.6-5.8-4.8-5.8s-4.8 1.933-4.8 5.8v41h-9.4v-41c0-3.867-1.6-5.8-4.8-5.8-3.133 0-4.7 1.933-4.7 5.8v41zm-41 1c-5.667 0-10.133-1.483-13.4-4.45s-4.9-7.017-4.9-12.15c0-5.4 1.867-9.583 5.6-12.55s8.933-4.45 15.6-4.45h13.2v-4.6c0-2.667-.867-4.733-2.6-6.2s-4.167-2.2-7.3-2.2c-2.867 0-5.217.6-7.05 1.8s-2.85 2.8-3.05 4.8h-11.9c.267-5.133 2.45-9.25 6.55-12.35s9.383-4.65 15.85-4.65c6.8 0 12.167 1.667 16.1 5s5.9 7.9 5.9 13.7V406h-12.1v-9.3h-.2c-.733 3.2-2.533 5.717-5.4 7.55s-6.5 2.75-10.9 2.75zm4.1-9.3c3.533 0 6.417-.883 8.65-2.65s3.35-4.117 3.35-7.05v-6.6h-12.9c-2.8 0-5 .717-6.6 2.15s-2.4 3.383-2.4 5.85c0 2.6.883 4.633 2.65 6.1s4.183 2.2 7.25 2.2zm-84.4 8.3l19.2-28.4-17.9-26.6h14.1l8.5 13.5c.533.8 1.033 1.7 1.5 2.7s.8 1.8 1 2.4l1.1-2.4c.467-1 .933-1.9 1.4-2.7l8.6-13.5h14.1l-17.9 26.6 19.1 28.4h-14.2l-9.5-15.1c-.533-.8-1.05-1.717-1.55-2.75l-1.15-2.45-1.1 2.45c-.467 1.033-.967 1.95-1.5 2.75l-9.7 15.1zm-33.5 1c-4.667 0-8.733-.9-12.2-2.7s-6.15-4.317-8.05-7.55-2.85-7.017-2.85-11.35v-13.8c0-4.333.95-8.117 2.85-11.35s4.583-5.75 8.05-7.55 7.533-2.7 12.2-2.7c4.6 0 8.617.9 12.05 2.7s6.1 4.317 8 7.55 2.85 7.017 2.85 11.35v9.9h-33.9v3.9c0 7.8 3.7 11.7 11.1 11.7 5.733 0 9.1-1.9 10.1-5.7h12.3c-.933 4.733-3.45 8.517-7.55 11.35s-9.083 4.25-14.95 4.25zm-11-35.4v2.1l21.8-.1v-2.1c0-3.8-.9-6.717-2.7-8.75s-4.5-3.05-8.1-3.05c-3.667 0-6.417 1.033-8.25 3.1s-2.75 5-2.75 8.8zm-46.6 52.3c-6 0-11.183-1.167-15.55-3.5s-7.733-5.667-10.1-10-3.55-9.5-3.55-15.5V361c0-6 1.133-11.167 3.4-15.5s5.5-7.667 9.7-10 9.233-3.5 15.1-3.5c5.333 0 9.917 1.017 13.75 3.05s6.783 4.867 8.85 8.5 3.1 7.85 3.1 12.65v43.3h-10.1v-7.1h-.3c-.267 2.467-1.383 4.433-3.35 5.9s-4.45 2.2-7.45 2.2c-4.2 0-7.4-1.4-9.6-4.2s-3.3-6.767-3.3-11.9V373c0-5.133 1.1-9.1 3.3-11.9s5.4-4.2 9.6-4.2c3.067 0 5.567.733 7.5 2.2s3.033 3.433 3.3 5.9h.3l-.3-7.8v-1c0-4.867-1.333-8.617-4-11.25s-6.567-3.95-11.7-3.95c-5.467 0-9.733 1.75-12.8 5.25s-4.6 8.417-4.6 14.75v33.9c0 6.2 1.65 11 4.95 14.4s7.917 5.1 13.85 5.1h7v9.5zm7.5-31c2.4 0 4.133-.7 5.2-2.1s1.6-3.667 1.6-6.8v-11c0-5.667-2.267-8.5-6.8-8.5s-6.8 2.833-6.8 8.5v11.4c0 3 .567 5.167 1.7 6.5s2.833 2 5.1 2zM571.7 406v-73h12.5v18l-.3 10.5h.2c.6-3.6 2.167-6.417 4.7-8.45s5.833-3.05 9.9-3.05c5.4 0 9.717 1.8 12.95 5.4s4.85 8.433 4.85 14.5V406H604v-34.8c0-3.333-.883-5.9-2.65-7.7s-4.15-2.7-7.15-2.7c-3.133 0-5.583.933-7.35 2.8s-2.65 4.533-2.65 8V406zm-43.8 1c-5.667 0-10.133-1.483-13.4-4.45s-4.9-7.017-4.9-12.15c0-5.4 1.867-9.583 5.6-12.55s8.933-4.45 15.6-4.45H544v-4.6c0-2.667-.867-4.733-2.6-6.2s-4.167-2.2-7.3-2.2c-2.867 0-5.217.6-7.05 1.8S524.2 365 524 367h-11.9c.267-5.133 2.45-9.25 6.55-12.35s9.383-4.65 15.85-4.65c6.8 0 12.167 1.667 16.1 5s5.9 7.9 5.9 13.7V406h-12.1v-9.3h-.2c-.733 3.2-2.533 5.717-5.4 7.55s-6.5 2.75-10.9 2.75zm4.1-9.3c3.533 0 6.417-.883 8.65-2.65S544 390.933 544 388v-6.6h-12.9c-2.8 0-5 .717-6.6 2.15s-2.4 3.383-2.4 5.85c0 2.6.883 4.633 2.65 6.1s4.183 2.2 7.25 2.2zm-80.4 8.3v-11.3h18.8v-32.4h-16.8V351h29.3v43.7h16.9V406zm24.2-64.2c-2.533 0-4.533-.65-6-1.95s-2.2-3.05-2.2-5.25.733-3.95 2.2-5.25 3.467-1.95 6-1.95 4.533.65 6 1.95 2.2 3.05 2.2 5.25-.733 3.95-2.2 5.25-3.467 1.95-6 1.95zM388.9 406v-55h10.2v7.4h.5c.333-2.533 1.333-4.567 3-6.1s3.733-2.3 6.2-2.3c2.267 0 4.233.767 5.9 2.3s2.8 3.567 3.4 6.1h.3c.4-2.533 1.45-4.567 3.15-6.1s3.817-2.3 6.35-2.3c3.267 0 5.95 1.317 8.05 3.95s3.15 6.017 3.15 10.15V406h-10.8v-41c0-3.867-1.6-5.8-4.8-5.8s-4.8 1.933-4.8 5.8v41h-9.4v-41c0-3.867-1.6-5.8-4.8-5.8-3.133 0-4.7 1.933-4.7 5.8v41zm-34.8 1c-4.667 0-8.733-.9-12.2-2.7s-6.15-4.317-8.05-7.55-2.85-7.017-2.85-11.35v-13.8c0-4.333.95-8.117 2.85-11.35s4.583-5.75 8.05-7.55 7.533-2.7 12.2-2.7c4.6 0 8.617.9 12.05 2.7s6.1 4.317 8 7.55 2.85 7.017 2.85 11.35v9.9h-33.9v3.9c0 7.8 3.7 11.7 11.1 11.7 5.733 0 9.1-1.9 10.1-5.7h12.3c-.933 4.733-3.45 8.517-7.55 11.35S359.967 407 354.1 407zm-11-35.4v2.1l21.8-.1v-2.1c0-3.8-.9-6.717-2.7-8.75s-4.5-3.05-8.1-3.05c-3.667 0-6.417 1.033-8.25 3.1s-2.75 5-2.75 8.8zM273.3 406v-55h12.2v10.5h.3c.533-3.6 2.133-6.417 4.8-8.45s6.067-3.05 10.2-3.05c5.667 0 10.2 1.85 13.6 5.55s5.1 8.75 5.1 15.15v4.5h-13.1v-3.6c0-3.4-.883-6.05-2.65-7.95s-4.317-2.85-7.65-2.85c-6.867 0-10.3 3.833-10.3 11.5V406zm-39.2 1c-4.667 0-8.733-.9-12.2-2.7s-6.15-4.317-8.05-7.55-2.85-7.017-2.85-11.35v-13.8c0-4.333.95-8.117 2.85-11.35s4.583-5.75 8.05-7.55 7.533-2.7 12.2-2.7c4.6 0 8.617.9 12.05 2.7s6.1 4.317 8 7.55 2.85 7.017 2.85 11.35v9.9h-33.9v3.9c0 7.8 3.7 11.7 11.1 11.7 5.733 0 9.1-1.9 10.1-5.7h12.3c-.933 4.733-3.45 8.517-7.55 11.35S239.967 407 234.1 407zm-11-35.4v2.1l21.8-.1v-2.1c0-3.8-.9-6.717-2.7-8.75s-4.5-3.05-8.1-3.05c-3.667 0-6.417 1.033-8.25 3.1s-2.75 5-2.75 8.8zM150.4 424v-11.3h16.2c3.2 0 5.733-.95 7.6-2.85s2.8-4.483 2.8-7.75v-39.8h-24.6V351h37.1v51.4c0 6.667-2 11.933-6 15.8s-9.4 5.8-16.2 5.8zm32.7-82.2c-2.533 0-4.533-.65-6-1.95s-2.2-3.05-2.2-5.25.733-3.95 2.2-5.25 3.467-1.95 6-1.95 4.533.65 6 1.95 2.2 3.05 2.2 5.25-.733 3.95-2.2 5.25-3.467 1.95-6 1.95z"/><path d="M769.584 546.061c-6.144 0-10.704-1.808-13.68-5.424s-3.983-8.433-3.023-14.449l2.303-14.975c.96-6.016 3.52-10.833 7.68-14.449s9.313-5.424 15.457-5.424 10.704 1.808 13.68 5.424 3.983 8.433 3.023 14.449l-1.439 9.311h-32.352l-.865 5.664c-.704 4.288-.191 7.6 1.537 9.936s4.64 3.506 8.736 3.506c6.848 0 11.296-2.625 13.344-7.873h7.584c-1.344 4.416-3.984 7.905-7.92 10.465s-8.624 3.84-14.064 3.84zm55.297 0c-5.248 0-9.265-1.28-12.049-3.84s-4.081-5.92-3.889-10.08h7.584c.128 2.112 1.009 3.823 2.641 5.135s3.919 1.969 6.863 1.969h4.705c3.392 0 6.095-.769 8.111-2.305s3.216-3.551 3.6-6.047c.768-4.928-1.726-7.872-7.486-8.832l-7.777-1.248c-4.864-.704-8.383-2.241-10.559-4.609s-2.913-5.695-2.209-9.982c.704-4.608 2.784-8.24 6.24-10.896s8.064-3.984 13.824-3.984h3.744c4.992 0 8.815 1.216 11.471 3.648s3.984 5.632 3.984 9.6h-7.584a6.15 6.15 0 0 0-2.496-4.656c-1.536-1.184-3.68-1.775-6.432-1.775h-3.744c-3.392 0-6.032.703-7.92 2.111s-3.024 3.393-3.408 5.953c-.384 2.304 0 4.08 1.152 5.328s3.169 2.095 6.049 2.543l7.68 1.248c5.12.832 8.767 2.464 10.943 4.896s2.945 5.887 2.305 10.367c-.832 4.736-3.009 8.497-6.529 11.281s-8.223 4.176-14.111 4.176h-4.703zm117.504 0c-6.272 0-10.834-1.793-13.682-5.377s-3.792-8.416-2.832-14.496l8.16-51.168h7.584l-8.062 51.168c-.704 4.032-.225 7.217 1.439 9.553s4.511 3.504 8.543 3.504c3.968 0 7.153-1.168 9.553-3.504s3.921-5.521 4.561-9.553l8.16-51.168h7.584l-8.064 51.168c-1.024 6.144-3.52 10.993-7.488 14.545s-9.119 5.328-15.455 5.328zm55.295 0c-5.248 0-9.263-1.28-12.047-3.84s-4.081-5.92-3.889-10.08h7.584c.128 2.112 1.009 3.823 2.641 5.135s3.919 1.969 6.863 1.969h4.703c3.392 0 6.097-.769 8.113-2.305s3.216-3.551 3.6-6.047c.768-4.928-1.728-7.872-7.488-8.832l-7.775-1.248c-4.864-.704-8.385-2.241-10.561-4.609s-2.911-5.695-2.207-9.982c.704-4.608 2.782-8.24 6.238-10.896s8.064-3.984 13.824-3.984h3.744c4.992 0 8.817 1.216 11.473 3.648s3.984 5.632 3.984 9.6h-7.584a6.15 6.15 0 0 0-2.496-4.656c-1.536-1.184-3.68-1.775-6.432-1.775h-3.744c-3.392 0-6.032.703-7.92 2.111s-3.024 3.393-3.408 5.953c-.384 2.304 0 4.08 1.152 5.328s3.167 2.095 6.047 2.543l7.68 1.248c5.12.832 8.769 2.464 10.945 4.896s2.943 5.887 2.303 10.367c-.832 4.736-3.007 8.497-6.527 11.281s-8.223 4.176-14.111 4.176h-4.705zm59.904 0c-6.144 0-10.704-1.808-13.68-5.424s-3.983-8.433-3.023-14.449l2.303-14.975c.96-6.016 3.52-10.833 7.68-14.449s9.313-5.424 15.457-5.424 10.704 1.808 13.68 5.424 3.983 8.433 3.023 14.449l-1.439 9.311h-32.352l-.865 5.664c-.704 4.288-.191 7.6 1.537 9.936s4.64 3.506 8.736 3.506c6.848 0 11.296-2.625 13.344-7.873h7.584c-1.344 4.416-3.984 7.905-7.92 10.465s-8.624 3.84-14.064 3.84zm114.24 0c-6.208 0-10.896-1.825-14.064-5.473s-4.272-8.449-3.312-14.4h7.584c-.64 4.096.017 7.296 1.969 9.6s4.945 3.457 8.977 3.457c4.096 0 7.471-1.185 10.127-3.553s4.305-5.536 4.945-9.504l.863-5.375c.64-4.096 0-7.281-1.92-9.553s-4.927-3.408-9.023-3.408h-6.912l1.055-6.623 20.064-19.297h-27.936l1.057-6.912h36.574l-1.15 7.104-19.777 19.01c5.696.32 9.937 2.24 12.721 5.76s3.728 8.16 2.832 13.92l-.863 5.375c-.896 6.08-3.504 10.912-7.824 14.496s-9.648 5.377-15.984 5.377zm-453.889-.961c-4.416 0-7.647-1.168-9.695-3.504s-2.72-5.648-2.016-9.936l5.088-32.447h-14.977l1.057-6.912h14.975l2.305-14.4h7.68l-2.303 14.4h21.215l-1.057 6.912h-21.311l-5.088 32.447c-.704 4.352 1.024 6.527 5.184 6.527h14.016l-1.057 6.912h-14.016zm172.801 0c-4.416 0-7.649-1.168-9.697-3.504s-2.72-5.648-2.016-9.936l5.088-32.447h-14.975l1.055-6.912h14.977l2.305-14.4h7.68l-2.305 14.4h21.217l-1.057 6.912h-21.312l-5.088 32.447c-.704 4.352 1.026 6.527 5.186 6.527h14.016l-1.057 6.912h-14.016zm206.879 0l8.354-52.799h7.488l-1.537 9.311h.096c2.816-6.848 8.064-10.271 15.744-10.271 5.568 0 9.712 1.744 12.432 5.232s3.632 8.177 2.736 14.064l-.576 3.168h-7.775l.48-2.592c.704-4.288.176-7.602-1.584-9.937s-4.56-3.504-8.4-3.504-7.04 1.185-9.6 3.553-4.193 5.665-4.896 9.889l-5.279 33.887h-7.682zm-445.344-9.215l3.072-19.105h-18.623l1.15-6.814H656.4l2.975-19.105h7.488l-2.975 19.105h18.623l-1.152 6.814h-18.527l-3.072 19.105h-7.488zm109.92-21.312h24.865l.479-3.359c.704-4.288.193-7.602-1.535-9.937s-4.609-3.504-8.641-3.504c-4.096 0-7.391 1.168-9.887 3.504s-4.097 5.65-4.801 9.938l-.48 3.359zm288 0h24.865l.479-3.359c.704-4.288.193-7.602-1.535-9.937s-4.609-3.504-8.641-3.504c-4.096 0-7.391 1.168-9.887 3.504s-4.097 5.65-4.801 9.938l-.48 3.359zm-8.062-92.893l1.15-6.912h16.033c5.824 0 9.216-2.847 10.176-8.543l.959-6.145 1.729-9.984h-.096c-1.024 3.328-2.961 5.968-5.809 7.92s-6.223 2.928-10.127 2.928c-5.376 0-9.376-1.759-12-5.279s-3.456-8.289-2.496-14.305l1.727-11.23c.96-5.952 3.313-10.689 7.057-14.209s8.304-5.279 13.68-5.279c3.84 0 6.864.927 9.072 2.783s3.344 4.416 3.408 7.68l1.537-9.504h7.584l-8.641 54.625c-.768 4.864-2.817 8.655-6.145 11.375s-7.615 4.08-12.863 4.08h-15.936zm-272.545-16.32c-6.144 0-10.704-1.808-13.68-5.424s-3.983-8.431-3.023-14.447l2.303-14.977c.96-6.016 3.52-10.831 7.68-14.447s9.313-5.424 15.457-5.424 10.704 1.808 13.68 5.424 3.983 8.431 3.023 14.447l-1.439 9.313h-32.352l-.865 5.664c-.704 4.288-.191 7.6 1.537 9.936s4.64 3.504 8.736 3.504c6.848 0 11.296-2.623 13.344-7.871h7.584c-1.344 4.416-3.984 7.903-7.92 10.463s-8.624 3.84-14.064 3.84zm55.104 0c-5.312 0-9.247-1.742-11.807-5.23s-3.36-8.242-2.4-14.258l2.496-15.646c.896-6.016 3.2-10.785 6.912-14.305s8.223-5.279 13.535-5.279c3.776 0 6.8.912 9.072 2.736s3.503 4.335 3.695 7.535h.096l1.729-11.52 2.496-15.072h7.584l-11.135 70.08h-7.586l1.441-9.312h-.096c-1.152 3.2-3.152 5.711-6 7.535s-6.193 2.736-10.033 2.736zm57.6 0c-5.312 0-9.247-1.742-11.807-5.23s-3.36-8.242-2.4-14.258l2.496-15.646c.896-6.016 3.2-10.785 6.912-14.305s8.223-5.279 13.535-5.279c3.776 0 6.8.912 9.072 2.736s3.505 4.335 3.697 7.535h.096l1.727-11.52 2.496-15.072h7.584l-11.135 70.08h-7.584l1.439-9.312h-.096c-1.152 3.2-3.152 5.711-6 7.535s-6.193 2.736-10.033 2.736zm-186.623-.959l-.191-52.801h6.623l-.48 37.92-.047 4.752c-.032 1.76-.081 3.185-.145 4.273a118.57 118.57 0 0 0 1.393-4.273 148.97 148.97 0 0 0 1.391-4.752l12.48-37.92h7.488l.289 37.92c.064 1.408.096 2.992.096 4.752s-.032 3.185-.096 4.273c.384-1.088.832-2.513 1.344-4.273l1.439-4.752 11.713-37.92h6.623L728.305 404.4h-8.641l-.096-36.768v-5.473-4.512l-1.393 4.512-1.775 5.473-12 36.768h-8.736zm226.176 0l1.057-6.912h18.912l6.143-38.977h-16.416l1.057-6.912h24.096l-7.295 45.889h17.855l-1.057 6.912H921.84zm58.848 0l8.352-52.801h7.586l-1.537 9.793c1.088-3.392 3.039-6.032 5.855-7.92s6.208-2.832 10.176-2.832c5.248 0 9.185 1.647 11.809 4.943s3.488 7.761 2.592 13.393l-5.664 35.424h-7.584l5.473-34.561c.64-4.032.08-7.168-1.68-9.408s-4.465-3.359-8.113-3.359c-3.776 0-6.944 1.183-9.504 3.551s-4.159 5.665-4.799 9.889l-5.377 33.889h-7.584zm-152.543-5.664c3.776 0 6.927-1.168 9.455-3.504s4.112-5.584 4.752-9.744l2.305-14.977c.704-4.16.159-7.408-1.633-9.744s-4.576-3.504-8.352-3.504c-3.84 0-6.991 1.153-9.455 3.457s-4.048 5.567-4.752 9.791l-2.305 14.977c-.704 4.224-.176 7.487 1.584 9.791s4.56 3.457 8.4 3.457zm57.6 0c3.776 0 6.927-1.168 9.455-3.504s4.112-5.584 4.752-9.744l2.305-14.977c.704-4.16.161-7.408-1.631-9.744s-4.577-3.504-8.354-3.504c-3.84 0-6.991 1.153-9.455 3.457s-4.048 5.567-4.752 9.791l-2.305 14.977c-.704 4.224-.176 7.487 1.584 9.791s4.56 3.457 8.4 3.457zm-233.473-3.553l3.072-19.104h-18.623l1.15-6.816H656.4l2.975-19.104h7.488l-2.975 19.104h18.623l-1.152 6.816h-18.527l-3.072 19.104h-7.488zm407.041-.863c3.776 0 6.927-1.168 9.455-3.504s4.112-5.584 4.752-9.744l1.633-10.561c.704-4.16.159-7.408-1.633-9.744s-4.576-3.504-8.352-3.504c-3.84 0-6.991 1.153-9.455 3.457s-4.048 5.567-4.752 9.791l-1.633 10.561c-.704 4.224-.176 7.487 1.584 9.791s4.56 3.457 8.4 3.457zm-297.121-20.449h24.865l.479-3.359c.704-4.288.193-7.6-1.535-9.936s-4.609-3.504-8.641-3.504c-4.096 0-7.391 1.168-9.887 3.504s-4.097 5.648-4.801 9.936l-.48 3.359zm191.713-31.967c-1.984 0-3.473-.513-4.465-1.537s-1.359-2.431-1.104-4.223c.32-1.856 1.152-3.328 2.496-4.416s3.008-1.633 4.992-1.633 3.471.545 4.463 1.633 1.361 2.56 1.105 4.416c-.32 1.792-1.152 3.199-2.496 4.223s-3.008 1.537-4.992 1.537zM805.104 280.98l11.137-70.08h7.584l-1.537 9.313h.098c1.216-3.2 3.248-5.713 6.096-7.537s6.223-2.736 10.127-2.736c5.248 0 9.153 1.744 11.713 5.232s3.36 8.24 2.4 14.256l-2.496 15.648c-.96 6.016-3.264 10.785-6.912 14.305s-8.129 5.279-13.441 5.279c-3.84 0-6.896-.912-9.168-2.736s-3.503-4.335-3.695-7.535h-.191l-1.537 10.752-2.592 15.84h-7.584zm-93.119-16.32c-6.144 0-10.704-1.808-13.68-5.424s-3.985-8.433-3.025-14.449l2.305-14.975c.96-6.016 3.52-10.833 7.68-14.449s9.313-5.424 15.457-5.424 10.704 1.808 13.68 5.424 3.983 8.433 3.023 14.449l-1.439 9.311h-32.352l-.865 5.664c-.704 4.288-.191 7.602 1.537 9.938s4.638 3.504 8.734 3.504c6.848 0 11.298-2.625 13.346-7.873h7.584c-1.344 4.416-3.984 7.905-7.92 10.465s-8.624 3.84-14.064 3.84zm172.799 0c-6.144 0-10.704-1.808-13.68-5.424s-3.983-8.433-3.023-14.449l2.305-14.975c.96-6.016 3.52-10.833 7.68-14.449s9.311-5.424 15.455-5.424 10.704 1.808 13.68 5.424 3.985 8.433 3.025 14.449l-1.441 9.311h-32.352l-.863 5.664c-.704 4.288-.193 7.602 1.535 9.938s4.64 3.504 8.736 3.504c6.848 0 11.296-2.625 13.344-7.873h7.584c-1.344 4.416-3.984 7.905-7.92 10.465s-8.624 3.84-14.064 3.84zm170.305 0c-5.312 0-9.249-1.744-11.809-5.232s-3.358-8.24-2.398-14.256l2.494-15.648c.896-6.016 3.2-10.783 6.912-14.303s8.225-5.281 13.537-5.281c3.776 0 6.8.912 9.072 2.736s3.503 4.337 3.695 7.537h.096l1.441-9.312h7.584l-8.354 52.799h-7.584l1.441-9.311h-.098c-1.152 3.2-3.152 5.711-6 7.535s-6.191 2.736-10.031 2.736zm-308.352-.961l22.752-27.359L756.24 210.9h8.832l8.064 17.088c.32.64.639 1.343.959 2.111l.768 1.92c.32-.512.736-1.152 1.248-1.92l1.441-2.111 13.439-17.088h9.119l-21.311 25.92 14.016 26.879h-8.736l-8.832-18.047a64.74 64.74 0 0 1-1.008-2.352l-.816-2.064c-.384.512-.863 1.2-1.439 2.064a29.93 29.93 0 0 1-1.729 2.352l-14.4 18.047h-9.119zm178.08 0l8.352-52.799h7.488l-1.537 9.313h.098c2.816-6.848 8.064-10.273 15.744-10.273 5.568 0 9.712 1.744 12.432 5.232s3.632 8.176 2.736 14.064l-.576 3.168h-7.777l.48-2.592c.704-4.288.176-7.6-1.584-9.936s-4.56-3.506-8.4-3.506-7.04 1.185-9.6 3.553-4.193 5.665-4.896 9.889l-5.279 33.887h-7.68zm54.623 0l1.057-6.912h18.912l6.145-38.975h-16.416l1.055-6.912h24.096l-7.295 45.887h17.855l-1.055 6.912h-44.354zm116.449 0l8.352-52.799h7.584l-1.537 9.791c1.088-3.392 3.041-6.032 5.857-7.92s6.208-2.832 10.176-2.832c5.248 0 9.185 1.649 11.809 4.945s3.488 7.759 2.592 13.391l-5.664 35.424h-7.584l5.471-34.559c.64-4.032.08-7.168-1.68-9.408s-4.463-3.361-8.111-3.361c-3.776 0-6.944 1.185-9.504 3.553s-4.161 5.665-4.801 9.889l-5.375 33.887h-7.584zm-267.361-5.664c3.84 0 6.993-1.151 9.457-3.455s4.048-5.569 4.752-9.793l2.303-14.975c.704-4.224.176-7.489-1.584-9.793s-4.527-3.455-8.303-3.455-6.929 1.168-9.457 3.504-4.144 5.584-4.848 9.744l-2.303 14.975c-.704 4.16-.144 7.408 1.68 9.744s4.591 3.504 8.303 3.504zm230.016 0c3.776 0 6.929-1.168 9.457-3.504s4.112-5.584 4.752-9.744l2.305-14.975c.64-4.16.078-7.408-1.682-9.744s-4.527-3.504-8.303-3.504c-3.84 0-7.008 1.151-9.504 3.455s-4.065 5.569-4.705 9.793l-2.303 14.975c-.64 4.224-.097 7.489 1.631 9.793s4.512 3.455 8.352 3.455zm-406.271-3.551l3.072-19.104h-18.623l1.15-6.816H656.4l2.975-19.104h7.488l-2.975 19.104h18.623l-1.152 6.816h-18.527l-3.072 19.104h-7.488zm52.32-21.312h24.863l.48-3.359c.704-4.288.193-7.6-1.535-9.936s-4.609-3.506-8.641-3.506c-4.096 0-7.393 1.17-9.889 3.506s-4.095 5.648-4.799 9.936l-.48 3.359zm172.801 0h24.863l.48-3.359c.704-4.288.191-7.6-1.537-9.936s-4.607-3.506-8.639-3.506c-4.096 0-7.393 1.17-9.889 3.506s-4.097 5.648-4.801 9.936l-.479 3.359zm134.111-31.969c-1.984 0-3.473-.511-4.465-1.535s-1.359-2.433-1.104-4.225c.32-1.856 1.152-3.328 2.496-4.416s3.008-1.631 4.992-1.631 3.473.543 4.465 1.631 1.359 2.56 1.104 4.416c-.32 1.792-1.152 3.201-2.496 4.225s-3.008 1.535-4.992 1.535zm196.801-60.924l11.135-70.08h7.584l-1.535 9.313h.096c1.216-3.2 3.248-5.711 6.096-7.535s6.225-2.736 10.129-2.736c5.248 0 9.151 1.744 11.711 5.232s3.36 8.24 2.4 14.256l-2.496 15.648c-.96 6.016-3.264 10.783-6.912 14.303s-8.127 5.281-13.439 5.281c-3.84 0-6.896-.912-9.168-2.736s-3.505-4.337-3.697-7.537h-.191l-1.535 10.752-2.592 15.84h-7.584zm112.895 0l1.152-6.912h7.68c5.12 0 8.129-2.528 9.025-7.584l7.104-43.391h-16.801l1.152-6.912h16.705l1.344-8.064c.704-4.48 2.624-8.015 5.76-10.607s7.136-3.889 12-3.889h12.383l-1.15 6.912h-12.385c-5.248 0-8.255 2.528-9.023 7.584l-1.344 8.064h20.734l-1.15 6.912h-20.641l-7.104 43.391c-.768 4.48-2.721 8.017-5.857 10.609s-7.102 3.887-11.902 3.887h-7.682zm66.336 0l1.152-6.912h16.033c5.888 0 9.28-2.847 10.176-8.543l1.055-7.008 1.633-9.408h-.096c-1.088 3.392-3.025 6.032-5.809 7.92s-6.159 2.832-10.127 2.832c-5.248 0-9.201-1.647-11.857-4.943s-3.503-7.761-2.543-13.393l4.799-30.625h7.682l-4.705 29.762c-.704 4.032-.176 7.166 1.584 9.406s4.465 3.361 8.113 3.361c3.776 0 6.959-1.185 9.551-3.553s4.208-5.665 4.848-9.889l4.512-29.088h7.682l-8.736 54.625c-.768 4.864-2.817 8.655-6.145 11.375s-7.615 4.08-12.863 4.08h-15.937zm-620.447-16.318c-5.312 0-9.249-1.744-11.809-5.232s-3.358-8.24-2.398-14.256l2.494-15.648c.896-6.016 3.2-10.785 6.912-14.305s8.225-5.279 13.537-5.279c3.776 0 6.8.912 9.072 2.736s3.503 4.335 3.695 7.535h.096l1.441-9.312h7.584L789.359 123h-7.584l1.441-9.312h-.098a14.57 14.57 0 0 1-6 7.537c-2.848 1.824-6.191 2.736-10.031 2.736zm115.199 0c-5.312 0-9.247-1.744-11.807-5.232s-3.36-8.24-2.4-14.256l2.496-15.648c.896-6.016 3.2-10.785 6.912-14.305s8.223-5.279 13.535-5.279c3.776 0 6.8.912 9.072 2.736s3.505 4.335 3.697 7.535h.096l1.727-11.52 2.496-15.072h7.584L904.561 123h-7.584l1.439-9.312h-.096a14.57 14.57 0 0 1-6 7.537c-2.848 1.824-6.193 2.736-10.033 2.736zm60.098 0c-6.144 0-10.706-1.776-13.682-5.328s-3.983-8.401-3.023-14.545l2.305-14.977c.96-6.144 3.52-10.991 7.68-14.543s9.311-5.328 15.455-5.328 10.72 1.776 13.729 5.328 4.032 8.399 3.072 14.543l-2.4 14.977c-.96 6.144-3.52 10.993-7.68 14.545s-9.311 5.328-15.455 5.328zm115.584 0c-6.72 0-11.776-1.713-15.168-5.137s-4.64-8.081-3.744-13.969h7.68c-.64 3.776.144 6.769 2.352 8.977s5.551 3.313 10.031 3.313c4.224 0 7.696-1.056 10.416-3.168s4.401-5.024 5.041-8.736c.448-3.2.032-5.952-1.248-8.256s-3.36-3.905-6.24-4.801l-8.641-2.783c-4.416-1.408-7.679-3.809-9.791-7.201s-2.849-7.358-2.209-11.902c.64-3.712 2-6.945 4.08-9.697s4.752-4.896 8.016-6.432 6.945-2.305 11.041-2.305c6.08 0 10.656 1.713 13.729 5.137s4.223 7.952 3.455 13.584h-7.68c.64-3.648.017-6.529-1.871-8.641s-4.817-3.168-8.785-3.168c-3.904 0-7.12.961-9.648 2.881s-4.047 4.577-4.559 7.969c-.512 3.136-.13 5.839 1.15 8.111s3.328 3.888 6.145 4.848l8.736 2.881c4.48 1.472 7.777 3.951 9.889 7.439s2.784 7.536 2.016 12.145c-.576 3.776-1.968 7.088-4.176 9.936s-5.025 5.055-8.449 6.623-7.278 2.354-11.566 2.354zm114.814 0c-6.144 0-10.704-1.776-13.68-5.328s-3.983-8.401-3.023-14.545l2.305-14.977c.96-6.144 3.52-10.991 7.68-14.543s9.311-5.328 15.455-5.328 10.72 1.776 13.729 5.328 4.032 8.399 3.072 14.543l-2.4 14.977c-.96 6.144-3.52 10.993-7.68 14.545s-9.313 5.328-15.457 5.328zm288.385 0c-6.72 0-11.776-1.713-15.168-5.137s-4.64-8.081-3.744-13.969h7.68c-.64 3.776.144 6.769 2.352 8.977s5.553 3.313 10.033 3.313c4.224 0 7.696-1.056 10.416-3.168s4.399-5.024 5.039-8.736c.448-3.2.032-5.952-1.248-8.256s-3.36-3.905-6.24-4.801l-8.639-2.783c-4.416-1.408-7.681-3.809-9.793-7.201s-2.847-7.358-2.207-11.902c.64-3.712 2-6.945 4.08-9.697s4.752-4.896 8.016-6.432 6.943-2.305 11.039-2.305c6.08 0 10.656 1.713 13.729 5.137s4.225 7.952 3.457 13.584h-7.682c.64-3.648.017-6.529-1.871-8.641s-4.815-3.168-8.783-3.168c-3.904 0-7.12.961-9.648 2.881s-4.048 4.577-4.561 7.969c-.512 3.136-.128 5.839 1.152 8.111s3.328 3.888 6.145 4.848l8.736 2.881c4.48 1.472 7.775 3.951 9.887 7.439s2.784 7.536 2.016 12.145c-.576 3.776-1.968 7.088-4.176 9.936s-5.023 5.055-8.447 6.623-7.28 2.354-11.568 2.354zm57.217 0c-6.144 0-10.706-1.81-13.682-5.426s-3.984-8.431-3.023-14.447l2.305-14.977c.96-6.016 3.52-10.831 7.68-14.447s9.311-5.424 15.455-5.424 10.706 1.808 13.682 5.424 3.984 8.431 3.023 14.447l-1.439 9.313h-32.354l-.863 5.664c-.704 4.288-.193 7.6 1.535 9.936s4.64 3.504 8.736 3.504c6.848 0 11.296-2.623 13.344-7.871h7.584c-1.344 4.416-3.984 7.903-7.92 10.463s-8.623 3.842-14.062 3.842zm172.799 0c-6.144 0-10.704-1.81-13.68-5.426s-3.983-8.431-3.023-14.447l2.303-14.977c.96-6.016 3.522-10.831 7.682-14.447s9.311-5.424 15.455-5.424 10.704 1.808 13.68 5.424 3.985 8.431 3.025 14.447l-1.441 9.313h-32.352l-.863 5.664c-.704 4.288-.193 7.6 1.535 9.936s4.64 3.504 8.736 3.504c6.848 0 11.296-2.623 13.344-7.871h7.584c-1.344 4.416-3.984 7.903-7.92 10.463s-8.624 3.842-14.064 3.842zM694.416 123l8.352-52.801h7.488l-1.535 9.313h.096c2.816-6.848 8.064-10.271 15.744-10.271 5.568 0 9.712 1.744 12.432 5.232s3.632 8.174 2.736 14.063l-.576 3.168h-7.777l.48-2.592c.704-4.288.176-7.6-1.584-9.936s-4.56-3.504-8.4-3.504-7.04 1.185-9.6 3.553-4.192 5.663-4.896 9.887L702.096 123h-7.68zm113.473 0l8.352-52.801h7.584l-1.537 9.793c1.088-3.392 3.041-6.032 5.857-7.92s6.208-2.832 10.176-2.832c5.248 0 9.185 1.647 11.809 4.943s3.488 7.761 2.592 13.393L847.057 123h-7.584l5.471-34.561c.64-4.032.08-7.168-1.68-9.408s-4.463-3.359-8.111-3.359c-3.776 0-6.944 1.185-9.504 3.553s-4.161 5.663-4.801 9.887L815.473 123h-7.584zM978 123l8.352-52.801h6.721l-1.057 6.529h.576c.704-2.304 1.92-4.129 3.648-5.473s3.777-2.016 6.145-2.016c4.672 0 7.232 2.496 7.68 7.488h.48c.704-2.304 1.935-4.129 3.695-5.473s3.823-2.016 6.191-2.016c3.264 0 5.617 1.216 7.057 3.648s1.839 5.663 1.199 9.695L1022.352 123h-7.104l6.336-40.416c.384-2.304.16-4.112-.672-5.424s-2.175-1.969-4.031-1.969-3.425.657-4.705 1.969-2.112 3.12-2.496 5.424L1003.344 123h-6.336l6.336-40.416c.384-2.304.145-4.112-.719-5.424s-2.224-1.969-4.08-1.969-3.393.657-4.609 1.969-2.016 3.12-2.4 5.424L985.104 123H978zm117.889 0l11.135-70.08h7.584l-2.687 16.512-1.633 10.176h.098c1.152-3.264 3.118-5.807 5.902-7.631s6.129-2.736 10.033-2.736c5.248 0 9.185 1.647 11.809 4.943s3.488 7.761 2.592 13.393L1135.057 123h-7.584l5.471-34.561c.64-4.032.08-7.168-1.68-9.408s-4.463-3.359-8.111-3.359c-3.776 0-6.944 1.185-9.504 3.553s-4.161 5.663-4.801 9.887L1103.473 123h-7.584zm171.551 0l1.057-6.912h18.912l6.145-38.977h-16.416l1.055-6.912h24.096l-7.295 45.889h17.855l-1.055 6.912h-44.354zm314.977 0c-4.544 0-7.953-1.297-10.225-3.889s-3.056-6.096-2.352-10.512l7.775-48.768h-16.127l1.152-6.912h23.711l-8.832 55.68c-.384 2.368-.048 4.208 1.008 5.52s2.705 1.969 4.945 1.969h17.566l-1.15 6.912h-17.473zm57.6 0c-4.544 0-7.951-1.297-10.223-3.889s-3.057-6.096-2.354-10.512l7.777-48.768h-16.129l1.152-6.912h23.711l-8.832 55.68c-.384 2.368-.046 4.208 1.01 5.52s2.703 1.969 4.943 1.969h17.568l-1.152 6.912h-17.473zm91.201 0l8.352-52.801h7.488l-1.537 9.313h.096c2.816-6.848 8.064-10.271 15.744-10.271 5.568 0 9.714 1.744 12.434 5.232s3.63 8.174 2.734 14.063l-.576 3.168h-7.775l.48-2.592c.704-4.288.176-7.6-1.584-9.936s-4.56-3.504-8.4-3.504-7.04 1.185-9.6 3.553-4.193 5.663-4.896 9.887L1738.896 123h-7.68zm-960.672-5.664c3.776 0 6.927-1.168 9.455-3.504s4.112-5.584 4.752-9.744l2.305-14.977c.64-4.16.078-7.408-1.682-9.744s-4.527-3.504-8.303-3.504c-3.84 0-7.008 1.153-9.504 3.457s-4.065 5.567-4.705 9.791l-2.303 14.977c-.64 4.224-.097 7.489 1.631 9.793s4.513 3.455 8.354 3.455zm115.199 0c3.776 0 6.927-1.168 9.455-3.504s4.112-5.584 4.752-9.744l2.305-14.977c.704-4.16.161-7.408-1.631-9.744s-4.577-3.504-8.354-3.504c-3.84 0-6.991 1.153-9.455 3.457s-4.048 5.567-4.752 9.791l-2.305 14.977c-.704 4.224-.176 7.489 1.584 9.793s4.56 3.455 8.4 3.455zm345.984 0c3.84 0 6.991-1.151 9.455-3.455s4.048-5.569 4.752-9.793l2.305-14.977c.704-4.224.176-7.487-1.584-9.791s-4.529-3.457-8.305-3.457-6.927 1.168-9.455 3.504-4.144 5.584-4.848 9.744l-2.305 14.977c-.704 4.16-.144 7.408 1.68 9.744s4.593 3.504 8.305 3.504zm-288.289-.096c3.968 0 7.201-1.136 9.697-3.408s4.095-5.52 4.799-9.744l2.305-14.977c.704-4.224.159-7.472-1.633-9.744s-4.639-3.406-8.543-3.406-7.12 1.134-9.648 3.406-4.144 5.52-4.848 9.744l-2.305 14.977c-.704 4.224-.159 7.472 1.633 9.744s4.639 3.408 8.543 3.408zm230.4 0c3.968 0 7.199-1.136 9.695-3.408s4.097-5.52 4.801-9.744l2.305-14.977c.704-4.224.159-7.472-1.633-9.744s-4.639-3.406-8.543-3.406-7.12 1.134-9.648 3.406-4.144 5.52-4.848 9.744l-2.305 14.977c-.704 4.224-.159 7.472 1.633 9.744s4.639 3.408 8.543 3.408zm-521.568-3.457l3.072-19.104h-18.623l1.15-6.816H656.4l2.975-19.104h7.488l-2.975 19.104h18.623l-1.152 6.816h-18.527l-3.072 19.104h-7.488zm858.721-21.311h24.863l.48-3.361c.704-4.288.193-7.6-1.535-9.936s-4.609-3.504-8.641-3.504c-4.096 0-7.393 1.168-9.889 3.504s-4.095 5.648-4.799 9.936l-.48 3.361zm172.801 0h24.863l.48-3.361c.704-4.288.191-7.6-1.537-9.936s-4.607-3.504-8.639-3.504c-4.096 0-7.393 1.168-9.889 3.504s-4.097 5.648-4.801 9.936l-.479 3.361zm-384.289-31.969c-1.984 0-3.473-.511-4.465-1.535s-1.359-2.433-1.104-4.225c.32-1.856 1.152-3.328 2.496-4.416s3.008-1.633 4.992-1.633 3.473.545 4.465 1.633 1.36 2.56 1.104 4.416c-.32 1.792-1.152 3.201-2.496 4.225s-3.008 1.535-4.992 1.535z"/></svg>