<svg xmlns="http://www.w3.org/2000/svg" version="1.1" style="font-family:Lato, &#x27;Helvetica Neue&#x27;, Helvetica, Arial, sans-serif;font-size:18px;background-color:white;text-rendering:optimizeLegibility;-webkit-font-smoothing:antialiased" width="850" height="600" viewBox="0 0 850 600"><g class="HeaderView"><g transform="translate(774, 15) scale(0.29)"><svg width="210" height="120" viewBox="0 0 210 120" fill="none" xmlns="http://www.w3.org/2000/svg">
<g clip-path="url(#clip0)">
  <path d="M0 0h210v107.89H0V0z" fill="#002147" />
  <path
    d="M40.98 32.25c0 2.36-.38 4.53-1.12 6.51a14.26 14.26 0 01-8.1 8.4c-1.9.78-4.02 1.17-6.34 1.17-2.31 0-4.42-.39-6.33-1.17a14.31 14.31 0 01-8.08-8.4 18.29 18.29 0 01-1.12-6.51c0-2.36.38-4.53 1.12-6.5.75-1.97 1.8-3.67 3.17-5.1 1.37-1.43 3-2.55 4.9-3.34 1.92-.8 4.03-1.19 6.34-1.19 2.32 0 4.43.4 6.34 1.19 1.92.8 3.56 1.9 4.93 3.34a14.87 14.87 0 013.17 5.1 18.1 18.1 0 011.12 6.5zm-4.38 0c0-1.94-.26-3.68-.8-5.22a10.91 10.91 0 00-2.24-3.89 9.68 9.68 0 00-3.52-2.46 11.95 11.95 0 00-4.62-.86c-1.68 0-3.21.28-4.6.86a9.88 9.88 0 00-3.54 2.46 10.91 10.91 0 00-2.24 3.9c-.53 1.53-.8 3.27-.8 5.2 0 1.94.27 3.68.8 5.22a11.17 11.17 0 002.24 3.9 10.01 10.01 0 003.55 2.44c1.38.56 2.9.83 4.6.83 1.7 0 3.24-.27 4.61-.83a9.8 9.8 0 003.52-2.44 11.17 11.17 0 002.25-3.9c.53-1.54.8-3.28.8-5.21zm26.22-6.54V48H60.5c-.56 0-.9-.27-1.05-.81l-.31-2.4a12.45 12.45 0 01-3.26 2.6c-1.2.64-2.58.96-4.13.96-1.22 0-2.3-.2-3.24-.6a6.52 6.52 0 01-2.33-1.7 7.37 7.37 0 01-1.43-2.67c-.3-1.04-.46-2.2-.46-3.45V25.7h3.91v14.22c0 1.68.38 2.99 1.15 3.91.77.93 1.96 1.39 3.54 1.39 1.16 0 2.24-.27 3.23-.82a10.42 10.42 0 002.8-2.28V25.7h3.91zm8.61 4.47a9.94 9.94 0 012.6-3.56 5.64 5.64 0 013.76-1.3c.47 0 .92.05 1.34.15.44.1.83.27 1.17.49L80 28.88c-.09.37-.3.55-.66.55-.2 0-.5-.04-.9-.13a6.21 6.21 0 00-3.24.18c-.54.2-1.03.5-1.47.92-.42.4-.81.9-1.17 1.5-.33.58-.64 1.26-.92 2.02V48h-3.94V25.71h2.25c.42 0 .72.08.88.25.16.16.27.44.33.83l.26 3.39zm61.16-13.7L122.75 48h-3.82l-7.99-24.05a21.95 21.95 0 01-.42-1.58 38.36 38.36 0 01-.44 1.58L102.05 48h-3.83L88.4 16.47h3.54c.38 0 .7.1.95.29.26.2.43.43.5.73l6.52 21.9c.1.4.2.83.28 1.28.1.46.2.94.29 1.46l.3-1.46c.12-.47.25-.9.38-1.27l7.41-21.91c.1-.25.26-.48.51-.69.27-.22.58-.33.95-.33h1.23c.38 0 .69.1.92.29.24.2.41.43.53.73l7.4 21.9a28.4 28.4 0 01.68 2.62 29.52 29.52 0 01.52-2.61l6.54-21.91c.07-.27.23-.5.48-.7.27-.21.58-.32.95-.32h3.32zm9.35 8.88c1.63 0 3.1.27 4.4.82a9.43 9.43 0 015.46 5.94c.5 1.4.74 2.98.74 4.73 0 1.76-.25 3.34-.74 4.75a9.43 9.43 0 01-5.46 5.92c-1.3.52-2.77.79-4.4.79-1.64 0-3.12-.27-4.44-.8a9.42 9.42 0 01-3.35-2.3c-.92-1-1.63-2.2-2.13-3.61-.49-1.41-.73-3-.73-4.75s.24-3.33.73-4.73c.5-1.43 1.2-2.64 2.13-3.63.93-1 2.04-1.77 3.35-2.31 1.32-.55 2.8-.82 4.44-.82zm0 19.89c2.2 0 3.84-.73 4.93-2.2 1.08-1.48 1.63-3.54 1.63-6.18 0-2.66-.55-4.72-1.63-6.2-1.09-1.49-2.73-2.23-4.93-2.23-1.12 0-2.09.2-2.93.57-.82.39-1.5.94-2.06 1.65-.55.72-.96 1.61-1.24 2.67-.26 1.04-.4 2.22-.4 3.54 0 2.64.55 4.7 1.64 6.18 1.1 1.47 2.76 2.2 4.99 2.2zm17.97-15.07a9.94 9.94 0 012.6-3.56 5.64 5.64 0 013.76-1.3c.47 0 .91.05 1.34.15.44.1.83.27 1.16.49l-.28 2.92c-.09.37-.31.55-.66.55-.2 0-.5-.04-.9-.13a6.2 6.2 0 00-3.24.18c-.54.2-1.03.5-1.47.92-.43.4-.82.9-1.17 1.5a13.1 13.1 0 00-.92 2.02V48h-3.94V25.71h2.24c.43 0 .72.08.88.25.17.16.28.44.33.83l.27 3.39zm15.04-14.59V48h-3.92V15.6h3.92zm19.55 15.43a6.22 6.22 0 00-2.38-2.05 6.7 6.7 0 00-2.86-.6c-2.07 0-3.66.75-4.77 2.23-1.12 1.48-1.68 3.6-1.68 6.33 0 1.46.13 2.7.38 3.74a7.29 7.29 0 001.1 2.56 4.35 4.35 0 001.78 1.45c.7.3 1.5.46 2.4.46 1.29 0 2.41-.3 3.36-.88a9.6 9.6 0 002.67-2.49V31.02zm3.91-15.43V48h-2.33c-.56 0-.9-.27-1.06-.81l-.35-2.71a12.13 12.13 0 01-3.25 2.77 8.28 8.28 0 01-4.23 1.06 7.31 7.31 0 01-6.14-2.9c-.73-.96-1.3-2.15-1.69-3.57a18.35 18.35 0 01.07-9.48 11.29 11.29 0 011.89-3.7 8.7 8.7 0 017.06-3.34 7.96 7.96 0 016.12 2.62V15.59h3.91zM46.61 70.71V93H42.7V70.71h3.91zm.84-7c0 .39-.08.75-.24 1.09-.15.32-.35.61-.62.88-.25.25-.55.44-.9.59a2.67 2.67 0 01-2.16 0 2.9 2.9 0 01-1.45-1.47 2.67 2.67 0 010-2.16c.15-.35.35-.65.6-.9.25-.27.53-.47.85-.62a2.67 2.67 0 012.16 0c.35.15.65.35.9.62.27.25.47.55.62.9.16.34.24.7.24 1.08zm7.97 10.24c.49-.54 1-1.04 1.54-1.48a9.85 9.85 0 013.66-1.84 8.96 8.96 0 015.43.35c.94.4 1.72.97 2.33 1.71.63.74 1.11 1.62 1.43 2.67.32 1.04.49 2.19.49 3.45V93h-3.94V78.81c0-1.69-.4-3-1.17-3.92-.76-.93-1.93-1.4-3.5-1.4-1.15 0-2.24.27-3.25.83-1 .56-1.92 1.31-2.77 2.27V93h-3.94V70.71h2.35c.56 0 .9.28 1.04.82l.3 2.42zm57.7 3.3c0 2.36-.37 4.5-1.11 6.44a14.3 14.3 0 01-3.17 4.98c-1.37 1.37-3 2.45-4.93 3.2-1.9.76-4.02 1.13-6.33 1.13H85.8V61.47h11.77c2.31 0 4.42.39 6.33 1.15a13.8 13.8 0 018.1 8.18 17.75 17.75 0 011.12 6.45zm-4.37 0c0-1.94-.26-3.67-.8-5.2a10.94 10.94 0 00-2.23-3.87 9.57 9.57 0 00-3.53-2.42 12.23 12.23 0 00-4.61-.83h-7.5v24.62h7.5c1.7 0 3.24-.28 4.61-.84a9.7 9.7 0 003.53-2.4 10.94 10.94 0 002.24-3.87c.53-1.53.8-3.26.8-5.2zm19.8 5.72c-1.8.06-3.34.2-4.62.44-1.26.22-2.3.51-3.1.88-.8.36-1.37.8-1.74 1.3-.35.5-.53 1.05-.53 1.67 0 .58.1 1.1.3 1.52a3 3 0 00.76 1.05c.34.27.73.46 1.17.6.45.11.94.17 1.45.17a7.28 7.28 0 003.5-.81 11.95 11.95 0 002.82-2.2v-4.62zm-12.65-9.11a12.73 12.73 0 013.98-2.66c1.43-.59 3-.88 4.73-.88 1.25 0 2.36.2 3.33.61a6.81 6.81 0 013.94 4.38c.33 1.04.5 2.19.5 3.43V93h-1.74a1.8 1.8 0 01-.88-.18c-.2-.13-.36-.38-.48-.74l-.44-2.12c-.59.55-1.16 1.03-1.72 1.46a9.48 9.48 0 01-3.74 1.7c-.69.15-1.46.23-2.3.23-.87 0-1.69-.12-2.45-.35a5.34 5.34 0 01-3.34-2.93 6.64 6.64 0 01-.49-2.64c0-.88.25-1.72.73-2.53a6.33 6.33 0 012.35-2.17c1.09-.63 2.5-1.15 4.25-1.54 1.75-.41 3.89-.65 6.42-.7v-1.75c0-1.73-.37-3.03-1.12-3.91-.75-.9-1.84-1.34-3.28-1.34-.97 0-1.78.12-2.44.37-.64.23-1.2.5-1.7.81l-1.23.82c-.33.23-.67.35-1 .35-.27 0-.5-.07-.69-.2a2.1 2.1 0 01-.48-.53l-.7-1.25zm27.67 19.5c-1.76 0-3.12-.5-4.07-1.48-.94-.98-1.41-2.4-1.41-4.25V74h-2.68a.9.9 0 01-.6-.2c-.16-.14-.24-.36-.24-.66v-1.56l3.65-.46.9-6.89c.05-.22.14-.4.29-.52a.88.88 0 01.62-.22H142v7.67h6.44V74h-6.44v13.38c0 .94.22 1.63.68 2.09.45.45 1.04.68 1.76.68a3.21 3.21 0 001.85-.53l.55-.35c.16-.12.3-.18.41-.18.2 0 .4.13.55.38l1.15 1.87a7.45 7.45 0 01-2.44 1.5c-.96.35-1.94.52-2.95.52zm19.68-10.4c-1.8.07-3.34.21-4.62.45-1.26.22-2.3.51-3.1.88-.8.36-1.37.8-1.74 1.3-.35.5-.53 1.05-.53 1.67 0 .58.1 1.1.3 1.52.18.42.44.77.76 1.05.34.27.73.46 1.17.6.45.11.94.17 1.45.17a7.3 7.3 0 003.5-.81 12.04 12.04 0 002.82-2.2v-4.62zm-12.65-9.1a12.72 12.72 0 013.99-2.66c1.42-.59 3-.88 4.72-.88 1.25 0 2.36.2 3.33.61a6.81 6.81 0 013.94 4.38c.33 1.04.5 2.19.5 3.43V93h-1.74a1.8 1.8 0 01-.88-.18c-.2-.13-.36-.38-.48-.74l-.44-2.12c-.59.55-1.16 1.03-1.72 1.46a9.48 9.48 0 01-3.74 1.7c-.69.15-1.46.23-2.3.23-.87 0-1.69-.12-2.45-.35a5.33 5.33 0 01-3.34-2.93 6.62 6.62 0 01-.49-2.64c0-.88.25-1.72.73-2.53a6.33 6.33 0 012.35-2.17c1.09-.63 2.5-1.15 4.25-1.54 1.74-.41 3.89-.65 6.42-.7v-1.75c0-1.73-.37-3.03-1.12-3.91-.75-.9-1.84-1.34-3.28-1.34-.97 0-1.78.12-2.44.37-.64.23-1.2.5-1.7.81-.46.3-.87.57-1.22.82-.34.23-.68.35-1.02.35-.26 0-.49-.07-.68-.2-.19-.14-.35-.32-.48-.53l-.7-1.25z"
    fill="#fff"
  />
  <path fill="#D42B21" d="M0 106.79h210V120H0z" />
</g>
<defs>
  <clipPath id="clip0"><path fill="#fff" d="M0 0h210v120H0z" /></clipPath>
</defs>
</svg></g><a href="https://ourworldindata.org/coronavirus-data-explorer?zoomToSelection=true&amp;time=2020-02-14..latest&amp;country=~SWE&amp;region=World&amp;casesMetric=true&amp;interval=smoothed&amp;hideControls=true&amp;smoothing=7&amp;pickerMetric=total_cases&amp;pickerSort=desc" style="font-family:&quot;Playfair Display&quot;, Georgia, &quot;Times New Roman&quot;, serif" target="_blank" rel="noopener"><text font-size="25.20" x="15.0" y="35.2" fill="#555"><tspan x="15" y="35.160000000000004">Daily new confirmed COVID-19 cases</tspan></text></a><text font-size="14.40" x="15.0" y="55.7" fill="#666"><tspan x="15" y="55.72">Shown is the rolling 7-day average. The number of confirmed cases is lower than the number of actual cases; the</tspan><tspan x="15" y="73">main reason for that is limited testing.</tspan></text></g><g class="LineChart"><defs><clipPath id="boundsClip-2"><rect x="50.824" y="0" width="830" height="928.6"></rect></clipPath></defs><g class="DualAxisView"><g class="HorizontalAxis"><line x1="60.8" y1="535.3000000000001" x2="60.8" y2="539.3000000000001" stroke="#ccc"></line><line x1="253" y1="535.3000000000001" x2="253" y2="539.3000000000001" stroke="#ccc"></line><line x1="379.4" y1="535.3000000000001" x2="379.4" y2="539.3000000000001" stroke="#ccc"></line><line x1="505.8" y1="535.3000000000001" x2="505.8" y2="539.3000000000001" stroke="#ccc"></line><line x1="632.2" y1="535.3000000000001" x2="632.2" y2="539.3000000000001" stroke="#ccc"></line><line x1="751" y1="535.3000000000001" x2="751" y2="539.3000000000001" stroke="#ccc"></line><text x="60.8" y="556.5" fill="#666" text-anchor="middle" font-size="16.2">Feb 14, 2020</text><text x="253" y="556.5" fill="#666" text-anchor="middle" font-size="16.2">Apr 30</text><text x="379.4" y="556.5" fill="#666" text-anchor="middle" font-size="16.2">Jun 19</text><text x="505.8" y="556.5" fill="#666" text-anchor="middle" font-size="16.2">Aug 8</text><text x="632.2" y="556.5" fill="#666" text-anchor="middle" font-size="16.2">Sep 27</text><text x="751" y="556.5" fill="#666" text-anchor="middle" font-size="16.2">Nov 13, 2020</text></g><g class="VerticalAxis"><text x="55.82" y="535.3" fill="#666" dominant-baseline="middle" text-anchor="end" font-size="16.2">0</text><text x="55.82" y="431.4" fill="#666" dominant-baseline="middle" text-anchor="end" font-size="16.2">1,000</text><text x="55.82" y="327.4" fill="#666" dominant-baseline="middle" text-anchor="end" font-size="16.2">2,000</text><text x="55.82" y="223.5" fill="#666" dominant-baseline="middle" text-anchor="end" font-size="16.2">3,000</text><text x="55.82" y="119.6" fill="#666" dominant-baseline="middle" text-anchor="end" font-size="16.2">4,000</text></g><g class="AxisGridLines horizontalLines"><line x1="60.82" y1="535.3" x2="751.00" y2="535.3" stroke="#ccc"></line><line x1="60.82" y1="431.4" x2="751.00" y2="431.4" stroke="#d3d3d3" stroke-dasharray="3,2"></line><line x1="60.82" y1="327.4" x2="751.00" y2="327.4" stroke="#d3d3d3" stroke-dasharray="3,2"></line><line x1="60.82" y1="223.5" x2="751.00" y2="223.5" stroke="#d3d3d3" stroke-dasharray="3,2"></line><line x1="60.82" y1="119.6" x2="751.00" y2="119.6" stroke="#d3d3d3" stroke-dasharray="3,2"></line></g></g><g clip-path="url(#boundsClip-2)"><g class="LineLabels" style="cursor:pointer"><g class="legendMark"><rect x="750.995" y="92.2" width="84.005" height="13.5" fill="#fff" opacity="0"></rect><text font-size="13.50" x="755.0" y="103.0" fill="#3C4E66"><tspan x="754.995" y="103">Sweden</tspan></text></g></g><g class="Lines"><rect x="61" y="92" width="690" height="443" fill="rgba(255,255,255,0)" opacity="0"></rect><g class="key-Sweden_0"><path stroke="#3C4E66" stroke-linecap="round" d="M61 535L63 535L66 535L68 535L71 535L74 535L76 535L79 535L81 535L84 535L86 535L89 535L91 535L94 535L96 535L99 535L101 535L104 535L106 535L109 535L111 534L114 534L116 533L119 533L122 532L124 531L127 530L129 527L132 525L134 524L137 523L139 523L142 523L144 523L147 524L149 524L152 523L154 522L157 522L159 520L162 519L165 516L167 514L170 511L172 509L175 506L177 503L180 499L182 497L185 493L187 489L190 488L192 487L195 488L197 484L200 481L202 480L205 482L208 482L210 480L213 479L215 483L218 484L220 484L223 481L225 479L228 480L230 479L233 476L235 474L238 472L240 471L243 472L245 473L248 471L250 471L253 470L256 472L258 475L261 478L263 478L266 480L268 481L271 482L273 480L276 477L278 474L281 474L283 474L286 473L288 473L291 475L293 475L296 478L299 478L301 478L304 480L306 478L309 479L311 481L314 480L316 481L319 480L321 479L324 479L326 477L329 473L331 473L334 472L336 469L339 467L341 464L344 460L347 454L349 449L352 446L354 446L357 445L359 439L362 435L364 433L367 429L369 430L372 429L374 425L377 425L379 422L382 424L384 429L387 430L390 429L392 427L395 424L397 427L400 427L402 426L405 425L407 426L410 433L412 448L415 457L417 465L420 470L422 472L425 479L427 487L430 489L433 494L435 499L438 500L440 503L443 504L445 504L448 507L450 508L453 510L455 511L458 511L460 512L463 513L465 513L468 514L470 514L473 515L475 516L478 517L481 516L483 516L486 515L488 515L491 512L493 512L496 511L498 510L501 508L503 507L506 505L508 506L511 505L513 505L516 504L518 503L521 504L524 504L526 505L529 505L531 505L534 507L536 508L539 509L541 509L544 510L546 510L549 510L551 512L554 513L556 515L559 517L561 517L564 518L566 518L569 518L572 519L574 518L577 516L579 516L582 516L584 515L587 514L589 513L592 513L594 513L597 512L599 512L602 511L604 510L607 510L609 508L612 506L615 505L617 504L620 504L622 502L625 498L627 496L630 493L632 493L635 492L637 490L640 488L642 486L645 484L647 483L650 481L652 481L655 481L658 479L660 477L663 474L665 473L668 472L670 472L673 468L675 466L678 464L680 463L683 457L685 454L688 452L690 450L693 444L695 435L698 424L700 414L703 402L706 399L708 395L711 378L713 351L716 328L718 295L721 273L723 261L726 254L728 236L731 220L733 198L736 192L738 170L741 158L743 125L746 111L749 92L751 96" fill="none" stroke-width="1.5"></path><g fill="#3C4E66"><circle cx="61" cy="535" r="2"></circle><circle cx="63" cy="535" r="2"></circle><circle cx="66" cy="535" r="2"></circle><circle cx="68" cy="535" r="2"></circle><circle cx="71" cy="535" r="2"></circle><circle cx="74" cy="535" r="2"></circle><circle cx="76" cy="535" r="2"></circle><circle cx="79" cy="535" r="2"></circle><circle cx="81" cy="535" r="2"></circle><circle cx="84" cy="535" r="2"></circle><circle cx="86" cy="535" r="2"></circle><circle cx="89" cy="535" r="2"></circle><circle cx="91" cy="535" r="2"></circle><circle cx="94" cy="535" r="2"></circle><circle cx="96" cy="535" r="2"></circle><circle cx="99" cy="535" r="2"></circle><circle cx="101" cy="535" r="2"></circle><circle cx="104" cy="535" r="2"></circle><circle cx="106" cy="535" r="2"></circle><circle cx="109" cy="535" r="2"></circle><circle cx="111" cy="534" r="2"></circle><circle cx="114" cy="534" r="2"></circle><circle cx="116" cy="533" r="2"></circle><circle cx="119" cy="533" r="2"></circle><circle cx="122" cy="532" r="2"></circle><circle cx="124" cy="531" r="2"></circle><circle cx="127" cy="530" r="2"></circle><circle cx="129" cy="527" r="2"></circle><circle cx="132" cy="525" r="2"></circle><circle cx="134" cy="524" r="2"></circle><circle cx="137" cy="523" r="2"></circle><circle cx="139" cy="523" r="2"></circle><circle cx="142" cy="523" r="2"></circle><circle cx="144" cy="523" r="2"></circle><circle cx="147" cy="524" r="2"></circle><circle cx="149" cy="524" r="2"></circle><circle cx="152" cy="523" r="2"></circle><circle cx="154" cy="522" r="2"></circle><circle cx="157" cy="522" r="2"></circle><circle cx="159" cy="520" r="2"></circle><circle cx="162" cy="519" r="2"></circle><circle cx="165" cy="516" r="2"></circle><circle cx="167" cy="514" r="2"></circle><circle cx="170" cy="511" r="2"></circle><circle cx="172" cy="509" r="2"></circle><circle cx="175" cy="506" r="2"></circle><circle cx="177" cy="503" r="2"></circle><circle cx="180" cy="499" r="2"></circle><circle cx="182" cy="497" r="2"></circle><circle cx="185" cy="493" r="2"></circle><circle cx="187" cy="489" r="2"></circle><circle cx="190" cy="488" r="2"></circle><circle cx="192" cy="487" r="2"></circle><circle cx="195" cy="488" r="2"></circle><circle cx="197" cy="484" r="2"></circle><circle cx="200" cy="481" r="2"></circle><circle cx="202" cy="480" r="2"></circle><circle cx="205" cy="482" r="2"></circle><circle cx="208" cy="482" r="2"></circle><circle cx="210" cy="480" r="2"></circle><circle cx="213" cy="479" r="2"></circle><circle cx="215" cy="483" r="2"></circle><circle cx="218" cy="484" r="2"></circle><circle cx="220" cy="484" r="2"></circle><circle cx="223" cy="481" r="2"></circle><circle cx="225" cy="479" r="2"></circle><circle cx="228" cy="480" r="2"></circle><circle cx="230" cy="479" r="2"></circle><circle cx="233" cy="476" r="2"></circle><circle cx="235" cy="474" r="2"></circle><circle cx="238" cy="472" r="2"></circle><circle cx="240" cy="471" r="2"></circle><circle cx="243" cy="472" r="2"></circle><circle cx="245" cy="473" r="2"></circle><circle cx="248" cy="471" r="2"></circle><circle cx="250" cy="471" r="2"></circle><circle cx="253" cy="470" r="2"></circle><circle cx="256" cy="472" r="2"></circle><circle cx="258" cy="475" r="2"></circle><circle cx="261" cy="478" r="2"></circle><circle cx="263" cy="478" r="2"></circle><circle cx="266" cy="480" r="2"></circle><circle cx="268" cy="481" r="2"></circle><circle cx="271" cy="482" r="2"></circle><circle cx="273" cy="480" r="2"></circle><circle cx="276" cy="477" r="2"></circle><circle cx="278" cy="474" r="2"></circle><circle cx="281" cy="474" r="2"></circle><circle cx="283" cy="474" r="2"></circle><circle cx="286" cy="473" r="2"></circle><circle cx="288" cy="473" r="2"></circle><circle cx="291" cy="475" r="2"></circle><circle cx="293" cy="475" r="2"></circle><circle cx="296" cy="478" r="2"></circle><circle cx="299" cy="478" r="2"></circle><circle cx="301" cy="478" r="2"></circle><circle cx="304" cy="480" r="2"></circle><circle cx="306" cy="478" r="2"></circle><circle cx="309" cy="479" r="2"></circle><circle cx="311" cy="481" r="2"></circle><circle cx="314" cy="480" r="2"></circle><circle cx="316" cy="481" r="2"></circle><circle cx="319" cy="480" r="2"></circle><circle cx="321" cy="479" r="2"></circle><circle cx="324" cy="479" r="2"></circle><circle cx="326" cy="477" r="2"></circle><circle cx="329" cy="473" r="2"></circle><circle cx="331" cy="473" r="2"></circle><circle cx="334" cy="472" r="2"></circle><circle cx="336" cy="469" r="2"></circle><circle cx="339" cy="467" r="2"></circle><circle cx="341" cy="464" r="2"></circle><circle cx="344" cy="460" r="2"></circle><circle cx="347" cy="454" r="2"></circle><circle cx="349" cy="449" r="2"></circle><circle cx="352" cy="446" r="2"></circle><circle cx="354" cy="446" r="2"></circle><circle cx="357" cy="445" r="2"></circle><circle cx="359" cy="439" r="2"></circle><circle cx="362" cy="435" r="2"></circle><circle cx="364" cy="433" r="2"></circle><circle cx="367" cy="429" r="2"></circle><circle cx="369" cy="430" r="2"></circle><circle cx="372" cy="429" r="2"></circle><circle cx="374" cy="425" r="2"></circle><circle cx="377" cy="425" r="2"></circle><circle cx="379" cy="422" r="2"></circle><circle cx="382" cy="424" r="2"></circle><circle cx="384" cy="429" r="2"></circle><circle cx="387" cy="430" r="2"></circle><circle cx="390" cy="429" r="2"></circle><circle cx="392" cy="427" r="2"></circle><circle cx="395" cy="424" r="2"></circle><circle cx="397" cy="427" r="2"></circle><circle cx="400" cy="427" r="2"></circle><circle cx="402" cy="426" r="2"></circle><circle cx="405" cy="425" r="2"></circle><circle cx="407" cy="426" r="2"></circle><circle cx="410" cy="433" r="2"></circle><circle cx="412" cy="448" r="2"></circle><circle cx="415" cy="457" r="2"></circle><circle cx="417" cy="465" r="2"></circle><circle cx="420" cy="470" r="2"></circle><circle cx="422" cy="472" r="2"></circle><circle cx="425" cy="479" r="2"></circle><circle cx="427" cy="487" r="2"></circle><circle cx="430" cy="489" r="2"></circle><circle cx="433" cy="494" r="2"></circle><circle cx="435" cy="499" r="2"></circle><circle cx="438" cy="500" r="2"></circle><circle cx="440" cy="503" r="2"></circle><circle cx="443" cy="504" r="2"></circle><circle cx="445" cy="504" r="2"></circle><circle cx="448" cy="507" r="2"></circle><circle cx="450" cy="508" r="2"></circle><circle cx="453" cy="510" r="2"></circle><circle cx="455" cy="511" r="2"></circle><circle cx="458" cy="511" r="2"></circle><circle cx="460" cy="512" r="2"></circle><circle cx="463" cy="513" r="2"></circle><circle cx="465" cy="513" r="2"></circle><circle cx="468" cy="514" r="2"></circle><circle cx="470" cy="514" r="2"></circle><circle cx="473" cy="515" r="2"></circle><circle cx="475" cy="516" r="2"></circle><circle cx="478" cy="517" r="2"></circle><circle cx="481" cy="516" r="2"></circle><circle cx="483" cy="516" r="2"></circle><circle cx="486" cy="515" r="2"></circle><circle cx="488" cy="515" r="2"></circle><circle cx="491" cy="512" r="2"></circle><circle cx="493" cy="512" r="2"></circle><circle cx="496" cy="511" r="2"></circle><circle cx="498" cy="510" r="2"></circle><circle cx="501" cy="508" r="2"></circle><circle cx="503" cy="507" r="2"></circle><circle cx="506" cy="505" r="2"></circle><circle cx="508" cy="506" r="2"></circle><circle cx="511" cy="505" r="2"></circle><circle cx="513" cy="505" r="2"></circle><circle cx="516" cy="504" r="2"></circle><circle cx="518" cy="503" r="2"></circle><circle cx="521" cy="504" r="2"></circle><circle cx="524" cy="504" r="2"></circle><circle cx="526" cy="505" r="2"></circle><circle cx="529" cy="505" r="2"></circle><circle cx="531" cy="505" r="2"></circle><circle cx="534" cy="507" r="2"></circle><circle cx="536" cy="508" r="2"></circle><circle cx="539" cy="509" r="2"></circle><circle cx="541" cy="509" r="2"></circle><circle cx="544" cy="510" r="2"></circle><circle cx="546" cy="510" r="2"></circle><circle cx="549" cy="510" r="2"></circle><circle cx="551" cy="512" r="2"></circle><circle cx="554" cy="513" r="2"></circle><circle cx="556" cy="515" r="2"></circle><circle cx="559" cy="517" r="2"></circle><circle cx="561" cy="517" r="2"></circle><circle cx="564" cy="518" r="2"></circle><circle cx="566" cy="518" r="2"></circle><circle cx="569" cy="518" r="2"></circle><circle cx="572" cy="519" r="2"></circle><circle cx="574" cy="518" r="2"></circle><circle cx="577" cy="516" r="2"></circle><circle cx="579" cy="516" r="2"></circle><circle cx="582" cy="516" r="2"></circle><circle cx="584" cy="515" r="2"></circle><circle cx="587" cy="514" r="2"></circle><circle cx="589" cy="513" r="2"></circle><circle cx="592" cy="513" r="2"></circle><circle cx="594" cy="513" r="2"></circle><circle cx="597" cy="512" r="2"></circle><circle cx="599" cy="512" r="2"></circle><circle cx="602" cy="511" r="2"></circle><circle cx="604" cy="510" r="2"></circle><circle cx="607" cy="510" r="2"></circle><circle cx="609" cy="508" r="2"></circle><circle cx="612" cy="506" r="2"></circle><circle cx="615" cy="505" r="2"></circle><circle cx="617" cy="504" r="2"></circle><circle cx="620" cy="504" r="2"></circle><circle cx="622" cy="502" r="2"></circle><circle cx="625" cy="498" r="2"></circle><circle cx="627" cy="496" r="2"></circle><circle cx="630" cy="493" r="2"></circle><circle cx="632" cy="493" r="2"></circle><circle cx="635" cy="492" r="2"></circle><circle cx="637" cy="490" r="2"></circle><circle cx="640" cy="488" r="2"></circle><circle cx="642" cy="486" r="2"></circle><circle cx="645" cy="484" r="2"></circle><circle cx="647" cy="483" r="2"></circle><circle cx="650" cy="481" r="2"></circle><circle cx="652" cy="481" r="2"></circle><circle cx="655" cy="481" r="2"></circle><circle cx="658" cy="479" r="2"></circle><circle cx="660" cy="477" r="2"></circle><circle cx="663" cy="474" r="2"></circle><circle cx="665" cy="473" r="2"></circle><circle cx="668" cy="472" r="2"></circle><circle cx="670" cy="472" r="2"></circle><circle cx="673" cy="468" r="2"></circle><circle cx="675" cy="466" r="2"></circle><circle cx="678" cy="464" r="2"></circle><circle cx="680" cy="463" r="2"></circle><circle cx="683" cy="457" r="2"></circle><circle cx="685" cy="454" r="2"></circle><circle cx="688" cy="452" r="2"></circle><circle cx="690" cy="450" r="2"></circle><circle cx="693" cy="444" r="2"></circle><circle cx="695" cy="435" r="2"></circle><circle cx="698" cy="424" r="2"></circle><circle cx="700" cy="414" r="2"></circle><circle cx="703" cy="402" r="2"></circle><circle cx="706" cy="399" r="2"></circle><circle cx="708" cy="395" r="2"></circle><circle cx="711" cy="378" r="2"></circle><circle cx="713" cy="351" r="2"></circle><circle cx="716" cy="328" r="2"></circle><circle cx="718" cy="295" r="2"></circle><circle cx="721" cy="273" r="2"></circle><circle cx="723" cy="261" r="2"></circle><circle cx="726" cy="254" r="2"></circle><circle cx="728" cy="236" r="2"></circle><circle cx="731" cy="220" r="2"></circle><circle cx="733" cy="198" r="2"></circle><circle cx="736" cy="192" r="2"></circle><circle cx="738" cy="170" r="2"></circle><circle cx="741" cy="158" r="2"></circle><circle cx="743" cy="125" r="2"></circle><circle cx="746" cy="111" r="2"></circle><circle cx="749" cy="92" r="2"></circle><circle cx="751" cy="96" r="2"></circle></g></g></g></g></g><g class="SourcesFooter" style="fill:#777"><g class="clickable" style="fill:#777"><text font-size="12.60" x="15.0" y="581.6"><tspan x="15" y="581.58">Source: European CDC – Situation Update Worldwide – Last updated 15 November, 10:06 (London time)</tspan></text></g><text font-size="12.60" x="796.4" y="581.6"><tspan x="796.444" y="581.58"><a style="fill: #777;" class="cclogo" href="http://creativecommons.org/licenses/by/4.0/deed.en_US" target="_blank">CC BY</a></tspan></text></g></svg>