<svg xmlns="http://www.w3.org/2000/svg" xmlns:xlink="http://www.w3.org/1999/xlink" height="220" width="273">
  <g>
    <g opacity="1">
      <g opacity="1">
        <path fill="rgb(255,255,255)" fill-opacity="1" opacity="1" fill-rule="evenodd" d="M271 130C272 161 263 192 243 218L233 201C247 180 254 155 253 130L271 130L271 130Z"/>
      </g>
      <g opacity="1">
        <path fill="rgb(255,255,255)" fill-opacity="1" opacity="1" fill-rule="evenodd" d="M230 38C231 39 233 40 234 41C255 63 267 90 270 118L252 118C248 95 238 72 220 54L217 51L230 38L230 38Z"/>
      </g>
      <g opacity="1">
        <path fill="rgb(255,255,255)" fill-opacity="1" opacity="1" fill-rule="evenodd" d="M142 0C170 0.9999999999999999 198 11 222 30L209 43C189 28.000000000000004 166 19 142 18L142 0L142 0Z"/>
      </g>
      <g opacity="1">
        <path fill="rgb(255,255,255)" fill-opacity="1" opacity="1" fill-rule="evenodd" d="M50 30C74 11 102 0.9999999999999999 130 0L130 18C106 19 83 28.000000000000004 63 43L50 30L50 30Z"/>
      </g>
      <g opacity="1">
        <path fill="rgb(255,255,255)" fill-opacity="1" opacity="1" fill-rule="evenodd" d="M2 118C5 89 19 60 42 38L54 51C35 70 24 93 20 118L2 118L2 118Z"/>
      </g>
      <g opacity="1">
        <path fill="rgb(255,255,255)" fill-opacity="1" opacity="1" fill-rule="evenodd" d="M29 218C9 192 0 161 1 130L19 130C18 155 25.000000000000004 180 39 201L29 218L29 218Z"/>
      </g>
      <g transform="translate(173.98512268066406, 166.94043350219727) rotate(85.0000303929542) translate(-173.98512268066406, -166.94043350219727)" opacity="1">
        <path fill="rgb(255,255,255)" fill-opacity="1" opacity="1" fill-rule="evenodd" d="M150.0557861328125 220.81024169921875C152.0557861328125 237.81024932861328 174.0557861328125 244.81024932861328 190.0557861328125 238.81024932861328C206.0557861328125 233.81024932861328 215.0557861328125 215.81024169921875 209.0557861328125 199.81024169921875C203.0557861328125 182.81024169921875 136.0557861328125 77.81024932861328 137.0557861328125 94.81024932861328L150.0557861328125 220.81024169921875ZM189.0557861328125 200.81024169921875C187.0557861328125 194.81024169921875 180.0557861328125 191.81024169921875 173.0557861328125 193.81024169921875C167.0557861328125 195.81024169921875 163.0557861328125 202.81024169921875 166.0557861328125 209.81024169921875C168.0557861328125 215.81024169921875 175.0557861328125 218.81024169921875 182.0557861328125 216.81024169921875C188.0557861328125 214.81024169921875 191.0557861328125 207.81024169921875 189.0557861328125 200.81024169921875Z"/>
      </g>
    </g>
  </g>
</svg>