<svg xmlns="http://www.w3.org/2000/svg" xmlns:xlink="http://www.w3.org/1999/xlink" height="90" width="90">
  <defs>
    <rect id="rect-1" opacity="1" x="5.081126430452031" y="0.06665713243674798" width="79.96237659454346" height="90.2322769165039"/>
    <path id="path-2" opacity="1" fill-rule="evenodd" d="M73.34575197976844 78.60194498949241C57.74975130838172 94.1979380314846 32.372748592317265 94.1979380314846 16.77775023263709 78.60194498949241C1.1827509192825971 63.00594431810569 1.1817509917618452 37.62894350938987 16.77775023263709 22.032940930654522C17.557750919282597 21.25194079332542 18.82575056833045 21.25194079332542 19.605751254975956 22.032940930654522L45.06175158303992 47.48894030504417L70.51774905008094 22.032940930654522C71.29674837869422 21.252940244009014 72.56575320047156 21.25194079332542 73.34575197976844 22.032940930654522C88.94275210183875 37.629942960073464 88.94275210183875 63.00594431810569 73.34575197976844 78.60194498949241Z"/>
    <mask id="mask-3" maskUnits="userSpaceOnUse" maskContentUnits="userSpaceOnUse" x="0" y="0">
      <rect opacity="1" x="0" y="0" width="90" height="90" fill="black"/>
      <use xlink:href="#path-2" fill="white"/>
    </mask>
  </defs>
  <g>
    <g transform="translate(45.06231472772376, 45.1827955906887) rotate(240.00008581540007) translate(-45.06231472772376, -45.1827955906887)" opacity="1">
      <g opacity="1">
        <use xlink:href="#path-2" fill-opacity="0" stroke="rgb(255,255,255)" stroke-opacity="1" stroke-width="12" stroke-linecap="butt" stroke-linejoin="miter" mask="url(#mask-3)"/>
      </g>
      <g opacity="1">
        <path fill="rgb(255,255,255)" fill-opacity="1" opacity="1" fill-rule="evenodd" d="M46.53420660775916 41.46303469591331L73.40420363229529 14.593033856679913C74.18420241159217 13.812033719350811 74.18520949167029 12.54403407030296 73.40420363229529 11.764033383657452C57.8092100409867 -3.8319668108921094 32.43220541757361 -3.8329667384128614 16.836206653535527 11.764033383657452C16.055206516206425 12.545033520986554 16.055206516206425 13.812033719350811 16.836206653535527 14.593033856679913L43.70520804208533 41.46303469591331C44.4862062720658 42.24303347521018 45.75420401376502 42.24303347521018 46.53420660775916 41.46303469591331ZM69.12320540231482 13.217032498647686L45.120208957612675 37.220038480092995L21.11720679086463 13.217032498647686C34.741207340181035 1.0150331919689135 55.50020430368201 1.016033238698955 69.12320540231482 13.217032498647686Z"/>
      </g>
    </g>
  </g>
</svg>