<svg xmlns="http://www.w3.org/2000/svg" width="1000" height="1000" version="1" viewBox="0 0 1000 1000">
  <title>
    Jeremiah
  </title>
  <g fill="none" fill-rule="evenodd">
    <path fill="#FFF" d="M0 0h1000v1000H0z"/>
    <g fill="#28736F">
      <path d="M633 674h40v226h-40z"/>
      <path d="M900 820H633v-40h267z"/>
      <path d="M860 780h40v120h-40z"/>
    </g>
    <g fill="#28736F">
      <path d="M606 714H366v-40h240zM620 820H366v-40h254z"/>
      <path d="M353 674h40v226h-40zM566 674h40v226h-40z"/>
    </g>
    <g fill="#698537">
      <path d="M780 474h40v280h-40z"/>
      <path d="M900 754H700v-40h200zM900 514H700v-40h200z"/>
    </g>
    <g fill="#698537">
      <path d="M633 474h40v173h-40zM486 447h40v200h-40zM353 463h40v187h-40z"/>
      <path d="M526 487H353v-40h173z"/>
      <path d="M673 514H486v-40h187z"/>
    </g>
    <g fill="#B7872B">
      <path d="M700 260h40v174h-40zM860 260h40v107h-40z"/>
      <path d="M900 300H700v-40h200zM900 380H686v-40h214zM900 447H700v-40h200z"/>
    </g>
    <g fill="#B7872B">
      <path d="M527 100h40v320h-40zM861 100h40v134h-40z"/>
      <path d="M901 140H527v-40h374zM901 234H527v-40h374z"/>
      <path d="M582 227l39-11 51 194-38 10z"/>
    </g>
    <g fill="#9F3523">
      <path d="M353 100h40v320h-40z"/>
      <path d="M500 420H353v-40h147zM500 140H353v-40h147zM500 234H353v-40h147z"/>
      <path d="M460 100h40v134h-40z"/>
    </g>
    <g fill="#9F3523">
      <path d="M326 900h-40V100h40zM140 900h-40V634h40z"/>
      <path d="M326 900H100v-40h226z"/>
    </g>
  </g>
</svg>
