<svg version="1" xmlns="http://www.w3.org/2000/svg" width="346.667" height="346.667" viewBox="0 0 260.000000 260.000000"><path d="M65 123.7c0 63.4-.3 115.3-.7 115.4-2.9.4-42.6.3-43.2-.1-.4-.3-.7-15.8-.6-34.5v-34h-12l-.3 40.6-.2 40.7h34.5l34.5.1v-5.2c.1-6.6.1-228.8 0-234.2V8.4H65v115.3zM85.5 8.9c-.3.2-.5 22.2-.5 48.8V106l22.4-.1 22.5-.2V93.5H97.5l-.1-21c0-11.6.2-21.6.4-22.3.3-.9 4.5-1.2 16.2-1.2h15.8l-.2-20.3-.1-20.2h-21.8c-12-.1-22 .1-22.2.4zm27 12l5.1.1-.2 7.2c-.1 4-.2 7.6-.3 8 0 .5-4.4.8-9.6.8-5.2 0-9.6-.3-9.6-.8-.1-.4-.2-3.9-.3-7.9l-.2-7.2 3.1-.3c1.6-.2 3.9-.2 5-.1s4.3.2 7 .2zM138 13.5c-.1 7.5-.1 82.3-.1 87.7l.1 4.8h12V49h2.5c1.4 0 2.5.2 2.5.4s3.1 12.1 7 26.4c3.8 14.3 7.1 26.6 7.2 27.4.5 2.4 2 2.6 7.2 1.1 2.8-.8 5.2-1.6 5.3-1.7.2-.1-.9-4.5-2.3-9.7-1.4-5.2-2.8-10.1-3-10.9-.2-.8-2.1-8.3-4.3-16.5-2.3-8.3-4.1-15.3-4.1-15.8 0-.4 18.8-.7 41.8-.7h41.7l-.2-19.7c-.1-10.9-.2-20-.2-20.3-.1-.3-25.5-.5-56.6-.6H138v5.1zm101 15.3V37l-44.5-.1-44.5-.1V21.1l4.8-.3c2.6-.2 22.6-.3 44.5-.3H239v8.3z"/><path d="M190.5 68.5c.1 9-.2 11.9-1.4 12.8-.8.7-1.7 1.2-2 1.2-.3 0-.6 2.4-.7 5.3-.1 4.6.2 5.5 2 6.2 1.9.7 2.1 1.5 2.1 10.1v9.4l30.3.3c33.5.3 30.4.8 30.4-5.8 0-1.1 0-3-.1-4.3l-.1-2.2h-22.7c-12.6.1-23.5-.1-24.4-.3-1.2-.3-1.4-1.2-1-3.9l.6-3.5 23.9-.1 24-.2v-18l-.1-18-30.4-.3-30.5-.2.1 11.5zm48.3 6.9l-.3 5.9-17.8.1-17.7.1V69.4h36.1l-.3 6zM89.3 113.8l-4.3.3v30.5c0 16.7.3 30.4.8 30.5 3.5.5 11.2.5 11.3 0 .1-.3.2-11.4.3-24.6l.1-24h28v24l.1 24h11.9l.5-20.1.5-20.1 15.8-.1 15.7-.1v40.5l6 .2c4.2.1 6-.2 6.1-1.1.1-.6.2-12.6.3-26.4l.1-25.3-12-.1c-6.6 0-16.6 0-22.2.1l-10.3.1V114l-6.2-.1c-3.5 0-13.5-.1-22.3-.2s-17.9-.1-20.2.1zM198.5 122l-8 .5v5.2c0 2.8.3 5.4.7 5.8.4.4 5.8.8 12 .9l11.3.1v60l-12 .3-12.1.3V207l30.5-.2 30.4-.3.1-5.8.1-5.7H227v-60.8h9.8c16.4 0 14.7.7 14.7-6.2v-6h-10c-5.5 0-15.6-.2-22.5-.3-6.9-.1-16.1 0-20.5.3zM85.4 183.5c-.3.6-.3 16.1-.2 34.5l.3 33.5 6 .3 6.1.3-.1-11.6c0-6.4.2-11.9.5-12.3.3-.5 12.1-.8 26.3-.8l25.7-.1V252l6-.1 6-.2.1-4.6v-12.3c-.1-6.7.1-7.6 1.7-7.4 1.3.2 1.8-.6 2.2-3.8.7-5.9.1-8.6-2-8.6-1.7 0-1.8-1.2-1.7-14.5.1-8-.1-15.3-.4-16.3-.6-1.6-3.6-1.7-38.4-1.7-24.4 0-37.9.4-38.1 1zM150 205v10l-26.2-.2-26.2-.3-.1-9.8-.1-9.7H150v10z"/><path d="M171.7 182.8c-1.6.3-1.7 2.6-1.5 34.5l.3 34.2h11.9l.1-12v-12l28.3-.1H239v24.4l6 .1c7 .1 6.2 2.6 6.2-19.9 0-7.7-.1-14.7-.1-15.5-.1-1.3-4.6-1.5-34.4-1.5h-34.3l.1-14.9c0-8.2-.2-15.5-.5-16.3-.5-1.2-6.3-1.8-10.3-1z"/></svg>