<?xml version="1.0" encoding="UTF-8" standalone="no"?><!DOCTYPE svg PUBLIC "-//W3C//DTD SVG 1.1//EN" "http://www.w3.org/Graphics/SVG/1.1/DTD/svg11.dtd"><svg width="100%" height="100%" viewBox="0 0 490 720" version="1.1" xmlns="http://www.w3.org/2000/svg" xmlns:xlink="http://www.w3.org/1999/xlink" xml:space="preserve" xmlns:serif="http://www.serif.com/" style="fill-rule:evenodd;clip-rule:evenodd;stroke-linejoin:round;stroke-miterlimit:2;"><g id="Master-Stickers-Join-The-Movement" serif:id="Master/Stickers/Join The Movement"><g id="Group-287"><path id="Fill-1" d="M413.809,695.038c0.258,-2.52 0.972,-4.796 0.481,-7.327c-0.474,-2.441 -2.401,-4.542 -2.682,-6.953c-0.265,-2.266 1.146,-2.756 1.963,-4.411c0.863,-1.747 0.025,-3.699 0.98,-5.445c0.899,-1.644 3.281,-3.357 5.303,-2.692c2.325,0.764 1.806,3.318 1.235,5.44c-0.506,1.875 -2.019,3.116 -2.558,4.741c-0.507,1.533 0.402,2.568 0.56,4.266c0.311,3.333 -1.301,3.67 -2.922,6.098c-1.283,1.924 -1.094,4.93 -1.324,7.308" style="fill:#999;"/><path id="Fill-3" d="M423.85,697.443c0.47,-1.93 0.158,-4.155 1.154,-5.893c0.983,-1.715 2.285,-1.907 2.201,-4.115c-0.098,-2.506 -0.358,-3.178 0.609,-5.547c0.584,-1.431 1.421,-4.015 -0.106,-5.273c-1.416,-1.167 -3.344,-0.293 -4.134,0.866c-1.192,1.747 -0.113,3.707 -0.622,5.55c-0.519,1.877 -2.073,2.62 -2.329,4.769c-0.219,1.847 0.329,2.938 1.281,4.47c1.409,2.272 1.678,3.001 1.135,5.728c-0.003,0.156 0.182,-0.03 0.459,0.057" style="fill:#999;"/><path id="Fill-5" d="M428.447,599.063c7.927,0 2.805,-5.644 -1.804,-5.117c-0.35,-5.424 -6.692,-7.167 -9.87,-3.24c-3.334,-4.832 -10.804,-2.432 -12.13,2.334c-2.982,-3.439 -9.47,-2.757 -11.95,1.494c-8.673,-1.364 -12.576,4.529 -10.625,4.529l46.379,0Z" style="fill:#ccc;"/><path id="Fill-7" d="M111.575,690.323l8.954,0c0,0 14.427,-19.71 31.341,0.493l8.705,0.247l-0.747,-14.783l-47.508,-2.217l-0.745,16.26Z" style="fill:#ccc;"/><path id="Fill-9" d="M90.438,674.063l2.71,5.064l-1.671,0.296l2.795,4.881l-1.852,-0.157l3.086,6.881l-2.658,-1.058l2.727,6.34l-3.054,-0.774l0.592,7.438l-1.05,0.089l-0.607,-7.603l-3.547,1.047l2.912,-6.508l-3.246,1.138l2.819,-6.961l-2.377,0.215l2.053,-4.766l-2.202,0.122l2.57,-5.684Z" style="fill:#999;"/><path id="Fill-11" d="M118.575,700.063l-3.483,-50l-14.517,0l3.934,48.93l14.066,1.07Z" style="fill:#999;"/><path id="Fill-13" d="M361.575,690.063l28.345,-1.143l12.655,-70.857l-31.13,1.143l-9.87,70.857Z" style="fill:#ccc;"/><path id="Fill-15" d="M382.575,690.527l10.231,-36.928l17.769,-0.536l-9.423,38l-18.577,-0.536Z" style="fill:#999;"/><path id="Fill-17" d="M79,720.126c4.365,-13.229 22.489,-27.422 39.861,-31.509c20.501,-4.822 137.81,2.584 183.332,-0.356c22.421,-1.449 41.329,-1.465 64.072,-2.145c17.649,-0.528 52.926,2.709 65.179,16.814c6.046,6.958 7.556,17.196 7.556,17.196l-360,0Z"/><path id="Fill-19" d="M236.671,18.063c72.14,93.467 99.226,-11.121 209.904,43.514l-61.433,125.486c-41.173,-56.497 -116.355,35.72 -189.567,-50.492l41.096,-118.508Z" style="fill:#cf112b;"/><path id="Fill-21" d="M253.195,116.228c-2.301,9.769 1.977,18.376 9.959,24.112c9.58,6.886 22.356,8.757 33.83,7.22c12.88,-1.724 25.163,-6.905 35.996,-13.983c9.743,-6.366 18.898,-14.41 24.822,-24.548c1.051,-1.796 1.332,-4.96 -1.119,-5.783c-2.5,-0.837 -5.035,1.354 -6.195,3.338c-4.414,7.552 -11.371,13.433 -18.458,18.39c-8.98,6.279 -19.391,10.687 -30.132,12.802c-9.913,1.95 -21.054,0.86 -29.897,-4.274c-5.803,-3.368 -12.17,-9.892 -10.434,-17.254c1.595,-6.773 -7.17,-5.121 -8.372,-0.02" style="fill:#fff;"/><path id="Fill-23" d="M283.604,85.676c-1.705,2.672 -2.494,5.66 -2.984,8.794c-0.389,2.496 1.793,4.069 3.964,3.463c2.591,-0.723 4.337,-3.244 4.751,-5.896c0.025,-0.157 0.277,-1.531 0.044,-0.382c0.102,-0.504 0.239,-0.998 0.388,-1.489c0.077,-0.243 0.16,-0.482 0.25,-0.719c-0.28,0.65 -0.298,0.708 -0.053,0.176c0.239,-0.502 0.534,-0.975 0.832,-1.44c1.142,-1.79 1.227,-5.112 -1.101,-5.925c-2.546,-0.89 -4.831,1.445 -6.091,3.418" style="fill:#fff;"/><path id="Fill-25" d="M336.812,78.638c-1.362,2.982 -2.336,5.778 -3.518,8.356c-0.865,1.888 -1.388,5.016 1.079,5.892c2.292,0.812 5.008,-1.311 5.965,-3.4c1.318,-2.876 2.426,-5.966 3.518,-8.355c0.863,-1.89 1.39,-5.015 -1.078,-5.89c-2.291,-0.813 -5.011,1.309 -5.966,3.397" style="fill:#fff;"/><path id="Fill-27" d="M480.575,252.617c-128.898,16.991 -67.982,-90.965 -196.272,-137.554l-50.728,153.398c76.032,-12.277 61.966,125.231 186.018,115.064l60.982,-130.908Z" style="fill:#0145dd;"/><path id="Fill-29" d="M319.665,302.212c0.03,-0.052 0.058,-0.109 0.09,-0.16c6.698,-10.293 13.865,-19.996 21.165,-29.537c-11.243,-2.453 -22.339,-6.35 -33.691,-7.625c-0.165,-0.017 -0.328,-0.059 -0.49,-0.112c1.222,13.008 6.058,25.945 12.037,36.006c0.287,0.485 0.591,0.955 0.889,1.428m36.266,23.765c-2.365,-15.462 -5.199,-30.885 -9.282,-45.794c-7.294,9.531 -14.456,19.228 -21.147,29.514c-0.053,0.08 -0.11,0.149 -0.164,0.22c6.913,8.013 15.464,13.687 24.449,15.54c2.122,0.439 4.171,0.6 6.144,0.52m-15.146,-113.736c-15.28,-0.266 -28.762,15.579 -32.993,33.865c-0.743,3.215 -1.156,6.515 -1.296,9.854c12.815,1.527 25.317,6.322 38.079,8.524c0.625,0.11 1.22,0.477 1.754,1.006c8.554,-11.048 17.169,-22.019 25.326,-33.571c-8.288,-11.188 -19.026,-19.47 -30.87,-19.678m-10.15,-8.096c22.122,-6.31 43.888,16.036 55.181,39.661c2.854,5.971 -2.943,7.897 -5.346,2.87c-1.063,-2.223 -2.215,-4.419 -3.456,-6.566c-8.266,11.669 -16.994,22.758 -25.646,33.939c4.92,16.426 8.264,33.568 10.964,50.754c20.363,-6.862 30.129,-41.816 22.793,-68.423c-1.815,-6.573 4.959,-5.46 6.319,-0.534c5.846,21.209 3.455,44.591 -6.749,62.072c-7.23,12.389 -18.922,18.321 -30.885,16.952c-27.355,-3.134 -49.37,-36.658 -53.699,-70.716c-3.447,-27.114 10.075,-54.177 30.524,-60.009" style="fill:#09cac9;"/><path id="Fill-33" d="M485.357,413.371c-112.493,15.456 -58.317,-74.629 -169.636,-111.85l-45.759,127.619c66.378,-10.983 52.729,103.078 160.928,93.328l54.467,-109.097Z" style="fill:#f8de4a;"/><path id="Fill-36" d="M324.874,354.227c59.548,8.605 34.228,86.961 115.4,84.609l-7.591,13.174c-80.599,1.677 -60.042,-80.09 -114.489,-82.198" style="fill:#fff;"/><path id="Fill-361" serif:id="Fill-36" d="M310.255,390.078c59.548,8.605 34.228,86.962 115.4,84.609l-7.591,13.175c-80.599,1.677 -60.041,-80.09 -114.489,-82.198" style="fill:#fff;"/><g><path id="Fill-362" serif:id="Fill-36" d="M42.623,330.995c82.129,2.668 55.706,67.422 166.2,59.745l-8.991,11.126c-109.782,7.093 -90.21,-60.062 -164.708,-57.874" style="fill:#f8de4a;"/><path id="Fill-38" d="M50.482,317.582c89.505,7.579 56.328,70.294 167.222,62.001l-8.966,11.187c-110.182,7.707 -83.835,-57.422 -165.733,-60.116" style="fill:#ee7421;"/><path id="Fill-40" d="M71.895,279.368c112.657,22.223 58.828,77.698 172.18,67.643l-8.989,11.187c-112.642,9.471 -65.663,-48.419 -170.689,-65.759" style="fill:#b57ee1;"/><path id="Fill-42" d="M64.983,292.161c104.731,17.253 57.884,74.863 170.209,65.435l-8.966,11.134c-111.614,8.844 -71.601,-51.167 -168.721,-63.562" style="fill:#ec51ca;"/><path id="Fill-44" d="M57.395,304.788c97.389,12.425 57.265,72.584 169.19,63.717l-8.992,11.161c-111.21,8.282 -77.938,-54.283 -167.696,-61.836" style="fill:#cf112b;"/><path id="Fill-46" d="M35.709,343.8c74.283,-2.186 54.768,65.1 164.232,58.002l-8.965,11.144c-108.753,6.517 -96.069,-63.174 -162.743,-56.124" style="fill:#4eb927;"/><path id="Fill-363" serif:id="Fill-36" d="M22.083,365.942c79.977,2.426 54.235,62.705 161.835,55.485l-8.757,10.36c-106.906,6.676 -87.836,-55.832 -160.381,-53.745" style="fill:#0145dd;"/><path id="Fill-381" serif:id="Fill-38" d="M29.468,354.24c87.158,6.991 54.84,65.377 162.828,57.583l-8.732,10.418c-107.296,7.247 -81.629,-53.381 -161.38,-55.831" style="fill:#09cac9;"/><path id="Fill-461" serif:id="Fill-46" d="M15.621,377.077c72.336,-2.086 53.322,60.546 159.918,53.865l-8.732,10.377c-105.904,6.139 -93.541,-58.725 -158.469,-52.118" style="fill:#6b33a4;"/></g><rect id="Fill-48" x="154.575" y="525.063" width="215" height="165"/><path id="Fill-50" d="M3.575,157.032c112.69,-35.224 71.699,73.882 184.807,81.031l54.193,-112.013c-85.057,28.861 -67.466,-106.841 -183.806,-67.909l-55.194,98.891Z" style="fill:#ec51ca;"/><path id="Fill-51" d="M241.251,126.016c-9.814,20.688 -19.628,41.376 -29.443,62.066c-16.727,35.261 -33.455,70.523 -50.183,105.786c-5.617,11.842 -11.235,23.685 -16.853,35.528c-0.872,1.837 1.386,2.274 2.127,0.714c9.813,-20.688 19.628,-41.376 29.441,-62.064c16.729,-35.263 33.456,-70.524 50.184,-105.786c5.618,-11.843 11.236,-23.686 16.854,-35.529c0.872,-1.838 -1.388,-2.275 -2.127,-0.715"/><clipPath id="_clip1"><path id="Fill-52" d="M3.575,157.032c112.69,-35.224 71.699,73.882 184.807,81.031l54.193,-112.013c-85.057,28.861 -67.466,-106.841 -183.806,-67.909l-55.194,98.891Z"/></clipPath><g clip-path="url(#_clip1)"><path d="M187.103,132.919c-0.818,0.289 -2.199,2.111 -1.148,2.884c1.887,1.384 5.077,2.214 6.228,4.332c1.229,2.266 -2.853,4.228 -4.324,4.703c-1.653,0.534 -3.443,0.696 -5.171,0.63c-2.9,-0.111 -5.696,-0.976 -8.509,-1.615c-3.528,-0.804 -7.095,-1.118 -10.709,-1.118c-7.254,0.002 -14.339,1.966 -21.364,3.542c-8.165,1.831 -16.529,2.983 -24.909,2.827c-7.508,-0.14 -14.437,-2.354 -20.569,-6.699c-6.002,-4.251 -10.169,-9.894 -13.969,-16.093c-5.588,-9.112 -12.395,-21.224 -23.618,-23.321c3.208,-2.546 5.918,-5.756 9.712,-7.503c7.932,-3.653 18.027,4.284 24.646,7.853c1.257,0.679 2.523,1.346 3.796,2.007c-0.595,2.057 -1.046,4.16 -1.36,6.283c-0.345,2.333 2.983,1.042 3.233,-0.654c0.214,-1.453 0.511,-2.858 0.866,-4.227c9.241,4.652 18.901,8.663 29.009,10.694c-0.145,0.338 -0.286,0.681 -0.425,1.024c-0.935,2.331 2.31,1.92 3.004,0.195c0.095,-0.236 0.202,-0.465 0.303,-0.7c2.318,0.374 4.657,0.651 7.02,0.789c15.046,0.88 29.747,-4.663 41.85,-13.333c3.294,-2.36 7.765,-7.569 12.219,-7.048c6.555,0.771 -0.54,11.87 -2.424,14.025c-0.732,0.836 -1.044,2.965 0.722,2.557c0.91,-0.211 5.798,-1.553 4.909,0.637c-0.869,2.135 -3.443,3.845 -5.266,5.066c-0.887,0.592 -1.767,2.772 -0.065,2.922c1.792,0.158 5.384,0.726 5.171,3.261c-0.277,3.311 -6.416,5.215 -8.858,6.08m-122.095,-13.192c-0.007,0.068 -0.073,0.182 -0.14,0.286c-0.067,-0.015 -0.167,-0.033 -0.282,-0.079c-0.885,-0.345 -1.602,-1.197 -2.221,-1.882c-0.458,-0.507 -0.884,-1.058 -1.291,-1.621c0.021,0.008 0.042,0.016 0.063,0.025c1.128,0.496 4.012,1.662 3.871,3.271m-16.604,11.854c-0.31,0.561 -0.824,1.59 -1.507,1.777c-1.309,0.354 -1.585,-1.655 -1.477,-2.402c0.381,-2.666 3.307,-5.481 5.611,-6.566c0.05,-0.024 0.093,-0.056 0.141,-0.084c-0.646,2.537 -1.518,5.014 -2.768,7.275m-1.343,-14.969c-0.974,0.78 -3.511,1.449 -3.208,-0.78c-0.051,0.388 0.66,-0.292 1.064,-0.47c0.822,-0.361 1.709,-0.559 2.583,-0.746c0.583,-0.126 1.216,-0.231 1.847,-0.322c-0.682,0.855 -1.445,1.648 -2.286,2.318m73.422,-33.11c11.351,-4.636 24.4,-4.612 36.352,-2.887c5.596,0.808 11.334,2.007 16.566,4.208c2.427,1.02 5.516,2.872 3.126,5.591c-2.348,2.671 -7.283,2.753 -10.54,3.085c-14.035,1.433 -28.194,8.17 -35.462,20.76c-10.241,-2.049 -20.127,-6.359 -29.452,-11.122c3.339,-8.975 9.966,-15.775 19.41,-19.635m-59.47,47.754c-0.671,2.193 -2.066,-1.357 -2.238,-1.893c-0.384,-1.199 -0.583,-2.501 -0.683,-3.785c1.884,1.729 3.477,3.865 2.921,5.678m138.093,-4.639c0.647,-3.149 -1.427,-4.893 -3.97,-5.746c2.071,-1.734 3.998,-3.894 4.378,-6.297c0.498,-3.131 -2.136,-3.608 -4.687,-3.405c2.377,-3.438 4.187,-7.531 3.886,-11.61c-0.354,-4.767 -5.715,-5.189 -9.165,-3.698c-2.373,1.023 -4.45,2.809 -6.477,4.369c-3.358,2.588 -6.783,5.044 -10.471,7.143c-7.965,4.538 -16.907,7.36 -26.052,8.012c-4.415,0.315 -8.788,0.066 -13.104,-0.606c3.501,-5.92 8.954,-10.333 15.165,-13.438c6.81,-3.404 13.678,-3.955 21.027,-5.087c4.713,-0.725 11.491,-3.628 11.159,-9.419c-0.263,-4.561 -7.97,-6.22 -11.305,-7.178c-20.837,-5.984 -49.593,-6.004 -64.954,11.766c-2.662,3.081 -4.67,6.592 -6.127,10.335c-1.345,-0.706 -2.677,-1.415 -3.996,-2.127c-7.463,-4.024 -15.024,-9.544 -23.938,-7.825c-4.609,0.888 -7.696,4.524 -11.151,7.53c1.561,-4.865 4.007,-9.379 8.383,-13.17c1.554,-1.346 0.746,-4.176 -1.167,-2.518c-5.937,5.142 -9.127,11.536 -11.119,18.485c-0.411,0.222 -0.836,0.424 -1.271,0.601c-0.076,0.005 -0.148,0.005 -0.224,0.011c-1.655,0.139 -2.742,3.179 -0.767,3.265c0.169,0.033 0.364,0.033 0.593,-0.015c0.232,-0.014 0.463,-0.022 0.694,-0.025c-0.36,1.592 -0.673,3.206 -0.957,4.834c-0.125,-0.063 -0.264,-0.105 -0.442,-0.093c-4.168,0.269 -12.418,1 -12.472,6.659c-0.031,3.294 3.651,3.923 5.977,2.818c2.634,-1.251 4.92,-3.877 6.44,-6.352c-0.233,1.498 -0.451,3.005 -0.667,4.512c-0.138,0.965 -0.3,1.939 -0.483,2.914c-0.268,-0.121 -0.644,-0.109 -1.153,0.132c-4.289,2.022 -9.965,7.911 -8.278,13.117c0.689,2.123 3.395,2.507 5.134,1.714c2.241,-1.02 3.527,-3.633 4.517,-5.735c1.136,-2.412 1.954,-4.928 2.598,-7.499c0.364,0.221 0.778,0.495 1.217,0.806c-0.62,0.469 -1.132,1.17 -1.114,1.834c0.073,2.597 0.483,5.472 1.728,7.783c1.407,2.608 4.135,2.09 5.997,0.256c5.121,-5.038 -1.79,-11.618 -6.248,-14.104c-0.253,-0.141 -0.527,-0.163 -0.802,-0.109c0.258,-1.327 0.485,-2.661 0.7,-3.999c0.018,0.056 0.031,0.113 0.057,0.166c1.827,3.632 7.476,11.685 11.276,5.435c3.6,-5.921 -5.36,-7.742 -8.896,-9.682c-0.608,-0.335 -1.344,-0.018 -1.886,0.529c0.288,-1.885 0.583,-3.763 0.93,-5.617c6.157,1.308 11.374,6.39 14.999,11.228c4.176,5.572 7.189,11.925 11.287,17.555c1.474,2.024 3.105,3.92 4.873,5.669c-0.867,0.176 -1.952,0.95 -2.166,1.83c-2.671,10.932 3.212,20.318 12.146,26.225c13.388,8.852 31.158,11.251 46.827,9.928c7.34,-0.619 14.654,-2.312 21.465,-5.136c4.341,-1.802 8.882,-4.322 11.652,-8.244c7.481,-10.594 -14.071,-11.968 -19.302,-12.519c-5.981,-0.633 -11.968,-1.343 -17.75,-3.071c-1.639,-0.491 -3.843,2.621 -2.026,3.164c6.914,2.067 14.087,2.763 21.233,3.524c4.361,0.466 12.641,0.381 15.412,4.577c2.188,3.307 -3.482,6.476 -5.685,7.708c-5.973,3.344 -12.825,5.055 -19.531,6.125c-15.719,2.507 -33.095,0.211 -47.192,-7.371c-9.5,-5.111 -16.756,-14.351 -14.015,-25.565c0.01,-0.048 0.011,-0.086 0.02,-0.132c3.194,2.957 6.805,5.449 10.769,7.342c6.464,3.089 13.743,3.543 20.786,3.218c8.454,-0.389 16.66,-1.977 24.887,-3.872c7.937,-1.833 15.75,-3.092 23.89,-1.826c6.223,0.97 11.651,3.241 17.975,1.199c4.153,-1.342 10.284,-7.139 5.896,-11.437c-0.841,-0.825 -1.914,-1.391 -2.994,-1.945c3.582,-1.64 7.262,-4.104 8.031,-7.846" style="fill:#fff;"/></g><path id="Fill-53" d="M70.063,100.878c0.107,-0.037 0.07,-0.021 0,0m0.414,-2.788c-1.224,-0.194 -2.5,0.705 -3.252,1.549c-0.481,0.537 -0.999,1.542 -0.334,2.161c0.243,0.229 0.557,0.293 0.874,0.258c-0.071,0.114 -0.134,0.231 -0.184,0.357c-0.255,0.639 -0.087,1.661 0.816,1.648c1.46,-0.022 2.698,-0.552 3.581,-1.714c0.624,-0.821 0.765,-1.919 0.393,-2.867c-0.314,-0.797 -1.067,-1.261 -1.894,-1.392" style="fill:#fff;"/><path id="Fill-54" d="M115.319,623.063c-2.296,0 1.17,-4.434 4.327,-2.788c0.641,-3.301 6.769,-4.574 9.384,-1.32c2.398,-1.721 5.179,-1.12 6.425,1.407c4.048,-1.203 6.624,2.701 4.151,2.701l-24.287,0Z" style="fill:#ccc;"/><path id="Fill-55" d="M100.942,633.063c3.651,0 0.54,-4.19 -3.085,-2.639c-1.237,-4.383 -6.841,-4.468 -8.434,-0.32c-3.396,-2.231 -6.636,2.959 -3.705,2.959l15.224,0Z" style="fill:#ccc;"/><path id="Fill-56" d="M369.941,551.063l-216.071,0c-1.018,0 -1.961,2 -0.662,2l216.072,0c1.018,0 1.962,-2 0.661,-2" style="fill:#fff;"/><path id="Fill-57" d="M369.941,579.063l-216.071,0c-1.018,0 -1.961,2 -0.662,2l216.072,0c1.018,0 1.962,-2 0.661,-2" style="fill:#fff;"/><path id="Fill-58" d="M369.941,607.063l-216.071,0c-1.018,0 -1.961,2 -0.662,2l216.072,0c1.018,0 1.962,-2 0.661,-2" style="fill:#fff;"/><path id="Fill-59" d="M369.941,634.063l-216.071,0c-1.018,0 -1.961,2 -0.662,2l216.072,0c1.018,0 1.962,-2 0.661,-2" style="fill:#fff;"/><path id="Fill-60" d="M369.941,662.063l-216.071,0c-1.018,0 -1.961,2 -0.662,2l216.072,0c1.018,0 1.962,-2 0.661,-2" style="fill:#fff;"/><path id="Fill-61" d="M349.927,525.331l-0.352,27.986c-0.018,1.441 1.635,0.532 1.648,-0.522l0.352,-27.986c0.018,-1.441 -1.635,-0.532 -1.648,0.522" style="fill:#fff;"/><path id="Fill-62" d="M312.767,525.34c-0.064,9.324 -0.128,18.647 -0.192,27.971c-0.01,1.452 1.801,0.537 1.808,-0.525c0.064,-9.324 0.128,-18.647 0.192,-27.971c0.01,-1.452 -1.801,-0.537 -1.808,0.525" style="fill:#fff;"/><path id="Fill-63" d="M277.767,524.331c-0.064,9.328 -0.128,18.657 -0.192,27.985c-0.01,1.442 1.801,0.534 1.808,-0.521c0.064,-9.328 0.128,-18.657 0.192,-27.985c0.01,-1.442 -1.801,-0.534 -1.808,0.521" style="fill:#fff;"/><path id="Fill-64" d="M241.575,525.31c0.069,9.007 0.137,18.012 0.206,27.018c0.01,1.418 1.803,0.526 1.794,-0.512c-0.068,-9.007 -0.137,-18.012 -0.206,-27.018c-0.01,-1.418 -1.802,-0.526 -1.794,0.512" style="fill:#fff;"/><path id="Fill-65" d="M208.575,524.349c0.117,9.319 0.234,18.638 0.351,27.956c0.019,1.462 1.662,0.543 1.649,-0.528c-0.117,-9.319 -0.234,-18.638 -0.351,-27.956c-0.019,-1.462 -1.663,-0.543 -1.649,0.528" style="fill:#fff;"/><path id="Fill-66" d="M171.926,525.339c-0.117,9.325 -0.234,18.648 -0.351,27.972c-0.018,1.452 1.635,0.536 1.649,-0.524c0.117,-9.325 0.234,-18.648 0.351,-27.972c0.018,-1.452 -1.636,-0.536 -1.649,0.524" style="fill:#fff;"/><path id="Fill-67" d="M260.575,553.315c0.064,9.004 0.128,18.007 0.192,27.01c0.01,1.424 1.815,0.528 1.808,-0.514c-0.064,-9.004 -0.128,-18.007 -0.192,-27.01c-0.01,-1.424 -1.815,-0.528 -1.808,0.514" style="fill:#fff;"/><path id="Fill-68" d="M225.926,553.314c-0.117,9.004 -0.234,18.008 -0.351,27.012c-0.018,1.423 1.635,0.526 1.649,-0.514c0.117,-9.004 0.234,-18.008 0.351,-27.012c0.018,-1.423 -1.635,-0.526 -1.649,0.514" style="fill:#fff;"/><path id="Fill-69" d="M295.575,553.315l0,27.01c0,1.424 2,0.528 2,-0.514l0,-27.01c0,-1.424 -2,-0.528 -2,0.514" style="fill:#fff;"/><path id="Fill-70" d="M332.767,552.349c-0.064,9.319 -0.128,18.638 -0.192,27.957c-0.01,1.462 1.8,0.541 1.808,-0.529c0.064,-9.319 0.128,-18.638 0.192,-27.957c0.01,-1.462 -1.8,-0.541 -1.808,0.529" style="fill:#fff;"/><path id="Fill-71" d="M190.926,552.339c-0.117,9.325 -0.234,18.648 -0.351,27.972c-0.018,1.452 1.635,0.536 1.649,-0.524c0.117,-9.325 0.234,-18.648 0.351,-27.972c0.018,-1.452 -1.636,-0.536 -1.649,0.524" style="fill:#fff;"/><path id="Fill-72" d="M350.575,580.315c0.118,9.004 0.235,18.007 0.352,27.01c0.019,1.423 1.661,0.529 1.648,-0.514c-0.118,-9.004 -0.235,-18.007 -0.352,-27.01c-0.019,-1.423 -1.662,-0.529 -1.648,0.514" style="fill:#fff;"/><path id="Fill-73" d="M312.575,580.34c0.064,9.324 0.129,18.647 0.194,27.97c0.01,1.453 1.813,0.539 1.806,-0.524c-0.065,-9.324 -0.129,-18.647 -0.194,-27.97c-0.01,-1.453 -1.814,-0.539 -1.806,0.524" style="fill:#fff;"/><path id="Fill-74" d="M277.782,580.311c-0.069,9.006 -0.138,18.012 -0.207,27.017c-0.011,1.419 1.785,0.525 1.793,-0.512c0.069,-9.006 0.138,-18.013 0.207,-27.018c0.011,-1.419 -1.785,-0.525 -1.793,0.513" style="fill:#fff;"/><path id="Fill-75" d="M242.006,580.31c-0.144,9.007 -0.287,18.013 -0.431,27.018c-0.022,1.419 1.553,0.524 1.569,-0.512c0.144,-9.006 0.288,-18.013 0.431,-27.019c0.023,-1.418 -1.552,-0.523 -1.569,0.513" style="fill:#fff;"/><path id="Fill-76" d="M207.781,580.349c-0.069,9.318 -0.138,18.638 -0.206,27.956c-0.011,1.463 1.786,0.542 1.794,-0.529c0.069,-9.318 0.137,-18.637 0.206,-27.956c0.011,-1.462 -1.786,-0.541 -1.794,0.529" style="fill:#fff;"/><path id="Fill-77" d="M170.575,580.315l-0,27.01c-0,1.424 2,0.528 2,-0.514l-0,-27.01c-0,-1.424 -2,-0.528 -2,0.514" style="fill:#fff;"/><path id="Fill-78" d="M332.863,608.319c-0.096,9.001 -0.193,18.003 -0.288,27.004c-0.015,1.429 1.701,0.528 1.712,-0.517c0.096,-9.001 0.192,-18.001 0.288,-27.003c0.015,-1.429 -1.701,-0.528 -1.712,0.516" style="fill:#fff;"/><path id="Fill-79" d="M296.575,608.328c0.117,8.997 0.234,17.993 0.351,26.99c0.019,1.438 1.663,0.534 1.649,-0.52c-0.117,-8.997 -0.234,-17.993 -0.351,-26.99c-0.019,-1.438 -1.663,-0.534 -1.649,0.52" style="fill:#fff;"/><path id="Fill-80" d="M260.575,608.34c0.118,9.324 0.235,18.647 0.352,27.971c0.019,1.451 1.661,0.539 1.648,-0.525c-0.118,-9.324 -0.235,-18.647 -0.352,-27.971c-0.019,-1.451 -1.661,-0.539 -1.648,0.525" style="fill:#fff;"/><path id="Fill-81" d="M224.575,608.315l0.016,27.011c0.001,1.423 1.985,0.527 1.984,-0.515c-0.005,-9.004 -0.011,-18.007 -0.016,-27.011c-0.001,-1.423 -1.985,-0.527 -1.984,0.515" style="fill:#fff;"/><path id="Fill-82" d="M188.768,608.315c-0.064,9.004 -0.129,18.007 -0.193,27.011c-0.01,1.423 1.799,0.527 1.807,-0.515c0.064,-9.004 0.129,-18.007 0.193,-27.011c0.01,-1.423 -1.799,-0.527 -1.807,0.515" style="fill:#fff;"/><path id="Fill-83" d="M279.575,636.329c0.059,8.996 0.118,17.992 0.178,26.988c0.009,1.44 1.829,0.534 1.822,-0.52c-0.059,-8.996 -0.118,-17.992 -0.178,-26.988c-0.009,-1.439 -1.829,-0.534 -1.822,0.52" style="fill:#fff;"/><path id="Fill-84" d="M316.575,636.315l0,27.01c0,1.424 2,0.528 2,-0.514l0,-27.01c0,-1.424 -2,-0.528 -2,0.514" style="fill:#fff;"/><path id="Fill-85" d="M352.575,635.349c0.064,9.319 0.128,18.638 0.192,27.956c0.01,1.463 1.815,0.542 1.808,-0.528c-0.064,-9.319 -0.128,-18.638 -0.192,-27.956c-0.01,-1.463 -1.815,-0.542 -1.808,0.528" style="fill:#fff;"/><path id="Fill-86" d="M241.575,636.324l-0,26.996c-0,1.434 2,0.531 2,-0.518l-0,-26.996c-0,-1.434 -2,-0.531 -2,0.518" style="fill:#fff;"/><path id="Fill-87" d="M206.575,635.349l-0,27.956c-0,1.463 2,0.542 2,-0.528l-0,-27.956c-0,-1.463 -2,-0.542 -2,0.528" style="fill:#fff;"/><path id="Fill-88" d="M169.767,636.323c-0.064,9 -0.128,17.999 -0.192,26.998c-0.01,1.433 1.8,0.53 1.808,-0.518c0.064,-9 0.128,-17.999 0.192,-26.998c0.01,-1.433 -1.8,-0.53 -1.808,0.518" style="fill:#fff;"/><path id="Fill-89" d="M188.575,663.305c0.028,7.676 0.057,15.351 0.086,23.026c0.005,1.412 1.918,0.524 1.914,-0.51c-0.029,-7.676 -0.057,-15.351 -0.086,-23.026c-0.005,-1.412 -1.918,-0.524 -1.914,0.51" style="fill:#fff;"/><path id="Fill-90" d="M225.575,663.352c0.113,8.317 0.227,16.634 0.34,24.951c0.02,1.466 1.674,0.545 1.66,-0.529c-0.114,-8.318 -0.227,-16.635 -0.34,-24.952c-0.021,-1.465 -1.675,-0.544 -1.66,0.53" style="fill:#fff;"/><path id="Fill-91" d="M262.864,663.337c-0.096,8.325 -0.193,16.65 -0.289,24.976c-0.017,1.448 1.699,0.535 1.711,-0.523c0.096,-8.327 0.193,-16.652 0.289,-24.977c0.017,-1.448 -1.699,-0.535 -1.711,0.524" style="fill:#fff;"/><path id="Fill-92" d="M298.575,663.319c0.064,8.001 0.129,16.003 0.194,24.004c0.012,1.428 1.815,0.53 1.806,-0.516c-0.065,-8.001 -0.129,-16.003 -0.194,-24.004c-0.012,-1.428 -1.815,-0.53 -1.806,0.516" style="fill:#fff;"/><path id="Fill-93" d="M336.863,663.325c-0.096,7.665 -0.193,15.33 -0.288,22.995c-0.018,1.435 1.699,0.53 1.712,-0.519c0.096,-7.665 0.192,-15.33 0.288,-22.995c0.018,-1.435 -1.699,-0.53 -1.712,0.519" style="fill:#fff;"/><path id="Fill-94" d="M153.207,688.04c30.343,0.082 60.677,1.204 91.014,1.737c14.096,0.248 28.201,0.418 42.298,0.15c15.278,-0.291 30.523,-1.487 45.801,-1.899c12.31,-0.332 24.65,-0.818 36.963,-0.861c1.015,-0.004 1.956,-2.109 0.661,-2.104c-32.017,0.112 -63.961,2.83 -95.965,2.888c-30.803,0.057 -61.6,-1.057 -92.393,-1.664c-9.239,-0.182 -18.478,-0.326 -27.719,-0.351c-1.016,-0.002 -1.957,2.1 -0.66,2.104" style="fill:#fff;"/><path id="Fill-95" d="M326.339,502.129c20.478,-6.196 60.608,-2.686 64.779,7.691c2.65,6.593 -6.643,14.728 -17.117,23.545c-0,0 -15.012,13.137 -19.073,17.731c-9.421,10.653 -2.675,14.58 -5.863,21.621c-0,0 -7.589,-12.559 -4.319,-20.257c-6.543,9.928 -16.03,20.81 -23.092,30.645c-12.308,17.142 -2.327,20.523 -3.956,27.958c-11.17,-11.54 -9.308,-18.51 -9.308,-18.51l-1.784,2.711l-3.435,-4.734c-0,0 17.69,-39.164 23.427,-48.55c-17.872,-2.271 -53.213,-11.772 -34.906,-40.892" style="fill:#fff;"/><path id="Fill-96" d="M229.618,516.063c-2.498,3.13 -6.17,1.62 -11.27,2.753c-3.599,0.8 -6.181,2.818 -6.714,4.555c-1.357,0.446 -3.27,1.357 -3.04,2.299c0.218,0.9 1.901,0.667 2.653,0.542c1.133,-0.189 4.457,-0.74 7.458,-1.349c3.501,-0.711 5.151,-0.648 5.151,-0.648c-0.329,0.197 -3.774,1.728 -3.06,3.509c0.671,1.675 14.688,-3.024 16.779,-10.474l-7.957,-1.187Z"/><path id="Fill-97" d="M306.332,510.728c7.282,2.135 14.536,4.373 21.618,7.113c6.301,2.44 12.709,5.33 17.833,9.833c3.984,3.5 5.611,7.828 4.292,12.996c-1.553,6.086 -5.547,11.637 -9.148,16.651c-4.085,5.689 -8.535,11.108 -12.872,16.601c-4.359,5.519 -9.073,11.111 -11.978,17.574c-1.645,3.66 -2.3,7.586 -1.377,11.519c0.73,3.113 2.44,5.916 1.812,9.212c0.57,-0.384 1.139,-0.767 1.709,-1.15c-3.697,-3.916 -10.499,-11.955 -9.093,-17.618c0.347,-1.398 -1.176,-1.082 -1.708,-0.271c-0.591,0.904 -1.183,1.807 -1.775,2.711c0.56,-0.15 1.12,-0.301 1.68,-0.451c-1.125,-1.559 -2.25,-3.118 -3.374,-4.675c0.269,0.373 -0.34,1.391 0.096,0.424c0.254,-0.566 0.51,-1.13 0.765,-1.695c2.109,-4.662 4.239,-9.313 6.385,-13.958c5.016,-10.853 9.755,-22.139 15.931,-32.397c0.32,-0.531 0.201,-1.212 -0.468,-1.299c-10.238,-1.335 -21.038,-3.914 -29.727,-9.733c-4.166,-2.79 -7.677,-6.663 -8.98,-11.606c-1.682,-6.38 1.178,-12.917 4.448,-18.256c0.802,-1.309 -0.932,-1.613 -1.593,-0.534c-3.348,5.466 -5.891,11.635 -5.081,18.165c0.665,5.363 4.173,9.773 8.301,12.989c8.887,6.922 21.047,9.615 31.974,11.04c-0.156,-0.434 -0.311,-0.867 -0.467,-1.3c-5.254,8.725 -9.344,18.265 -13.647,27.481c-3.269,7 -6.493,14.023 -9.66,21.07c-0.123,0.273 -0.293,0.699 -0.086,0.986c1.139,1.579 2.278,3.158 3.418,4.736c0.507,0.704 1.332,0.076 1.678,-0.452c0.592,-0.904 1.184,-1.807 1.775,-2.711c-0.569,-0.089 -1.138,-0.18 -1.708,-0.269c-1.742,7.018 5.17,14.892 9.428,19.403c0.673,0.712 1.605,-0.604 1.709,-1.15c0.601,-3.15 -0.706,-5.909 -1.601,-8.854c-1.72,-5.667 0.505,-10.915 3.464,-15.745c7.71,-12.59 18.597,-23.002 26.458,-35.534c2.683,-4.278 5.166,-9.029 5.742,-14.12c0.525,-4.653 -1.961,-8.518 -5.234,-11.56c-4.583,-4.261 -10.69,-6.958 -16.392,-9.317c-7.615,-3.15 -15.544,-5.527 -23.442,-7.843c-0.997,-0.292 -2.223,1.666 -1.105,1.994"/><path id="Fill-98" d="M326.394,504.09c12.344,-3.659 25.944,-3.666 38.646,-2.302c5.875,0.629 11.795,1.715 17.341,3.803c3.774,1.421 8.548,3.803 8.332,8.503c-0.165,3.588 -3.332,6.849 -5.613,9.315c-3.469,3.75 -7.475,7.02 -11.364,10.314c-2.823,2.391 -5.538,4.924 -8.274,7.413c-7.618,6.931 -17.527,14.324 -16.489,25.75c0.228,2.507 0.305,4.737 -0.683,7.108c0.6,-0.239 1.202,-0.48 1.803,-0.719c-3.247,-5.461 -6.671,-13.344 -4.288,-19.647c0.54,-1.431 -1.437,-1.053 -1.833,-0.005c-2.576,6.817 0.832,15.184 4.346,21.096c0.528,0.887 1.569,-0.158 1.804,-0.72c1.915,-4.594 -0.146,-9.298 1.138,-13.97c1.617,-5.884 7.533,-10.491 11.832,-14.486c3.561,-3.311 7.18,-6.558 10.822,-9.778c5.131,-4.538 10.56,-8.778 14.893,-14.136c17.947,-22.199 -33.466,-23.034 -44.021,-22.452c-6.133,0.338 -12.316,1.157 -18.217,2.906c-0.993,0.295 -1.545,2.414 -0.175,2.007"/><path id="Fill-99" d="M368.506,513.216c-6.976,3.625 -12.637,8.938 -16.721,15.634c-0.815,1.334 0.958,1.645 1.63,0.544c3.764,-6.17 8.996,-11.01 15.42,-14.348c1.023,-0.531 1.051,-2.548 -0.329,-1.83"/><path id="Fill-100" d="M368.702,383.753c0.345,0.908 2.272,1.568 4.449,1.212c1.574,-0.258 3.183,-1.807 4.02,-3.04c0.702,-1.033 0.758,-2.19 1.338,-3.251c0.443,-0.812 1.114,-1.351 1.994,-1.876c0.725,-0.432 1.177,-0.782 1.051,-1.561c-0.51,-0.065 -0.597,-0.374 -0.9,-0.707c-0.72,-0.794 -1.341,-1.301 -2.354,-1.81c-1.05,-0.528 -3.286,-1.813 -4.628,-1.641c-1.656,0.212 -2.068,3.274 -2.281,4.354c-0.319,1.613 -0.495,3.195 -0.999,4.762c-0.299,0.928 -2.339,1.846 -1.69,3.558"/><path id="Fill-101" d="M376.915,349.007c1.462,-5.43 6.183,-11.739 12.94,-9.469c6.181,2.076 7.398,9.217 6.418,14.597c-1.347,7.4 -7.274,12.94 -11.097,19.205c-3.797,6.222 -5.686,3.58 -10.763,-0.216c-7.567,-5.653 -19.753,-13.085 -16.205,-22.213c3.7,-9.522 14.126,-8.797 18.707,-1.904" style="fill:#cf112b;"/><path id="Fill-102" d="M368.699,383.051c0.243,-1.657 0.493,-2.731 0.196,-4.451c-0.243,-1.4 -0.361,-2.722 -0.307,-4.157c0.066,-1.679 0.558,-2.984 1.76,-4.248c0.875,-0.921 2.633,-3.217 3.882,-3.807c1.492,-0.704 2.392,-0.256 2.343,1.265c-0.052,1.627 -2.254,3.823 -2.843,5.289c-1.201,2.983 0.833,6.069 -0.755,9.059c-0.778,1.464 -3.385,3.207 -4.276,1.05"/><path id="Fill-103" d="M312.38,440.063c0.178,-3.427 4.015,-2.021 5.233,-3.595c1.011,-1.304 0.007,-4.298 0.233,-5.645c2.029,-0.077 3.004,-0.708 3.017,-1.344c0.022,-1.137 -2.022,-1.214 -2.545,-2.059c-0.634,-1.024 -0.223,-2.779 0.141,-4.812c7.124,-0.594 14.622,-3.202 14.089,-5.011c-0.477,-1.629 -7.909,2.194 -13.933,2.18c-0.718,-2.466 -4.558,-6.044 -10.717,-4.21c-7.591,2.261 -6.407,12.177 -6.014,16.625c0.217,2.484 0.195,5.047 0.17,7.595"/><path id="Fill-104" d="M307.416,439.526c-8.692,0 -17.593,-1.444 -28.562,4.984c-14.982,8.78 -17.514,27.405 -27.009,39.182c-8.693,10.781 -28.987,29.788 -21.732,35.457c9.895,7.732 26.389,-9.642 36.323,-22.083c8.542,-10.698 17.592,-29.54 17.592,-29.54c3.695,3.931 2.374,23.118 9.4,31.095c6.985,7.931 26.651,9.497 31.977,2.488c5.11,-6.725 4.364,-23.171 9.176,-35.146c4.886,-12.159 23.75,-23.482 31.046,-36.389c6.612,-11.699 12.232,-29.714 12.948,-41.191c-0.137,-5.361 -3.039,-11.557 -8.561,-10.105c-5.522,1.451 -7.863,8.694 -9.777,12.878c-4.69,11.365 -5.095,13.294 -11.029,24.039c-3.865,6.784 -9.299,13.79 -15.936,18.638c-3.449,2.518 -12.351,5.693 -25.856,5.693" style="fill:#b57ee1;"/><path id="Fill-105" d="M176.952,324.396c3.68,-2.854 4.807,1.557 9.11,-4.403c3.912,-5.419 6.729,0.37 10.733,-3.751c4.58,-4.715 7.103,2.188 12.045,-2.501c5.221,-4.955 7.13,-1.153 9.806,-2.111c2.292,-0.821 2.986,-3.596 7.413,-3.804c3.292,-0.154 3.771,0.941 5.692,0.822c1.033,-3.721 2.703,-5.986 6.353,-7.074c6.208,-1.851 9.678,1.737 10.402,4.224c6.071,0.014 13.561,-3.841 14.042,-2.2c0.33,1.123 -2.402,2.503 -6.224,3.567c-1.152,0.322 -4.044,1.157 -8.103,1.708c-0.373,1.603 -0.912,3.107 -0.203,4.262c1.084,1.768 3.007,1.587 2.985,2.734c-0.013,0.642 -0.995,1.276 -3.04,1.356c-0.229,1.358 0.783,4.377 -0.234,5.691c-1.229,1.589 -5.095,0.171 -5.275,3.626l-9.594,-0c-3.72,2.798 -6.19,2.672 -9.736,1.345c-3.894,-1.457 -5.636,3.205 -10.192,1.798c-4.67,-1.443 -4.825,1.229 -9.111,2.65c-4.557,1.51 -4.435,-2.039 -10.964,0.234c-6.436,2.241 -6.67,-3.977 -11.017,-2.188c-4.508,1.855 -8.441,-3.23 -4.888,-5.985"/><path id="Fill-106" d="M227.402,449.077c-0.634,11.839 -1.033,30.956 -0.715,43.986l14.944,-0.073c1.48,-9.442 5.964,-34.182 7.944,-44.696l-22.029,-3.231c-0.036,1.505 -0.083,2.869 -0.144,4.014"/><path id="Fill-107" d="M189.991,470.018c-0.69,3.954 -2.634,15.041 -4.416,24.045l15.031,-0.076c4.687,-13.497 11.875,-34.578 16.969,-49.382l-23.338,-0.542c-1.769,10.569 -3.555,21.983 -4.246,25.955"/><path id="Fill-108" d="M285.878,424.063l-9.303,0.124c0.122,0.591 0.231,1.147 0.322,1.648c-0.27,1.955 -0.237,4.448 0.104,5.68c0.504,1.822 1.7,7.559 3.359,7.196c1.712,-0.373 -0.651,-5.55 0.387,-7.273c-0,-0 2.573,1.404 4.146,4.479c1.55,3.032 1.149,8.193 2.534,8.146c1.792,-0.063 1.337,-6.349 0.302,-9.2c1.677,2.177 1.88,6.368 2.925,6.33c1.622,-0.058 0.872,-5.22 -0.15,-6.735c1.284,1.347 1.644,4.116 2.683,3.704c1.512,-0.598 -1.764,-7.333 -3.502,-9.578c-1.197,-1.546 -3.048,-3.66 -3.807,-4.521"/><path id="Fill-109" d="M172.095,276.028c0.044,0.868 0.075,1.896 0.106,3.035l10.374,-2.156c-0.692,-2.15 -1.351,-4.233 -1.9,-6.034c0.083,-1.097 0.125,-2.022 0.18,-2.628c0.146,-1.66 -0.113,-3.011 -0.972,-4.417c-0.625,-1.024 -1.829,-3.522 -2.808,-4.269c-1.173,-0.894 -1.984,-0.576 -2.126,0.928c-0.035,0.375 0.028,0.795 0.142,1.24c-1.713,-1.78 -3.284,0.07 -3.249,1.296c-2.028,-0.62 -2.795,1.034 -2.344,3.153c-1.353,-0.465 -2.435,1.138 -1.668,3.31c0.665,1.887 2.824,4.733 4.265,6.542"/><path id="Fill-110" d="M234.593,388.063l19.982,-54.639c-5.91,-1.621 -11.751,-3.356 -11.751,-7.015l-10.137,-0c-2.875,-0.023 -6.173,0.094 -9.112,-0.346l11.018,62Z"/><path id="Fill-111" d="M241.874,492.063l-15.299,0c0.032,1.695 0.074,3.308 0.129,4.802c0.348,9.579 0.692,19.184 2.022,28.598l5.93,0.042l0.12,-3.01c7.811,4.531 18.799,3.457 18.799,3.457c-1.61,-3.327 -7.76,-2.967 -10.911,-6.116c-4.048,-4.045 -1.514,-18.984 -1.073,-23.907c0.114,-1.273 0.2,-2.566 0.283,-3.866" style="fill:#cf112b;"/><path id="Fill-112" d="M183.858,521.51l-0.495,3.012l6.153,0c-0,0 3.891,-13.341 6.031,-18.009c1.051,-2.293 3.685,-8.685 6.028,-14.45l-16.228,0c-1.184,5.909 -2.338,11.206 -3.074,13.407c-1.831,5.476 -3.5,10.12 -6.472,13.456c-2.783,3.124 -9.25,2.699 -11.226,6.028c5.125,0.307 12.536,0.192 19.283,-3.444" style="fill:#cf112b;"/><path id="Fill-113" d="M198.707,419.075l-10.132,27.882l68,7.106l-2.599,-31.744l-30.625,-6.256l-24.644,3.012Z" style="fill:#ec51ca;"/><path id="Fill-114" d="M287.794,425.957c1.541,-4.666 0.418,-16.619 -0.123,-20.574c-0.824,-6.026 -2.581,-11.791 -4.075,-17.663c-1.455,-5.866 -2.915,-11.73 -4.097,-17.659c-1.217,-6.105 -1.998,-12.233 -3.761,-18.22c-1.575,-5.348 -3.836,-10.14 -8.146,-13.806c-4.603,-3.917 -10.983,-4.81 -16.594,-6.461c-0.668,-0.197 -1.259,0.437 -1.474,0.999c-5.032,13.226 -10.066,26.452 -15.1,39.678c-2.429,-15.398 -4.86,-30.797 -7.289,-46.196c-0.053,-0.33 -0.315,-0.51 -0.631,-0.529c-6.889,-0.405 -13.003,-3.347 -18.826,-6.912c-4.728,-2.896 -9.634,-6.338 -11.688,-11.657c-3.484,-9.016 -4.359,-18.871 -8.672,-27.611c-0.942,-1.906 -2.179,-3.865 -3.819,-5.283l-12.269,2.424c-2.011,3.387 -2.484,7.681 -2.625,11.515c-0.226,6.175 0.835,12.397 2.499,18.321c2.991,10.645 8.541,20.14 17.189,27.093c4.324,3.476 9.104,6.396 14.001,8.984c3.176,1.678 6.748,3.586 10.372,4.164c-0.293,2.811 -1.686,5.837 -2.49,8.452c-1.87,6.08 -3.674,12.176 -5.295,18.326c-3.931,14.917 -7.638,30.471 -6.913,45.969c0.016,0.331 0.342,0.514 0.631,0.53c15.436,0.883 31.432,1.768 46.868,2.651c2.53,0.144 5.904,0.289 8.435,0.433c2.277,0.131 3.31,-3.995 3.85,-5.693c3.156,-9.926 1.767,-21.309 1.406,-31.578c-0.071,-1.977 -0.162,-3.955 -0.269,-5.932c0.377,1.836 0.756,3.673 1.151,5.506c2.088,9.69 4.393,19.472 8.161,28.667c1.533,3.74 4.362,10.331 8.784,12.168l10.809,-0.106Z" style="fill:#0145dd;"/><path id="Fill-115" d="M254.596,351.076c0.027,0.137 0.073,0.274 0.152,0.396c0.067,0.076 0.134,0.15 0.202,0.225c0.138,0.142 0.077,0.037 -0.185,-0.315c0.141,0.734 1.011,0.817 1.63,0.522c0.698,-0.333 1.302,-1.11 1.159,-1.853c-0.026,-0.139 -0.071,-0.276 -0.15,-0.396l-0.202,-0.227c-0.14,-0.141 -0.078,-0.037 0.183,0.316c-0.141,-0.735 -1.011,-0.816 -1.628,-0.522c-0.698,0.333 -1.303,1.11 -1.161,1.854"/><path id="Fill-116" d="M259.56,359.063c1.584,0 3.052,-3 1.03,-3c-1.583,0 -3.052,3 -1.03,3"/><path id="Fill-117" d="M262.151,351.876c-0.146,-0.026 -0.202,-0.161 -0.062,-0.03c0.101,0.097 0.245,0.168 0.382,0.192c0.789,0.14 1.482,-0.323 1.865,-1.02c0.176,-0.321 0.285,-0.71 0.22,-1.079c-0.047,-0.275 -0.254,-0.636 -0.557,-0.689c0.146,0.025 0.203,0.162 0.063,0.029c-0.102,-0.095 -0.244,-0.167 -0.383,-0.191c-0.788,-0.139 -1.483,0.323 -1.864,1.02c-0.176,0.322 -0.285,0.709 -0.222,1.08c0.049,0.275 0.256,0.634 0.558,0.688"/><path id="Fill-118" d="M255.187,342.874c-0.181,-0.031 -0.411,-0.38 -0.423,-0.525c0.054,0.805 1.083,0.833 1.64,0.553c0.766,-0.384 1.22,-1.149 1.167,-1.963c-0.024,-0.378 -0.371,-0.785 -0.762,-0.851c-0.837,-0.141 -1.575,0.325 -1.979,1.019c-0.187,0.322 -0.303,0.709 -0.236,1.079c0.053,0.276 0.271,0.635 0.593,0.688"/><path id="Fill-119" d="M261.56,344.063c1.584,0 3.052,-3 1.03,-3c-1.583,0 -3.052,3 -1.03,3"/><path id="Fill-120" d="M252.359,360.097c-0.968,0.147 -1.629,1.106 -1.771,1.959c-0.116,0.699 0.545,1.141 1.211,0.97c0.79,-0.201 1.327,-0.909 1.451,-1.652c0.005,-0.025 0.009,-0.051 0.012,-0.076c-0.077,0.231 -0.154,0.461 -0.231,0.693c-0.305,0.242 -0.608,0.487 -0.912,0.73c0.751,-0.113 1.388,-0.97 1.451,-1.652c0.028,-0.302 -0.052,-0.626 -0.305,-0.829c-0.273,-0.219 -0.58,-0.192 -0.906,-0.143"/><path id="Fill-121" d="M256.575,366.841l0,0.16c0,0.327 0.04,0.641 0.343,0.867c0.285,0.212 0.676,0.233 1.022,0.15c0.79,-0.187 1.635,-0.968 1.635,-1.732l0,-0.159c0,-0.329 -0.038,-0.641 -0.343,-0.869c-0.285,-0.213 -0.676,-0.232 -1.021,-0.15c-0.79,0.189 -1.636,0.969 -1.636,1.733"/><path id="Fill-122" d="M265.901,365.69c0.056,0.052 0.113,0.105 0.169,0.157c0.585,0.543 1.6,-0.057 1.998,-0.497c0.472,-0.522 0.768,-1.368 0.181,-1.914c-0.057,-0.051 -0.113,-0.104 -0.17,-0.157c-0.585,-0.543 -1.6,0.058 -1.997,0.498c-0.473,0.522 -0.768,1.368 -0.181,1.913"/><path id="Fill-123" d="M266.496,359.061c1.119,-0.067 1.878,-0.949 2.062,-1.94c0.138,-0.737 -0.587,-1.197 -1.283,-1.02c-0.848,0.215 -1.394,0.954 -1.54,1.735l-0.012,0.067c0.082,-0.242 0.165,-0.484 0.247,-0.726l-0.032,0.045c0.193,-0.218 0.386,-0.435 0.579,-0.652c-0.013,0.009 -0.028,0.018 -0.041,0.027l0.714,-0.356c-0.14,0.045 -0.05,0.036 0.269,-0.026c-0.841,0.05 -1.562,0.672 -1.815,1.419c-0.2,0.596 0.02,1.476 0.852,1.427"/><path id="Fill-124" d="M268.56,352.063c1.584,0 3.052,-3 1.03,-3c-1.583,0 -3.052,3 -1.03,3"/><path id="Fill-125" d="M268.56,344.063c1.584,0 3.052,-3 1.03,-3c-1.583,0 -3.052,3 -1.03,3"/><path id="Fill-126" d="M259.56,336.063c1.584,0 3.052,-3 1.03,-3c-1.583,0 -3.052,3 -1.03,3"/><path id="Fill-127" d="M266.56,339.063c1.584,0 3.052,-3 1.03,-3c-1.583,0 -3.052,3 -1.03,3"/><path id="Fill-128" d="M251.56,334.063c1.584,0 3.052,-3 1.03,-3c-1.583,0 -3.052,3 -1.03,3"/><path id="Fill-129" d="M248.901,340.69c0.056,0.052 0.113,0.105 0.169,0.157c0.585,0.543 1.6,-0.057 1.998,-0.497c0.472,-0.522 0.768,-1.368 0.181,-1.914c-0.057,-0.051 -0.113,-0.104 -0.17,-0.157c-0.585,-0.543 -1.6,0.058 -1.997,0.498c-0.473,0.522 -0.768,1.368 -0.181,1.913"/><path id="Fill-130" d="M246.579,348.188c0.026,0.376 0.372,0.785 0.763,0.85c0.835,0.14 1.575,-0.323 1.98,-1.02c0.186,-0.321 0.302,-0.71 0.233,-1.078c-0.051,-0.277 -0.269,-0.634 -0.592,-0.689c0.181,0.03 0.413,0.381 0.422,0.526c-0.053,-0.806 -1.08,-0.833 -1.638,-0.552c-0.766,0.383 -1.221,1.147 -1.168,1.963"/><path id="Fill-131" d="M247.56,355.063c1.584,0 3.052,-3 1.03,-3c-1.583,0 -3.052,3 -1.03,3"/><path id="Fill-132" d="M241.756,359.664c-0.004,0.414 -0.163,-0.035 0.335,-0.538c-0.435,0.44 -0.813,1.3 -0.181,1.752c0.634,0.454 1.558,-0.016 1.994,-0.455c0.39,-0.395 0.665,-0.879 0.671,-1.403c0.008,-0.646 -0.492,-1.097 -1.282,-0.917c-0.748,0.171 -1.528,0.871 -1.537,1.561"/><path id="Fill-133" d="M246.56,367.063c1.584,0 3.052,-3 1.03,-3c-1.583,0 -3.052,3 -1.03,3"/><path id="Fill-134" d="M239.56,370.063c1.584,0 3.052,-3 1.03,-3c-1.583,0 -3.052,3 -1.03,3"/><path id="Fill-135" d="M244.56,375.063c1.584,0 3.052,-3 1.03,-3c-1.583,0 -3.052,3 -1.03,3"/><path id="Fill-136" d="M251.575,372.67l-0,0.433c-0,0.296 0.04,0.579 0.343,0.783c0.285,0.193 0.676,0.211 1.022,0.136c0.79,-0.169 1.635,-0.875 1.635,-1.564l0,-0.434c0,-0.297 -0.038,-0.579 -0.343,-0.785c-0.285,-0.192 -0.676,-0.21 -1.021,-0.135c-0.79,0.17 -1.636,0.875 -1.636,1.566"/><path id="Fill-137" d="M258.56,376.063c1.584,0 3.052,-3 1.03,-3c-1.583,0 -3.052,3 -1.03,3"/><path id="Fill-138" d="M265.575,373.751l0,0.304c0,0.311 0.04,0.608 0.343,0.822c0.285,0.203 0.676,0.221 1.022,0.143c0.79,-0.178 1.635,-0.919 1.635,-1.644l0,-0.303c0,-0.312 -0.038,-0.609 -0.343,-0.825c-0.285,-0.202 -0.676,-0.22 -1.021,-0.142c-0.79,0.179 -1.636,0.919 -1.636,1.645"/><path id="Fill-139" d="M272.56,370.063c1.584,0 3.052,-3 1.03,-3c-1.583,0 -3.052,3 -1.03,3"/><path id="Fill-140" d="M272.56,364.063c1.584,0 3.052,-3 1.03,-3c-1.583,0 -3.052,3 -1.03,3"/><path id="Fill-141" d="M272.56,357.063c1.584,0 3.052,-3 1.03,-3c-1.583,0 -3.052,3 -1.03,3"/><path id="Fill-142" d="M275.414,349.291c0.006,-0.022 0.01,-0.045 0.014,-0.067c-0.083,0.241 -0.165,0.484 -0.248,0.726c0.011,-0.016 0.021,-0.031 0.032,-0.046c-0.193,0.218 -0.386,0.436 -0.578,0.654c0.013,-0.011 0.026,-0.02 0.039,-0.028c-0.236,0.119 -0.474,0.237 -0.713,0.355c0.14,-0.045 0.05,-0.036 -0.269,0.026c0.842,-0.05 1.562,-0.672 1.815,-1.42c0.201,-0.594 -0.021,-1.475 -0.852,-1.426c-1.119,0.066 -1.879,0.951 -2.062,1.942c-0.137,0.735 0.588,1.195 1.284,1.018c0.846,-0.214 1.394,-0.953 1.538,-1.734"/><path id="Fill-143" d="M277.56,361.063c1.584,0 3.052,-3 1.03,-3c-1.583,0 -3.052,3 -1.03,3"/><path id="Fill-144" d="M278.56,369.063c1.584,0 3.052,-3 1.03,-3c-1.583,0 -3.052,3 -1.03,3"/><path id="Fill-145" d="M276.56,376.063c1.584,0 3.052,-3 1.03,-3c-1.583,0 -3.052,3 -1.03,3"/><path id="Fill-146" d="M269.575,378.841l0,0.16c0,0.327 0.04,0.641 0.343,0.867c0.285,0.212 0.676,0.233 1.022,0.15c0.79,-0.187 1.635,-0.968 1.635,-1.732l0,-0.159c0,-0.329 -0.038,-0.641 -0.343,-0.869c-0.285,-0.213 -0.676,-0.232 -1.021,-0.15c-0.79,0.189 -1.636,0.969 -1.636,1.733"/><path id="Fill-147" d="M261.891,382.453c-0.053,-0.086 -0.108,-0.175 -0.162,-0.261c0.022,0.125 0.025,0.096 0.007,-0.088c0.005,0.296 0.037,0.577 0.325,0.783c0.27,0.192 0.64,0.21 0.967,0.135c0.743,-0.168 1.555,-0.875 1.547,-1.564c-0.005,-0.508 -0.102,-0.821 -0.494,-1.218c-0.214,-0.214 -0.69,-0.199 -0.966,-0.135c-0.412,0.093 -0.772,0.319 -1.041,0.592c-0.511,0.516 -0.722,1.214 -0.183,1.756"/><path id="Fill-148" d="M252.575,381.751l-0,0.304c-0,0.311 0.04,0.608 0.343,0.822c0.285,0.203 0.676,0.221 1.022,0.143c0.79,-0.178 1.635,-0.919 1.635,-1.644l0,-0.303c0,-0.312 -0.038,-0.609 -0.343,-0.825c-0.285,-0.202 -0.676,-0.22 -1.021,-0.142c-0.79,0.179 -1.636,0.919 -1.636,1.645"/><path id="Fill-149" d="M245.56,383.063c1.584,0 3.052,-3 1.03,-3c-1.583,0 -3.052,3 -1.03,3"/><path id="Fill-150" d="M239.56,382.063c1.584,0 3.052,-3 1.03,-3c-1.583,0 -3.052,3 -1.03,3"/><path id="Fill-151" d="M235.256,375.771c-0.056,0.052 -0.112,0.105 -0.168,0.159c-0.477,0.448 -0.779,1.452 -0.181,1.925c0.664,0.523 1.512,-0.053 1.988,-0.5c0.055,-0.053 0.112,-0.106 0.169,-0.158c0.475,-0.448 0.777,-1.454 0.178,-1.927c-0.662,-0.522 -1.511,0.055 -1.986,0.501"/><path id="Fill-152" d="M239.759,387.752l-0.012,0.064c0.081,-0.23 0.163,-0.461 0.245,-0.691c0.061,-0.084 0.121,-0.166 0.183,-0.248c-0.118,0.111 -0.216,0.236 -0.295,0.374c-0.171,0.265 -0.232,0.509 -0.289,0.806c-0.133,0.699 0.583,1.139 1.274,0.97c0.838,-0.204 1.384,-0.908 1.526,-1.652c0.005,-0.022 0.009,-0.044 0.013,-0.066c-0.082,0.232 -0.163,0.462 -0.246,0.693c-0.06,0.082 -0.121,0.165 -0.182,0.248c0.117,-0.111 0.215,-0.236 0.295,-0.376c0.171,-0.263 0.231,-0.509 0.287,-0.804c0.135,-0.701 -0.58,-1.139 -1.272,-0.971c-0.84,0.205 -1.384,0.909 -1.527,1.653"/><path id="Fill-153" d="M247.575,389.751l-0,0.304c-0,0.311 0.04,0.608 0.343,0.822c0.285,0.203 0.676,0.221 1.022,0.143c0.79,-0.178 1.635,-0.919 1.635,-1.644l0,-0.303c0,-0.312 -0.038,-0.609 -0.343,-0.825c-0.285,-0.202 -0.676,-0.22 -1.021,-0.142c-0.79,0.179 -1.636,0.919 -1.636,1.645"/><path id="Fill-154" d="M255.56,391.063c1.584,0 3.052,-3 1.03,-3c-1.583,0 -3.052,3 -1.03,3"/><path id="Fill-155" d="M267.575,388.841l0,0.16c0,0.327 0.04,0.641 0.343,0.867c0.285,0.212 0.676,0.233 1.022,0.15c0.79,-0.187 1.635,-0.968 1.635,-1.732l0,-0.159c0,-0.329 -0.038,-0.641 -0.343,-0.869c-0.285,-0.213 -0.676,-0.232 -1.021,-0.15c-0.79,0.189 -1.636,0.969 -1.636,1.733"/><path id="Fill-156" d="M275.56,384.063c1.584,0 3.052,-3 1.03,-3c-1.583,0 -3.052,3 -1.03,3"/><path id="Fill-157" d="M272.575,390.841l0,0.16c0,0.327 0.04,0.641 0.343,0.867c0.285,0.212 0.676,0.233 1.022,0.15c0.79,-0.187 1.635,-0.968 1.635,-1.732l0,-0.159c0,-0.329 -0.038,-0.641 -0.343,-0.869c-0.285,-0.213 -0.676,-0.232 -1.021,-0.15c-0.79,0.189 -1.636,0.969 -1.636,1.733"/><path id="Fill-158" d="M264.9,397.578c0.024,0.021 0.048,0.044 0.072,0.065c-0.176,-0.171 -0.251,-0.364 -0.226,-0.58c0.004,0.309 0.035,0.601 0.324,0.816c0.269,0.201 0.637,0.219 0.963,0.141c0.739,-0.175 1.551,-0.912 1.542,-1.631c-0.005,-0.48 -0.103,-0.769 -0.493,-1.119c-0.582,-0.522 -1.605,0.058 -2,0.477c-0.475,0.502 -0.766,1.306 -0.182,1.831"/><path id="Fill-159" d="M261.575,391.751l0,0.304c0,0.311 0.04,0.608 0.343,0.822c0.285,0.203 0.676,0.221 1.022,0.143c0.79,-0.178 1.635,-0.919 1.635,-1.644l0,-0.303c0,-0.312 -0.038,-0.609 -0.343,-0.825c-0.285,-0.202 -0.676,-0.22 -1.021,-0.142c-0.79,0.179 -1.636,0.919 -1.636,1.645"/><path id="Fill-160" d="M278.579,389.188c0.026,0.376 0.372,0.785 0.763,0.85c0.835,0.14 1.575,-0.323 1.98,-1.02c0.186,-0.321 0.302,-0.71 0.233,-1.078c-0.051,-0.277 -0.269,-0.634 -0.592,-0.689c0.181,0.03 0.413,0.381 0.422,0.526c-0.053,-0.806 -1.08,-0.833 -1.638,-0.552c-0.766,0.383 -1.221,1.147 -1.168,1.963"/><path id="Fill-161" d="M280.56,380.063c1.584,0 3.052,-3 1.03,-3c-1.583,0 -3.052,3 -1.03,3"/><path id="Fill-162" d="M242.575,396.751l-0,0.304c-0,0.311 0.04,0.608 0.343,0.822c0.285,0.203 0.676,0.221 1.022,0.143c0.79,-0.178 1.635,-0.919 1.635,-1.644l0,-0.303c0,-0.312 -0.038,-0.609 -0.343,-0.825c-0.285,-0.202 -0.676,-0.22 -1.021,-0.142c-0.79,0.179 -1.636,0.919 -1.636,1.645"/><path id="Fill-163" d="M251.56,400.063c1.584,0 3.052,-3 1.03,-3c-1.583,0 -3.052,3 -1.03,3"/><path id="Fill-164" d="M256.455,404.063l0.323,0c0.793,0 1.499,-0.746 1.727,-1.497c0.203,-0.666 -0.026,-1.503 -0.811,-1.503l-0.322,0c-0.793,0 -1.498,0.747 -1.727,1.496c-0.203,0.667 0.027,1.504 0.81,1.504"/><path id="Fill-165" d="M244.575,405.841l-0,0.16c-0,0.327 0.04,0.641 0.343,0.867c0.285,0.212 0.676,0.233 1.022,0.15c0.79,-0.187 1.635,-0.968 1.635,-1.732l0,-0.159c0,-0.329 -0.038,-0.641 -0.343,-0.869c-0.285,-0.213 -0.676,-0.232 -1.021,-0.15c-0.79,0.189 -1.636,0.969 -1.636,1.733"/><path id="Fill-166" d="M250.575,410.669c0.006,0.507 0.101,0.821 0.495,1.217c0.212,0.215 0.69,0.199 0.966,0.136c0.41,-0.093 0.771,-0.319 1.042,-0.592c0.51,-0.517 0.72,-1.213 0.18,-1.758c0.055,0.089 0.108,0.176 0.163,0.263c-0.022,-0.124 -0.025,-0.096 -0.008,0.089c-0.003,-0.298 -0.035,-0.578 -0.325,-0.785c-0.27,-0.192 -0.639,-0.21 -0.966,-0.135c-0.741,0.169 -1.555,0.876 -1.547,1.565"/><path id="Fill-167" d="M235.75,402.844c-0.008,0.111 0.012,0.017 0.057,-0.282c0.142,-0.239 0.284,-0.479 0.426,-0.718c-0.01,0.012 -0.02,0.025 -0.03,0.039c0.225,-0.175 0.449,-0.349 0.674,-0.523c0.08,-0.031 0.161,-0.063 0.243,-0.094c-0.797,0.133 -1.472,1.011 -1.54,1.739c-0.029,0.317 0.056,0.656 0.323,0.869c0.287,0.229 0.619,0.209 0.961,0.151c0.881,-0.147 1.654,-1.069 1.708,-1.898c0.049,-0.727 -0.523,-1.215 -1.283,-1.022c-0.78,0.199 -1.488,0.964 -1.539,1.739"/><path id="Fill-168" d="M235.56,397.063c1.584,0 3.052,-3 1.03,-3c-1.583,0 -3.052,3 -1.03,3"/><path id="Fill-169" d="M233.38,385.736c-0.106,0.1 -0.214,0.2 -0.319,0.301c-0.452,0.425 -0.738,1.38 -0.171,1.829c0.628,0.497 1.431,-0.051 1.882,-0.475c0.106,-0.101 0.212,-0.201 0.319,-0.301c0.45,-0.426 0.736,-1.381 0.169,-1.83c-0.627,-0.496 -1.431,0.051 -1.88,0.476"/><path id="Fill-170" d="M229.356,381.1c-0.164,0.029 -0.319,0.094 -0.462,0.179c-0.923,0.545 0.084,-0.008 0.142,-0.018c-0.755,0.132 -1.392,1.015 -1.456,1.742c-0.027,0.318 0.053,0.658 0.305,0.871c0.272,0.229 0.585,0.208 0.909,0.152c0.163,-0.028 0.318,-0.094 0.461,-0.178c0.924,-0.546 -0.084,0.007 -0.14,0.017c0.753,-0.131 1.392,-1.015 1.455,-1.741c0.028,-0.318 -0.052,-0.66 -0.306,-0.873c-0.271,-0.228 -0.584,-0.207 -0.908,-0.151"/><path id="Fill-171" d="M225.56,391.063c1.584,0 3.052,-3 1.03,-3c-1.583,0 -3.052,3 -1.03,3"/><path id="Fill-172" d="M229.779,394.441c0.262,-0.224 0.126,-0.077 0.012,-0.017c-0.167,0.086 -0.322,0.199 -0.465,0.322c-0.497,0.426 -0.986,1.248 -0.628,1.911c0.351,0.649 1.223,0.414 1.672,0.029c-0.261,0.224 -0.124,0.076 -0.01,0.017c0.166,-0.087 0.322,-0.199 0.463,-0.322c0.498,-0.427 0.987,-1.248 0.629,-1.912c-0.35,-0.649 -1.223,-0.414 -1.673,-0.028"/><path id="Fill-173" d="M221.38,395.702c-0.136,0.142 -0.249,0.299 -0.36,0.459c-0.075,0.105 -0.229,0.257 0.041,-0.028c-0.412,0.436 -0.764,1.297 -0.171,1.745c0.601,0.453 1.467,-0.016 1.881,-0.453c0.135,-0.144 0.249,-0.3 0.36,-0.46c0.073,-0.105 0.228,-0.257 -0.041,0.029c0.412,-0.436 0.763,-1.297 0.169,-1.747c-0.599,-0.453 -1.467,0.018 -1.879,0.455"/><path id="Fill-174" d="M218.783,390.235c-0.083,0 -0.164,-0.001 -0.247,-0.005c0.17,0.039 0.203,0.042 0.097,0.007c0.151,0.104 0.18,0.115 0.089,0.035c-0.528,-0.517 -1.347,0.03 -1.708,0.503c-0.382,0.5 -0.683,1.417 -0.155,1.934c0.313,0.304 0.7,0.353 1.099,0.354c0.713,0.001 1.349,-0.705 1.554,-1.41c0.183,-0.63 -0.024,-1.415 -0.729,-1.418"/><path id="Fill-175" d="M227.746,405.595c0.048,-0.376 0.048,-0.196 -0.019,-0.058c-0.094,0.191 -0.137,0.405 -0.15,0.61c-0.041,0.625 0.519,1.047 1.284,0.879c0.775,-0.17 1.494,-0.83 1.538,-1.496c0.017,-0.251 -0.122,0.247 0.021,-0.045c0.079,-0.163 0.127,-0.332 0.148,-0.507c0.079,-0.631 -0.545,-1.041 -1.283,-0.88c-0.803,0.176 -1.454,0.827 -1.539,1.497"/><path id="Fill-176" d="M234.756,412.67c0.054,-0.148 0.108,-0.294 0.162,-0.441c-0.077,0.133 -0.145,0.267 -0.208,0.404c-0.066,0.151 -0.095,0.312 -0.122,0.472c-0.115,0.664 0.569,1.087 1.276,0.923c0.826,-0.191 1.409,-0.865 1.53,-1.571c-0.052,0.146 -0.106,0.294 -0.16,0.44c0.075,-0.132 0.144,-0.267 0.207,-0.404c0.066,-0.152 0.094,-0.312 0.121,-0.471c0.115,-0.666 -0.568,-1.087 -1.276,-0.924c-0.826,0.192 -1.408,0.865 -1.53,1.572"/><path id="Fill-177" d="M242.373,413.677c-0.451,0.391 -0.759,0.923 -0.796,1.476c-0.041,0.621 0.491,1.04 1.213,0.873c0.734,-0.168 1.41,-0.825 1.454,-1.488c0.003,-0.028 0.004,-0.057 0.006,-0.087c-0.036,0.231 -0.141,0.433 -0.316,0.605c0.045,-0.052 0.103,-0.097 0.155,-0.142c0.45,-0.39 0.74,-1.26 0.17,-1.671c-0.627,-0.452 -1.436,0.045 -1.886,0.434"/><path id="Fill-178" d="M249.56,420.063c1.584,0 3.052,-3 1.03,-3c-1.583,0 -3.052,3 -1.03,3"/><path id="Fill-179" d="M255.56,418.063c1.584,0 3.052,-3 1.03,-3c-1.583,0 -3.052,3 -1.03,3"/><path id="Fill-180" d="M258.383,412.666c-0.137,0.071 -0.274,0.144 -0.412,0.215c-0.191,0.022 -0.222,0.031 -0.09,0.026c0.75,-0.008 1.411,-0.703 1.629,-1.419c0.189,-0.625 -0.025,-1.431 -0.765,-1.425c-0.533,0.006 -1.005,0.198 -1.414,0.562c-0.503,0.446 -0.991,1.314 -0.633,2.011c0.354,0.684 1.23,0.434 1.685,0.03"/><path id="Fill-181" d="M257.455,398.063l0.323,0c0.793,0 1.499,-0.746 1.727,-1.497c0.203,-0.666 -0.026,-1.503 -0.811,-1.503l-0.322,0c-0.793,0 -1.498,0.747 -1.727,1.496c-0.203,0.667 0.027,1.504 0.81,1.504"/><path id="Fill-182" d="M272.56,399.063c1.584,0 3.052,-3 1.03,-3c-1.583,0 -3.052,3 -1.03,3"/><path id="Fill-183" d="M278.901,397.69c0.056,0.052 0.113,0.105 0.169,0.157c0.585,0.543 1.6,-0.057 1.998,-0.497c0.472,-0.522 0.768,-1.368 0.181,-1.914c-0.057,-0.051 -0.113,-0.104 -0.17,-0.157c-0.585,-0.543 -1.6,0.058 -1.997,0.498c-0.473,0.522 -0.768,1.368 -0.181,1.913"/><path id="Fill-184" d="M284.56,395.063c1.584,0 3.052,-3 1.03,-3c-1.583,0 -3.052,3 -1.03,3"/><path id="Fill-185" d="M284.701,402.151c0.063,0.103 0.13,0.201 0.2,0.3c0.171,0.24 0.005,-0.117 0.019,-0.001c0.084,0.68 0.995,0.723 1.545,0.473c0.698,-0.318 1.186,-0.99 1.1,-1.678c-0.037,-0.306 -0.262,-0.549 -0.421,-0.812c-0.368,-0.605 -1.297,-0.362 -1.776,-0.025c-0.543,0.382 -1.032,1.14 -0.667,1.743"/><path id="Fill-186" d="M274.891,404.453c-0.053,-0.086 -0.108,-0.175 -0.162,-0.261c0.022,0.125 0.025,0.096 0.007,-0.088c0.005,0.296 0.037,0.577 0.325,0.783c0.27,0.192 0.64,0.21 0.967,0.135c0.743,-0.168 1.555,-0.875 1.547,-1.564c-0.005,-0.508 -0.102,-0.821 -0.494,-1.218c-0.214,-0.214 -0.69,-0.199 -0.966,-0.135c-0.412,0.093 -0.772,0.319 -1.041,0.592c-0.511,0.517 -0.722,1.214 -0.183,1.756"/><path id="Fill-187" d="M267.247,404.704c-0.391,0.394 -0.667,0.877 -0.672,1.403c-0.007,0.646 0.491,1.097 1.282,0.916c0.747,-0.17 1.529,-0.871 1.536,-1.561c0.005,-0.413 0.164,0.034 -0.333,0.539c0.434,-0.441 0.812,-1.301 0.179,-1.753c-0.633,-0.453 -1.557,0.015 -1.992,0.456"/><path id="Fill-188" d="M270.575,411.841l0,0.16c0,0.327 0.04,0.641 0.343,0.867c0.285,0.212 0.676,0.233 1.022,0.15c0.79,-0.187 1.635,-0.968 1.635,-1.732l0,-0.159c0,-0.329 -0.038,-0.641 -0.343,-0.869c-0.285,-0.213 -0.676,-0.232 -1.021,-0.15c-0.79,0.189 -1.636,0.969 -1.636,1.733"/><path id="Fill-189" d="M279.596,408.076c0.027,0.139 0.073,0.274 0.152,0.396c0.067,0.076 0.134,0.15 0.202,0.225c0.138,0.142 0.077,0.037 -0.185,-0.315c0.141,0.734 1.011,0.817 1.63,0.522c0.698,-0.333 1.302,-1.11 1.159,-1.853c-0.026,-0.139 -0.071,-0.276 -0.15,-0.396l-0.202,-0.227c-0.14,-0.141 -0.078,-0.037 0.183,0.316c-0.141,-0.735 -1.011,-0.816 -1.628,-0.522c-0.698,0.333 -1.303,1.11 -1.161,1.854"/><path id="Fill-190" d="M285.584,410.96c0.065,0.543 0.531,0.816 0.989,1.047c0.268,0.135 0.698,-0 0.938,-0.12c0.351,-0.176 0.644,-0.46 0.837,-0.79c0.167,-0.286 0.271,-0.632 0.209,-0.96c-0.059,-0.32 -0.246,-0.47 -0.531,-0.614c0.187,0.094 -0.034,-0.036 -0.063,-0.059c0.056,0.043 0.153,0.372 0.137,0.239c-0.083,-0.709 -0.943,-0.756 -1.468,-0.493c-0.662,0.33 -1.13,1.033 -1.048,1.75"/><path id="Fill-191" d="M276.575,415.751l0,0.304c0,0.311 0.04,0.608 0.343,0.822c0.285,0.203 0.676,0.221 1.022,0.143c0.79,-0.178 1.635,-0.919 1.635,-1.644l0,-0.303c0,-0.312 -0.038,-0.609 -0.343,-0.825c-0.285,-0.202 -0.676,-0.22 -1.021,-0.142c-0.79,0.179 -1.636,0.919 -1.636,1.645"/><path id="Fill-192" d="M270.575,419.751l0,0.304c0,0.311 0.04,0.608 0.343,0.822c0.285,0.203 0.676,0.221 1.022,0.143c0.79,-0.178 1.635,-0.919 1.635,-1.644l0,-0.303c0,-0.312 -0.038,-0.609 -0.343,-0.825c-0.285,-0.202 -0.676,-0.22 -1.021,-0.142c-0.79,0.179 -1.636,0.919 -1.636,1.645"/><path id="Fill-193" d="M275.695,424.601c0.153,0.339 -0.031,-0.206 0.033,0.138c0.012,0.074 0.02,0.15 0.024,0.224c-0.008,-0.168 -0.011,-0.175 -0.008,-0.018c0.001,0.346 0.037,0.674 0.324,0.913c0.269,0.223 0.638,0.244 0.964,0.158c0.744,-0.197 1.546,-1.02 1.543,-1.823c-0.001,-0.605 -0.038,-1.118 -0.29,-1.677c-0.344,-0.763 -1.41,-0.413 -1.883,-0.031c-0.609,0.491 -1.05,1.355 -0.707,2.116"/><path id="Fill-194" d="M282.56,423.063c1.584,0 3.052,-3 1.03,-3c-1.583,0 -3.052,3 -1.03,3"/><path id="Fill-195" d="M286.901,419.69c0.056,0.052 0.113,0.105 0.169,0.157c0.585,0.543 1.6,-0.057 1.998,-0.497c0.472,-0.522 0.768,-1.368 0.181,-1.914c-0.057,-0.051 -0.113,-0.104 -0.17,-0.157c-0.585,-0.543 -1.6,0.058 -1.997,0.498c-0.473,0.522 -0.768,1.368 -0.181,1.913"/><path id="Fill-196" d="M285.591,424.978c0.026,0.145 0.093,0.279 0.153,0.415c0.013,0.025 0.026,0.049 0.04,0.073c0.063,0.114 0.055,0.097 -0.023,-0.05c0.122,0.706 1.028,0.771 1.635,0.497c0.714,-0.324 1.285,-1.051 1.162,-1.765c-0.025,-0.145 -0.092,-0.279 -0.15,-0.416c-0.014,-0.024 -0.028,-0.048 -0.042,-0.073c-0.062,-0.114 -0.054,-0.097 0.023,0.051c-0.121,-0.705 -1.028,-0.771 -1.633,-0.496c-0.714,0.322 -1.286,1.049 -1.165,1.764"/><path id="Fill-197" d="M220.256,382.771c-0.056,0.052 -0.112,0.105 -0.168,0.159c-0.477,0.448 -0.779,1.452 -0.181,1.925c0.664,0.523 1.512,-0.053 1.988,-0.5c0.055,-0.053 0.112,-0.106 0.169,-0.158c0.475,-0.448 0.777,-1.454 0.178,-1.927c-0.662,-0.522 -1.511,0.055 -1.986,0.501"/><path id="Fill-198" d="M228.56,375.063c1.584,0 3.052,-3 1.03,-3c-1.583,0 -3.052,3 -1.03,3"/><path id="Fill-199" d="M220.575,404.841l-0,0.16c-0,0.327 0.04,0.641 0.343,0.867c0.285,0.212 0.676,0.233 1.022,0.15c0.79,-0.187 1.635,-0.968 1.635,-1.732l0,-0.159c0,-0.329 -0.038,-0.641 -0.343,-0.869c-0.285,-0.213 -0.676,-0.232 -1.021,-0.15c-0.79,0.189 -1.636,0.969 -1.636,1.733"/><path id="Fill-200" d="M222.575,412.841l-0,0.16c-0,0.327 0.04,0.641 0.343,0.867c0.285,0.212 0.676,0.233 1.022,0.15c0.79,-0.187 1.635,-0.968 1.635,-1.732l0,-0.159c0,-0.329 -0.038,-0.641 -0.343,-0.869c-0.285,-0.213 -0.676,-0.232 -1.021,-0.15c-0.79,0.189 -1.636,0.969 -1.636,1.733"/><path id="Fill-201" d="M228.575,415.596l-0,0.551c-0,0.283 0.04,0.553 0.343,0.747c0.285,0.184 0.676,0.201 1.022,0.13c0.79,-0.161 1.635,-0.835 1.635,-1.493l0,-0.551c0,-0.284 -0.038,-0.553 -0.343,-0.749c-0.285,-0.183 -0.676,-0.2 -1.021,-0.129c-0.79,0.163 -1.636,0.835 -1.636,1.494"/><path id="Fill-202" d="M235.575,419.67l-0,0.433c-0,0.296 0.04,0.579 0.343,0.783c0.285,0.193 0.676,0.211 1.022,0.136c0.79,-0.169 1.635,-0.875 1.635,-1.564l0,-0.434c0,-0.297 -0.038,-0.579 -0.343,-0.785c-0.285,-0.192 -0.676,-0.21 -1.021,-0.135c-0.79,0.17 -1.636,0.875 -1.636,1.566"/><path id="Fill-203" d="M242.75,421.761c-0.012,0.254 0.054,0.11 0.197,-0.433c0.194,-0.208 0.385,-0.415 0.578,-0.623c-0.015,0.011 -0.031,0.022 -0.047,0.034l0.715,-0.34c-0.024,0.003 -0.047,0.008 -0.072,0.012c-0.797,0.135 -1.472,0.957 -1.54,1.655c-0.072,0.737 0.539,1.099 1.285,0.972c0.957,-0.161 1.701,-1.11 1.709,-1.96c0.008,-0.685 -0.493,-1.163 -1.284,-0.973c-0.751,0.182 -1.533,0.924 -1.541,1.656"/><path id="Fill-204" d="M221.759,420.752l-0.012,0.064c0.081,-0.23 0.163,-0.461 0.245,-0.691c0.061,-0.084 0.121,-0.166 0.183,-0.248c-0.118,0.111 -0.216,0.236 -0.295,0.374c-0.171,0.265 -0.232,0.509 -0.289,0.806c-0.133,0.699 0.583,1.139 1.274,0.97c0.838,-0.204 1.384,-0.908 1.526,-1.652c0.005,-0.022 0.009,-0.044 0.013,-0.066c-0.082,0.232 -0.163,0.462 -0.246,0.693c-0.06,0.082 -0.121,0.165 -0.182,0.248c0.117,-0.111 0.215,-0.236 0.295,-0.376c0.171,-0.263 0.231,-0.509 0.287,-0.804c0.135,-0.701 -0.58,-1.139 -1.272,-0.971c-0.84,0.205 -1.384,0.909 -1.527,1.653"/><path id="Fill-205" d="M213.256,418.771c-0.056,0.052 -0.112,0.105 -0.168,0.159c-0.477,0.448 -0.779,1.452 -0.181,1.925c0.664,0.523 1.512,-0.053 1.988,-0.5c0.055,-0.053 0.112,-0.106 0.169,-0.158c0.475,-0.448 0.777,-1.454 0.178,-1.927c-0.662,-0.522 -1.511,0.055 -1.986,0.501"/><path id="Fill-206" d="M218.282,411.527c-0.195,-0.192 -0.429,-0.4 -0.708,-0.444c-0.752,-0.119 -1.405,0.295 -1.771,0.955c-0.168,0.301 -0.271,0.663 -0.211,1.01c0.045,0.253 0.243,0.598 0.53,0.644c0.112,0.026 0.103,0.011 -0.024,-0.046c0.086,0.056 0.157,0.139 0.228,0.209c0.528,0.522 1.436,-0.053 1.794,-0.479c0.422,-0.502 0.691,-1.324 0.162,-1.849"/><path id="Fill-207" d="M207.56,417.063c1.584,0 3.052,-3 1.03,-3c-1.583,0 -3.052,3 -1.03,3"/><path id="Fill-208" d="M200.375,417.738c-0.119,0.125 -0.222,0.261 -0.311,0.407c-0.172,0.239 -0.052,0.106 0.363,-0.4c0.225,-0.113 0.448,-0.225 0.673,-0.338c-0.022,0.004 -0.045,0.009 -0.068,0.012c-0.752,0.131 -1.389,0.951 -1.452,1.643c-0.027,0.3 0.053,0.621 0.304,0.822c0.27,0.215 0.586,0.199 0.908,0.142c0.309,-0.053 0.539,-0.215 0.791,-0.381c0.131,-0.099 0.245,-0.21 0.346,-0.334c0.08,-0.111 0.161,-0.222 0.242,-0.334c0.082,-0.124 0.054,-0.083 -0.082,0.126c0.415,-0.46 0.763,-1.371 0.169,-1.845c-0.603,-0.48 -1.468,0.02 -1.883,0.48"/><path id="Fill-209" d="M212.266,407.567c-0.106,-0.099 -0.214,-0.198 -0.321,-0.299c-0.553,-0.516 -1.514,0.055 -1.89,0.473c-0.448,0.497 -0.727,1.3 -0.172,1.818c0.108,0.1 0.214,0.199 0.321,0.299c0.553,0.516 1.514,-0.054 1.892,-0.472c0.446,-0.497 0.726,-1.3 0.17,-1.819"/><path id="Fill-210" d="M217.274,401.673c0.168,0.177 0.012,-0.038 -0.01,-0.077c-0.078,-0.134 -0.204,-0.241 -0.313,-0.356c-0.202,-0.214 -0.652,-0.199 -0.915,-0.136c-0.39,0.094 -0.732,0.319 -0.988,0.593c-0.481,0.513 -0.687,1.215 -0.173,1.756c-0.168,-0.177 -0.011,0.038 0.012,0.077c0.077,0.134 0.203,0.242 0.311,0.356c0.205,0.214 0.654,0.199 0.917,0.135c0.389,-0.092 0.732,-0.318 0.987,-0.591c0.482,-0.515 0.687,-1.216 0.172,-1.757"/><path id="Fill-211" d="M211.644,395.063l-0.17,0c-0.838,0 -1.583,0.747 -1.825,1.497c-0.214,0.666 0.029,1.503 0.856,1.503l0.171,0c0.838,0 1.584,-0.746 1.825,-1.496c0.214,-0.667 -0.028,-1.504 -0.857,-1.504"/><path id="Fill-212" d="M206.644,401.063l-0.17,0c-0.838,0 -1.583,0.747 -1.825,1.497c-0.214,0.666 0.029,1.503 0.856,1.503l0.171,0c0.838,0 1.584,-0.746 1.825,-1.496c0.214,-0.667 -0.028,-1.504 -0.857,-1.504"/><path id="Fill-213" d="M203.654,409.065c-1.119,0.067 -1.879,0.951 -2.062,1.942c-0.136,0.736 0.588,1.194 1.284,1.018c0.846,-0.214 1.394,-0.953 1.538,-1.734c0.005,-0.022 0.01,-0.045 0.014,-0.067c-0.083,0.241 -0.165,0.484 -0.248,0.726c0.011,-0.016 0.021,-0.03 0.032,-0.046c-0.193,0.218 -0.386,0.436 -0.578,0.654c0.013,-0.011 0.026,-0.02 0.039,-0.028c-0.236,0.119 -0.474,0.238 -0.713,0.355c0.14,-0.045 0.05,-0.036 -0.269,0.026c0.842,-0.05 1.562,-0.671 1.814,-1.419c0.202,-0.595 -0.019,-1.476 -0.851,-1.427"/><path id="Fill-214" d="M199.694,404.063l-0.322,0c-0.793,0 -1.498,0.747 -1.727,1.497c-0.203,0.666 0.027,1.503 0.81,1.503l0.323,0c0.793,0 1.499,-0.746 1.727,-1.496c0.203,-0.667 -0.026,-1.504 -0.811,-1.504"/><path id="Fill-215" d="M196.56,416.063c1.584,0 3.052,-3 1.03,-3c-1.583,0 -3.052,3 -1.03,3"/><path id="Fill-216" d="M202.554,397.051c-0.026,-0.139 -0.071,-0.275 -0.151,-0.396l-0.201,-0.227c-0.14,-0.141 -0.078,-0.037 0.183,0.316c-0.141,-0.735 -1.01,-0.816 -1.628,-0.522c-0.698,0.333 -1.304,1.11 -1.161,1.854c0.028,0.138 0.073,0.274 0.152,0.396c0.067,0.075 0.134,0.15 0.202,0.225c0.138,0.143 0.078,0.037 -0.185,-0.315c0.141,0.734 1.01,0.817 1.629,0.522c0.698,-0.333 1.303,-1.11 1.16,-1.853"/><path id="Fill-217" d="M207.275,389.534c0.167,0.184 0.021,0.003 -0.01,-0.036c-0.162,-0.194 -0.3,-0.361 -0.577,-0.41c-0.789,-0.138 -1.492,0.31 -1.872,0.96c-0.178,0.303 -0.286,0.667 -0.223,1.016c0.049,0.262 0.256,0.593 0.56,0.647c-0.29,-0.307 -0.375,-0.376 -0.254,-0.206c0.087,0.133 0.202,0.251 0.31,0.371c0.205,0.225 0.649,0.211 0.912,0.143c0.387,-0.098 0.729,-0.337 0.983,-0.626c0.478,-0.542 0.686,-1.289 0.171,-1.859"/><path id="Fill-218" d="M213.275,384.534c0.167,0.184 0.021,0.003 -0.01,-0.036c-0.162,-0.194 -0.3,-0.361 -0.577,-0.41c-0.789,-0.138 -1.492,0.31 -1.872,0.96c-0.178,0.303 -0.286,0.667 -0.223,1.016c0.049,0.262 0.256,0.593 0.56,0.647c-0.29,-0.307 -0.375,-0.376 -0.254,-0.206c0.087,0.133 0.202,0.251 0.31,0.371c0.205,0.225 0.649,0.211 0.912,0.143c0.387,-0.098 0.729,-0.337 0.983,-0.626c0.478,-0.542 0.686,-1.289 0.171,-1.859"/><path id="Fill-219" d="M221.694,374.063l-0.322,0c-0.793,0 -1.498,0.747 -1.727,1.497c-0.203,0.666 0.027,1.503 0.81,1.503l0.323,0c0.793,0 1.499,-0.746 1.727,-1.496c0.203,-0.667 -0.026,-1.504 -0.811,-1.504"/><path id="Fill-220" d="M212.56,380.063c1.584,0 3.052,-3 1.03,-3c-1.583,0 -3.052,3 -1.03,3"/><path id="Fill-221" d="M205.694,381.063l-0.322,0c-0.793,0 -1.498,0.747 -1.727,1.497c-0.203,0.666 0.027,1.503 0.81,1.503l0.323,0c0.793,0 1.499,-0.746 1.727,-1.496c0.203,-0.667 -0.026,-1.504 -0.811,-1.504"/><path id="Fill-222" d="M199.56,390.063c1.584,0 3.052,-3 1.03,-3c-1.583,0 -3.052,3 -1.03,3"/><path id="Fill-223" d="M205.899,374.753c-0.003,0.025 -0.008,0.05 -0.012,0.075c0.078,-0.23 0.155,-0.461 0.233,-0.693c0.303,-0.243 0.608,-0.486 0.912,-0.73c-0.751,0.114 -1.389,0.971 -1.452,1.653c-0.027,0.302 0.053,0.624 0.305,0.827c0.274,0.22 0.581,0.193 0.906,0.143c0.967,-0.146 1.629,-1.105 1.77,-1.957c0.118,-0.7 -0.545,-1.142 -1.21,-0.971c-0.789,0.202 -1.328,0.909 -1.452,1.653"/><path id="Fill-224" d="M214.654,369.065c-1.119,0.067 -1.879,0.951 -2.062,1.942c-0.136,0.735 0.588,1.195 1.284,1.018c0.846,-0.214 1.394,-0.953 1.538,-1.734c0.005,-0.022 0.01,-0.045 0.014,-0.067c-0.083,0.241 -0.165,0.484 -0.248,0.726c0.011,-0.016 0.021,-0.03 0.032,-0.046c-0.193,0.218 -0.386,0.436 -0.578,0.654c0.013,-0.011 0.026,-0.02 0.039,-0.028c-0.236,0.119 -0.474,0.237 -0.713,0.355c0.14,-0.045 0.05,-0.036 -0.269,0.026c0.842,-0.05 1.562,-0.671 1.814,-1.419c0.202,-0.595 -0.019,-1.476 -0.851,-1.427"/><path id="Fill-225" d="M222.56,369.063c1.584,0 3.052,-3 1.03,-3c-1.583,0 -3.052,3 -1.03,3"/><path id="Fill-226" d="M230.256,364.771c-0.056,0.052 -0.112,0.105 -0.168,0.159c-0.477,0.448 -0.779,1.452 -0.181,1.925c0.664,0.523 1.512,-0.053 1.988,-0.5c0.055,-0.053 0.112,-0.106 0.169,-0.158c0.475,-0.448 0.777,-1.454 0.178,-1.927c-0.662,-0.522 -1.511,0.055 -1.986,0.501"/><path id="Fill-227" d="M242.654,351.065c-1.119,0.067 -1.879,0.951 -2.062,1.942c-0.136,0.735 0.588,1.195 1.284,1.018c0.846,-0.214 1.394,-0.953 1.538,-1.734c0.005,-0.022 0.01,-0.045 0.014,-0.067c-0.083,0.241 -0.165,0.484 -0.248,0.726c0.011,-0.016 0.021,-0.03 0.032,-0.046c-0.193,0.218 -0.386,0.436 -0.578,0.654c0.013,-0.011 0.026,-0.02 0.039,-0.028c-0.236,0.119 -0.474,0.237 -0.713,0.355c0.14,-0.045 0.05,-0.036 -0.269,0.026c0.842,-0.05 1.562,-0.671 1.814,-1.419c0.202,-0.595 -0.019,-1.476 -0.851,-1.427"/><path id="Fill-228" d="M243.56,345.063c1.584,0 3.052,-3 1.03,-3c-1.583,0 -3.052,3 -1.03,3"/><path id="Fill-229" d="M230.661,349.423l0.454,-0.43c0.427,-0.405 0.699,-1.315 0.161,-1.743c-0.595,-0.472 -1.359,0.05 -1.786,0.454l-0.454,0.429c-0.428,0.406 -0.7,1.314 -0.162,1.742c0.596,0.473 1.358,-0.048 1.787,-0.452"/><path id="Fill-230" d="M232.25,358.374c0.005,-0.025 0.009,-0.051 0.013,-0.076c-0.078,0.231 -0.155,0.461 -0.233,0.693c-0.304,0.242 -0.607,0.487 -0.911,0.73c0.751,-0.113 1.388,-0.97 1.45,-1.652c0.029,-0.302 -0.051,-0.626 -0.304,-0.829c-0.273,-0.219 -0.58,-0.192 -0.906,-0.143c-0.967,0.147 -1.628,1.107 -1.771,1.959c-0.116,0.7 0.545,1.141 1.211,0.97c0.79,-0.201 1.328,-0.909 1.451,-1.652"/><path id="Fill-231" d="M225.654,353.065c-1.119,0.067 -1.879,0.951 -2.062,1.942c-0.136,0.735 0.588,1.195 1.284,1.018c0.846,-0.214 1.394,-0.953 1.538,-1.734c0.005,-0.022 0.01,-0.045 0.014,-0.067c-0.083,0.241 -0.165,0.484 -0.248,0.726c0.011,-0.016 0.021,-0.03 0.032,-0.046c-0.193,0.218 -0.386,0.436 -0.578,0.654c0.013,-0.011 0.026,-0.02 0.039,-0.028c-0.236,0.119 -0.474,0.237 -0.713,0.355c0.14,-0.045 0.05,-0.036 -0.269,0.026c0.842,-0.05 1.562,-0.671 1.814,-1.419c0.202,-0.595 -0.019,-1.476 -0.851,-1.427"/><path id="Fill-232" d="M223.256,360.771c-0.056,0.052 -0.112,0.105 -0.168,0.159c-0.477,0.448 -0.779,1.452 -0.181,1.925c0.664,0.523 1.512,-0.053 1.988,-0.5c0.055,-0.053 0.112,-0.106 0.169,-0.158c0.475,-0.448 0.777,-1.454 0.178,-1.927c-0.662,-0.522 -1.511,0.055 -1.986,0.501"/><path id="Fill-233" d="M216.739,361.063l-0.459,0c-0.752,0 -1.421,0.747 -1.639,1.497c-0.192,0.666 0.026,1.503 0.77,1.503l0.458,0c0.753,0 1.423,-0.746 1.64,-1.496c0.192,-0.667 -0.025,-1.504 -0.77,-1.504"/><path id="Fill-234" d="M208.739,364.063l-0.459,0c-0.752,0 -1.421,0.747 -1.639,1.497c-0.192,0.666 0.026,1.503 0.77,1.503l0.458,0c0.753,0 1.423,-0.746 1.64,-1.496c0.192,-0.667 -0.025,-1.504 -0.77,-1.504"/><path id="Fill-235" d="M210.644,356.063l-0.17,0c-0.838,0 -1.583,0.747 -1.825,1.497c-0.214,0.666 0.029,1.503 0.856,1.503l0.171,0c0.838,0 1.584,-0.746 1.825,-1.496c0.214,-0.667 -0.028,-1.504 -0.857,-1.504"/><path id="Fill-236" d="M219.296,353.678c-0.245,-0.241 -0.511,-0.399 -0.818,-0.56c-0.255,-0.133 -0.664,0.001 -0.891,0.12c-0.334,0.172 -0.613,0.454 -0.795,0.778c-0.16,0.283 -0.258,0.624 -0.2,0.949c0.057,0.315 0.233,0.465 0.504,0.606c-0.177,-0.093 0.101,0.08 0.135,0.107c0.072,0.057 0.139,0.125 0.204,0.189c0.501,0.492 1.367,-0.051 1.707,-0.451c0.403,-0.473 0.656,-1.243 0.154,-1.738"/><path id="Fill-237" d="M214.295,347.551c-0.308,-0.318 -0.668,-0.46 -1.1,-0.486c-0.705,-0.041 -1.358,0.698 -1.555,1.335c-0.191,0.625 0.033,1.299 0.73,1.341c-0.035,-0.009 -0.07,-0.017 -0.106,-0.025c0.113,0.044 0.101,0.029 -0.039,-0.046c0.077,0.049 0.142,0.123 0.205,0.187c0.503,0.517 1.369,-0.053 1.711,-0.475c0.403,-0.499 0.659,-1.312 0.154,-1.831"/><path id="Fill-238" d="M222.56,350.063c1.584,0 3.052,-3 1.03,-3c-1.583,0 -3.052,3 -1.03,3"/><path id="Fill-239" d="M227.895,342.355c0.055,-0.053 0.112,-0.106 0.168,-0.158c0.476,-0.448 0.778,-1.454 0.18,-1.927c-0.663,-0.522 -1.512,0.055 -1.987,0.501c-0.056,0.052 -0.112,0.105 -0.168,0.159c-0.477,0.448 -0.779,1.452 -0.18,1.925c0.663,0.523 1.511,-0.053 1.987,-0.5"/><path id="Fill-240" d="M218.644,340.063l-0.17,0c-0.838,0 -1.583,0.747 -1.825,1.497c-0.214,0.666 0.029,1.503 0.856,1.503l0.171,0c0.838,0 1.584,-0.746 1.825,-1.496c0.214,-0.667 -0.028,-1.504 -0.857,-1.504"/><path id="Fill-241" d="M223.448,335.399c-0.064,-0.134 -0.133,-0.266 -0.199,-0.398c-0.056,-0.135 -0.056,-0.117 0.002,0.053c-0.015,-0.07 -0.022,-0.141 -0.022,-0.213c-0.045,-0.88 -1.024,-0.906 -1.547,-0.603c-0.728,0.421 -1.149,1.25 -1.104,2.141c0.024,0.45 0.238,0.824 0.423,1.211c0.369,0.773 1.3,0.462 1.779,0.034c0.546,-0.489 1.034,-1.457 0.668,-2.225"/><path id="Fill-242" d="M226.986,331.913c0.453,-0.241 0.791,-0.545 1.151,-0.903c0.408,-0.408 0.666,-1.326 0.153,-1.758c-0.568,-0.477 -1.293,0.05 -1.701,0.457c0.351,-0.349 0.152,-0.15 0.069,-0.078c-0.111,0.085 -0.078,0.067 0.1,-0.054c-0.056,0.035 -0.114,0.067 -0.172,0.097c-0.595,0.313 -1.116,1.045 -0.993,1.746c0.124,0.691 0.863,0.772 1.393,0.493"/><path id="Fill-243" d="M214.694,334.063l-0.322,0c-0.793,0 -1.498,0.747 -1.727,1.497c-0.203,0.666 0.027,1.503 0.81,1.503l0.323,0c0.793,0 1.499,-0.746 1.727,-1.496c0.203,-0.667 -0.026,-1.504 -0.811,-1.504"/><path id="Fill-244" d="M219.575,329.365c-0.005,-0.5 -0.096,-1.162 -0.773,-1.277c-0.831,-0.139 -1.574,0.312 -1.973,0.96c-0.187,0.304 -0.302,0.668 -0.235,1.017c0.052,0.261 0.269,0.593 0.591,0.647c-0.315,-0.165 -0.461,-0.386 -0.434,-0.664c0.004,0.314 0.036,0.61 0.323,0.829c0.268,0.203 0.636,0.222 0.961,0.143c0.739,-0.178 1.548,-0.927 1.54,-1.655"/><path id="Fill-245" d="M209.644,342.063l-0.17,0c-0.838,0 -1.583,0.747 -1.825,1.497c-0.214,0.666 0.029,1.503 0.856,1.503l0.171,0c0.838,0 1.584,-0.746 1.825,-1.496c0.214,-0.667 -0.028,-1.504 -0.857,-1.504"/><path id="Fill-246" d="M208.644,336.063l-0.17,0c-0.838,0 -1.583,0.747 -1.825,1.497c-0.214,0.666 0.029,1.503 0.856,1.503l0.171,0c0.838,0 1.584,-0.746 1.825,-1.496c0.214,-0.667 -0.028,-1.504 -0.857,-1.504"/><path id="Fill-247" d="M201.644,339.063l-0.17,0c-0.838,0 -1.583,0.747 -1.825,1.497c-0.214,0.666 0.029,1.503 0.856,1.503l0.171,0c0.838,0 1.584,-0.746 1.825,-1.496c0.214,-0.667 -0.028,-1.504 -0.857,-1.504"/><path id="Fill-248" d="M203.296,333.678c-0.245,-0.241 -0.511,-0.399 -0.818,-0.56c-0.255,-0.133 -0.664,0.001 -0.891,0.12c-0.334,0.172 -0.613,0.454 -0.795,0.778c-0.16,0.283 -0.258,0.624 -0.2,0.949c0.057,0.315 0.233,0.465 0.504,0.606c-0.177,-0.093 0.101,0.08 0.135,0.107c0.072,0.057 0.139,0.125 0.204,0.189c0.501,0.492 1.367,-0.051 1.707,-0.451c0.403,-0.473 0.656,-1.243 0.154,-1.738"/><path id="Fill-249" d="M192.256,334.771c-0.056,0.052 -0.112,0.105 -0.168,0.159c-0.477,0.448 -0.779,1.452 -0.181,1.925c0.664,0.523 1.512,-0.053 1.988,-0.5c0.055,-0.053 0.112,-0.106 0.169,-0.158c0.475,-0.448 0.777,-1.454 0.178,-1.927c-0.662,-0.522 -1.511,0.055 -1.986,0.501"/><path id="Fill-250" d="M209.282,328.686l-0.457,-0.428c-0.525,-0.491 -1.437,0.053 -1.794,0.451c-0.425,0.473 -0.69,1.238 -0.163,1.731l0.456,0.427c0.526,0.492 1.438,-0.051 1.796,-0.449c0.424,-0.473 0.69,-1.239 0.162,-1.732"/><path id="Fill-251" d="M212.56,326.063c1.584,0 3.052,-3 1.03,-3c-1.583,0 -3.052,3 -1.03,3"/><path id="Fill-252" d="M208.558,320.148c-0.025,-0.145 -0.093,-0.279 -0.151,-0.415c-0.013,-0.025 -0.028,-0.049 -0.041,-0.073c-0.062,-0.114 -0.054,-0.097 0.023,0.05c-0.122,-0.706 -1.029,-0.771 -1.633,-0.497c-0.715,0.324 -1.286,1.05 -1.165,1.765c0.026,0.145 0.093,0.279 0.153,0.416c0.013,0.024 0.026,0.048 0.039,0.073c0.064,0.113 0.056,0.097 -0.022,-0.051c0.122,0.706 1.028,0.771 1.634,0.497c0.715,-0.322 1.286,-1.05 1.163,-1.765"/><path id="Fill-253" d="M202.998,325.401c-0.245,-0.037 0.212,0.184 0.238,0.346c-0.123,-0.743 -0.966,-0.817 -1.543,-0.525c-0.67,0.338 -1.224,1.11 -1.101,1.861c0.072,0.432 0.4,0.887 0.878,0.959c0.793,0.121 1.48,-0.298 1.866,-0.966c0.176,-0.304 0.285,-0.672 0.22,-1.022c-0.048,-0.257 -0.254,-0.606 -0.558,-0.653"/><path id="Fill-254" d="M193.998,327.401c-0.245,-0.037 0.212,0.184 0.238,0.346c-0.123,-0.743 -0.966,-0.817 -1.543,-0.525c-0.67,0.338 -1.224,1.11 -1.101,1.861c0.072,0.432 0.4,0.887 0.878,0.959c0.793,0.121 1.48,-0.298 1.866,-0.966c0.176,-0.304 0.285,-0.672 0.22,-1.022c-0.048,-0.257 -0.254,-0.606 -0.558,-0.653"/><path id="Fill-255" d="M197.558,322.171c-0.067,-0.38 -0.322,-0.645 -0.614,-0.91c-0.551,-0.499 -1.515,0.055 -1.89,0.455c-0.449,0.481 -0.724,1.251 -0.172,1.753c0.054,0.046 0.106,0.095 0.156,0.144c-0.07,-0.047 -0.113,-0.111 -0.128,-0.19c0.122,0.695 0.968,0.765 1.547,0.491c0.671,-0.316 1.223,-1.039 1.101,-1.743"/><path id="Fill-256" d="M201.575,315.375l-0,-0.303c-0,-0.313 -0.038,-0.609 -0.343,-0.823c-0.285,-0.203 -0.676,-0.221 -1.021,-0.143c-0.79,0.178 -1.636,0.919 -1.636,1.644l-0,0.304c-0,0.312 0.04,0.608 0.343,0.825c0.285,0.201 0.676,0.219 1.022,0.142c0.79,-0.18 1.635,-0.92 1.635,-1.646"/><path id="Fill-257" d="M186.817,329.064c-0.189,0.012 -0.378,0.044 -0.564,0.088c-0.099,0.023 -0.54,0.115 -0.131,0.072c-0.694,0.074 -1.279,0.651 -1.492,1.414c-0.16,0.576 0.015,1.495 0.7,1.421c0.16,-0.017 0.317,-0.038 0.472,-0.087c0.052,-0.018 0.104,-0.035 0.157,-0.051c0.061,-0.022 0.319,-0.036 0.067,-0.022c0.691,-0.041 1.286,-0.675 1.491,-1.414c0.167,-0.599 -0.017,-1.46 -0.7,-1.421"/><path id="Fill-258" d="M188.817,323.378c0.124,0.033 0.132,0.033 0.026,0.001c-0.048,-0.02 -0.094,-0.042 -0.14,-0.069c0.111,0.066 0.114,0.067 0.006,0.001c-0.104,-0.066 -0.21,-0.129 -0.317,-0.19c-0.244,-0.139 -0.632,0.001 -0.851,0.126c-0.318,0.183 -0.585,0.48 -0.759,0.823c-0.152,0.3 -0.246,0.66 -0.191,1.004c0.055,0.332 0.224,0.492 0.482,0.641c-0.087,-0.057 -0.083,-0.055 0.011,0.006c0.122,0.075 0.244,0.151 0.369,0.219c0.172,0.094 0.392,0.111 0.577,0.121c0.673,0.042 1.295,-0.698 1.482,-1.337c0.184,-0.629 -0.031,-1.306 -0.695,-1.346"/><path id="Fill-259" d="M180.785,322.063c-0.555,0.003 -1.055,0.17 -1.491,0.562c-0.485,0.435 -0.94,1.324 -0.602,2.012c0.341,0.692 1.164,0.422 1.603,0.028l-0.427,0.244c0.123,-0.032 0.094,-0.031 -0.088,0.004c0.06,-0.006 0.122,-0.005 0.182,-0.006c0.713,-0.003 1.344,-0.705 1.55,-1.418c0.182,-0.631 -0.023,-1.43 -0.727,-1.426"/><path id="Fill-260" d="M191.282,316.528c-0.195,-0.193 -0.429,-0.401 -0.708,-0.445c-0.752,-0.118 -1.405,0.294 -1.771,0.954c-0.168,0.302 -0.271,0.665 -0.211,1.01c0.045,0.254 0.243,0.6 0.53,0.645c0.112,0.026 0.103,0.012 -0.024,-0.045c0.086,0.054 0.157,0.138 0.228,0.209c0.528,0.521 1.436,-0.054 1.794,-0.481c0.422,-0.502 0.691,-1.324 0.162,-1.847"/><path id="Fill-261" d="M197.575,311.109l-0,-0.878c-0,-0.362 -0.038,-0.705 -0.343,-0.953c-0.285,-0.234 -0.676,-0.256 -1.021,-0.165c-0.79,0.206 -1.636,1.064 -1.636,1.903l-0,0.879c-0,0.361 0.04,0.704 0.343,0.954c0.285,0.234 0.676,0.254 1.022,0.165c0.79,-0.207 1.635,-1.064 1.635,-1.905"/><path id="Fill-262" d="M189.698,307.209c-0.262,-0.002 0.225,0.099 0.036,0.002c0.153,0.128 0.304,0.255 0.458,0.384c0.017,0.061 0.036,0.121 0.054,0.183c-0.143,-0.767 -0.953,-0.86 -1.547,-0.547c-0.656,0.345 -1.246,1.167 -1.102,1.943c0.116,0.622 0.598,0.884 1.189,0.889c0.788,0.008 1.493,-0.715 1.719,-1.423c0.204,-0.64 -0.028,-1.423 -0.807,-1.431"/><path id="Fill-263" d="M182.743,315.232c-0.124,-0.006 -0.101,0.002 0.065,0.027c0.125,0.098 0.133,0.101 0.024,0.009c-0.568,-0.503 -1.403,0.017 -1.793,0.503c-0.391,0.488 -0.731,1.436 -0.163,1.939c0.292,0.257 0.625,0.35 1.002,0.353c0.748,0.008 1.416,-0.71 1.63,-1.411c0.194,-0.636 -0.026,-1.412 -0.765,-1.42"/><path id="Fill-264" d="M183.282,308.686l-0.457,-0.427c-0.525,-0.492 -1.437,0.051 -1.794,0.449c-0.425,0.473 -0.69,1.239 -0.163,1.733l0.456,0.427c0.526,0.491 1.438,-0.052 1.796,-0.451c0.424,-0.472 0.69,-1.238 0.162,-1.731"/><path id="Fill-265" d="M174.724,311.063c-0.581,0 -1.169,0.03 -1.727,0.206c-0.731,0.228 -1.35,0.935 -1.418,1.729c-0.059,0.706 0.496,1.231 1.182,1.016c0.077,-0.026 0.155,-0.048 0.234,-0.067c0.364,-0.096 -0.226,0.01 0.141,-0.027c0.233,-0.023 0.469,-0.019 0.701,-0.021c0.768,0 1.45,-0.705 1.671,-1.414c0.195,-0.63 -0.026,-1.423 -0.784,-1.422"/><path id="Fill-266" d="M176.229,317.216c-0.243,0.129 0.241,-0.086 -0.084,0.036c-0.206,0.077 -0.409,0.168 -0.605,0.272c-0.576,0.304 -1.063,1.138 -0.948,1.861c0.121,0.757 0.818,0.795 1.33,0.525c0.244,-0.129 -0.241,0.086 0.084,-0.036c0.206,-0.077 0.408,-0.167 0.605,-0.272c0.576,-0.304 1.062,-1.137 0.947,-1.861c-0.121,-0.757 -0.817,-0.795 -1.329,-0.525"/><path id="Fill-267" d="M195.026,303.905c0.1,-0.231 0.197,-0.465 0.28,-0.705c0.036,-0.104 0.231,-0.604 0.043,-0.171c0.268,-0.613 0.442,-1.622 -0.341,-1.909c-0.719,-0.261 -1.587,0.423 -1.883,1.101c-0.101,0.232 -0.198,0.466 -0.28,0.706c-0.037,0.105 -0.232,0.603 -0.043,0.171c-0.268,0.613 -0.444,1.623 0.339,1.908c0.72,0.261 1.588,-0.421 1.885,-1.101"/><path id="Fill-268" d="M189.575,301.285l-0,-0.16c-0,-0.329 -0.038,-0.641 -0.343,-0.867c-0.285,-0.212 -0.676,-0.233 -1.021,-0.15c-0.79,0.187 -1.636,0.969 -1.636,1.732l-0,0.16c-0,0.329 0.04,0.641 0.343,0.869c0.285,0.212 0.676,0.231 1.022,0.149c0.79,-0.188 1.635,-0.968 1.635,-1.733"/><path id="Fill-269" d="M182.575,301.365c-0.005,-0.5 -0.096,-1.162 -0.773,-1.277c-0.831,-0.139 -1.574,0.312 -1.973,0.96c-0.187,0.304 -0.302,0.669 -0.235,1.016c0.052,0.263 0.269,0.593 0.591,0.648c-0.315,-0.164 -0.461,-0.387 -0.434,-0.665c0.004,0.316 0.036,0.612 0.323,0.83c0.268,0.203 0.636,0.221 0.961,0.143c0.739,-0.179 1.548,-0.927 1.54,-1.655"/><path id="Fill-270" d="M174.736,304.478c0.047,0.009 0.095,0.019 0.143,0.029c-0.116,-0.037 -0.088,-0.018 0.082,0.058c0.09,0.075 0.143,0.168 0.16,0.281c-0.011,-0.048 -0.016,-0.095 -0.016,-0.144c-0.036,-0.725 -0.982,-0.743 -1.476,-0.496c-0.697,0.348 -1.087,1.026 -1.052,1.76c0.035,0.69 0.614,1.067 1.288,1.096c0.746,0.034 1.433,-0.668 1.641,-1.288c0.202,-0.601 -0.033,-1.263 -0.77,-1.296"/><path id="Fill-271" d="M174.571,295.939c-0.024,-0.378 -0.371,-0.785 -0.762,-0.851c-0.837,-0.139 -1.575,0.324 -1.979,1.02c-0.188,0.322 -0.303,0.71 -0.235,1.079c0.051,0.275 0.271,0.633 0.592,0.688c-0.18,-0.03 -0.412,-0.381 -0.422,-0.526c0.053,0.806 1.082,0.833 1.639,0.553c0.766,-0.384 1.22,-1.148 1.167,-1.963"/><path id="Fill-272" d="M168.56,293.063c1.584,0 3.052,-3 1.03,-3c-1.583,0 -3.052,3 -1.03,3"/><path id="Fill-273" d="M169.256,301.771c-0.056,0.053 -0.112,0.106 -0.168,0.158c-0.477,0.448 -0.779,1.454 -0.181,1.927c0.664,0.522 1.512,-0.055 1.988,-0.501c0.055,-0.053 0.112,-0.105 0.169,-0.159c0.475,-0.448 0.777,-1.454 0.178,-1.925c-0.662,-0.523 -1.511,0.053 -1.986,0.5"/><path id="Fill-274" d="M179.895,295.355c0.055,-0.053 0.112,-0.105 0.168,-0.159c0.476,-0.448 0.778,-1.454 0.18,-1.925c-0.663,-0.523 -1.512,0.053 -1.987,0.5c-0.056,0.053 -0.112,0.106 -0.168,0.158c-0.477,0.448 -0.779,1.454 -0.18,1.927c0.663,0.522 1.511,-0.055 1.987,-0.501"/><path id="Fill-275" d="M188.575,295.457l-0,-0.434c-0,-0.297 -0.038,-0.579 -0.343,-0.783c-0.285,-0.193 -0.676,-0.211 -1.021,-0.136c-0.79,0.169 -1.636,0.875 -1.636,1.565l-0,0.433c-0,0.297 0.04,0.58 0.343,0.785c0.285,0.192 0.676,0.209 1.022,0.136c0.79,-0.171 1.635,-0.876 1.635,-1.566"/><path id="Fill-276" d="M191.733,297.028c0.159,-0.025 0.343,-0.111 0.477,-0.179c0.262,-0.134 -0.292,0.06 -0.022,0.018c0.714,-0.112 1.323,-1.032 1.382,-1.745c0.027,-0.318 -0.049,-0.658 -0.29,-0.872c-0.262,-0.235 -0.551,-0.2 -0.862,-0.152c-0.16,0.024 -0.343,0.11 -0.478,0.178c-0.263,0.135 0.293,-0.059 0.022,-0.017c-0.715,0.113 -1.323,1.031 -1.382,1.744c-0.026,0.318 0.05,0.66 0.29,0.874c0.262,0.233 0.551,0.2 0.863,0.151"/><path id="Fill-277" d="M190.394,286.536c0.001,-0.079 0.001,-0.156 0.006,-0.235c0.003,-0.021 0.005,-0.041 0.009,-0.063c-0.043,0.252 -0.16,0.477 -0.348,0.674c0.447,-0.411 0.801,-1.247 0.179,-1.671c-0.643,-0.439 -1.545,0.023 -1.993,0.434c-0.45,0.412 -0.671,0.929 -0.672,1.475c0,0.282 0.037,0.55 0.323,0.746c0.267,0.183 0.635,0.198 0.959,0.129c0.744,-0.162 1.535,-0.833 1.537,-1.489"/><path id="Fill-278" d="M184.575,288.285l-0,-0.16c-0,-0.329 -0.038,-0.641 -0.343,-0.867c-0.285,-0.212 -0.676,-0.233 -1.021,-0.15c-0.79,0.187 -1.636,0.969 -1.636,1.732l-0,0.16c-0,0.329 0.04,0.641 0.343,0.869c0.285,0.212 0.676,0.231 1.022,0.149c0.79,-0.188 1.635,-0.968 1.635,-1.733"/><path id="Fill-279" d="M177.575,288.375l-0,-0.303c-0,-0.313 -0.038,-0.609 -0.343,-0.823c-0.285,-0.203 -0.676,-0.221 -1.021,-0.143c-0.79,0.178 -1.636,0.919 -1.636,1.644l-0,0.304c-0,0.312 0.04,0.608 0.343,0.825c0.285,0.201 0.676,0.219 1.022,0.142c0.79,-0.18 1.635,-0.92 1.635,-1.646"/><path id="Fill-280" d="M172.265,283.763c-0.056,-0.049 -0.199,-0.216 -0.007,0.007c-0.06,-0.096 -0.06,-0.076 0.002,0.063c-0.015,-0.054 -0.022,-0.109 -0.022,-0.165c-0.045,-0.684 -1.028,-0.705 -1.553,-0.469c-0.729,0.327 -1.152,0.974 -1.107,1.666c0.028,0.413 0.289,0.726 0.617,1.009c0.554,0.477 1.523,-0.053 1.899,-0.436c0.451,-0.459 0.727,-1.196 0.171,-1.675"/><path id="Fill-281" d="M177.575,281.53l-0,-0.551c-0,-0.284 -0.038,-0.553 -0.343,-0.747c-0.285,-0.184 -0.676,-0.201 -1.021,-0.13c-0.79,0.162 -1.636,0.835 -1.636,1.493l-0,0.551c-0,0.284 0.04,0.553 0.343,0.749c0.285,0.184 0.676,0.2 1.022,0.13c0.79,-0.163 1.635,-0.835 1.635,-1.495"/><path id="Fill-282" d="M182.895,282.355c0.055,-0.053 0.112,-0.105 0.168,-0.159c0.476,-0.448 0.778,-1.454 0.18,-1.925c-0.663,-0.523 -1.512,0.053 -1.987,0.5c-0.056,0.053 -0.112,0.106 -0.168,0.158c-0.477,0.448 -0.779,1.454 -0.18,1.927c0.663,0.522 1.511,-0.055 1.987,-0.501"/><path id="Fill-283" d="M188.394,279.383c0.007,-0.468 -0.747,1.089 -0.333,0.716c0.474,-0.43 0.784,-1.385 0.18,-1.837c-0.663,-0.499 -1.519,0.048 -1.994,0.477c-0.378,0.342 -0.665,0.83 -0.672,1.32c-0.008,0.677 0.492,1.151 1.282,0.962c0.75,-0.179 1.529,-0.914 1.537,-1.638"/><path id="Fill-284" d="M184.575,274.365c-0.005,-0.5 -0.096,-1.162 -0.773,-1.277c-0.831,-0.139 -1.574,0.312 -1.973,0.96c-0.187,0.304 -0.302,0.669 -0.235,1.016c0.052,0.263 0.269,0.593 0.591,0.648c-0.315,-0.164 -0.461,-0.387 -0.434,-0.665c0.004,0.316 0.036,0.612 0.323,0.83c0.268,0.203 0.636,0.221 0.961,0.143c0.739,-0.179 1.548,-0.927 1.54,-1.655"/><path id="Fill-285" d="M172.441,276.985c-0.078,-0.08 -0.104,-0.215 -0.033,0.013c-0.01,-0.046 -0.018,-0.091 -0.022,-0.137c0.005,0.185 0.008,0.224 0.006,0.117c-0.001,-0.283 -0.035,-0.551 -0.322,-0.747c-0.268,-0.183 -0.635,-0.2 -0.959,-0.129c-0.74,0.161 -1.539,0.834 -1.536,1.492c0.001,0.358 -0.003,0.803 0.289,1.098c0.227,0.228 0.423,0.371 0.808,0.371c0.391,0.001 0.769,-0.149 1.065,-0.346c0.341,-0.225 0.613,-0.534 0.746,-0.876c0.09,-0.229 0.168,-0.645 -0.042,-0.856"/><path id="Fill-286" d="M224.575,525.063c-0,0.552 -1.343,1 -3,1c-1.657,0 -3,-0.448 -3,-1c-0,-0.552 1.343,-1 3,-1c1.657,0 3,0.448 3,1"/></g></g></svg>