<?xml version="1.0" encoding="UTF-8"?>
<!-- Generated by Pixelmator Pro 3.6.8 -->
<svg width="1024" height="1024" preserveAspectRatio="none" xmlns="http://www.w3.org/2000/svg">
    <path id="Shape" fill="#f9f7f0" fill-rule="evenodd" stroke="none" d="M 1016.584656 1023.620483 C 1016.220276 1024.05835 1014.691162 1023.527161 994.1604 1023.527161 C 969.060669 1023.527161 965.211792 1023.353455 944.116699 1021.26825 C 928.262329 1019.701111 917.723083 1022.028931 909.701538 1022.073242 C 903.342163 1022.108337 886.9198 1021.065369 873.207458 1022.200012 C 859.968689 1023.29541 853.759766 1022.809204 847.547668 1022.851135 C 842.061096 1022.888184 836.572021 1022.557129 826.234985 1021.933777 C 808.632568 1020.872314 798.809753 1020.688965 777.455872 1021.023438 C 762.749939 1021.253784 735.433655 1021.908752 716.752991 1022.478943 C 698.072388 1023.049133 670.430908 1023.507874 655.327454 1023.498413 C 634.401001 1023.485352 621.590149 1023.071167 601.489746 1021.757935 C 589.445496 1020.971069 582.90094 1022.543457 576.351868 1022.45752 C 568.558533 1022.355225 560.758789 1021.736633 543.67749 1022.57196 C 527.802673 1023.348328 519.94458 1022.732605 512.091064 1022.655334 C 504.392975 1022.57959 496.69928 1023.060364 481.464111 1022.032166 C 465.369904 1020.945984 457.691559 1022.427795 450.007843 1022.329651 C 442.997528 1022.240112 435.982727 1021.500183 422.567902 1021.997559 C 404.135986 1022.680969 385.238617 1021.898499 367.711365 1021.628967 C 353.005402 1021.402771 326.664673 1021.466553 309.176422 1021.770569 C 291.688202 1022.074646 265.997925 1021.655945 252.086792 1022.062317 C 228.228729 1022.759338 225.341949 1022.826965 200.417099 1021.996643 C 176.760666 1021.208557 171.037842 1022.230408 144.05011 1022.575317 C 127.55558 1022.786133 102.352951 1021.640625 88.044464 1022.474121 C 74.762337 1023.247803 68.261345 1022.626526 61.761581 1022.606567 C 55.530346 1022.587463 49.300232 1023.201965 37.097393 1022.446899 C 27.45612 1021.850342 18.021685 1022.229797 12.387986 1021.827698 C 5.671357 1023.755432 1.510935 1022.905457 1.160198 1022.554688 C -0.233895 1021.160645 -0.285109 1020.145813 -0.285109 993.918335 C -0.285109 968.818542 -0.111382 964.969727 1.973784 943.874573 C 3.540931 928.020203 2.213126 917.481018 2.168832 909.459412 C 2.133717 903.100037 3.176672 886.677734 2.042062 872.965454 C 0.946628 859.726501 0.432881 853.517578 0.390951 847.305481 C 0.353918 841.81897 0.684926 836.329956 1.308282 825.99292 C 2.369767 808.390503 1.553088 798.567627 1.218612 777.213867 C 0.988262 762.507813 1.333291 735.191528 0.763111 716.510925 C 0.192936 697.830322 -0.265835 670.188843 -0.256379 655.085449 C -0.243274 634.158936 0.170877 621.348145 1.48411 601.247681 C 2.271001 589.203491 1.69858 582.658936 1.784554 576.109863 C 1.886862 568.316528 2.505426 560.516785 1.670083 543.435425 C 0.893739 527.560608 0.509448 519.702515 0.586731 511.848999 C 0.662484 504.150879 1.181719 496.457153 2.209912 481.222046 C 3.296081 465.127808 1.814278 457.449463 1.912431 449.765747 C 2.001982 442.755493 1.74189 435.740723 1.244492 422.325806 C 0.561072 403.893799 2.343573 384.996521 2.613118 367.469299 C 2.839278 352.763306 2.775538 326.422546 2.471473 308.934326 C 2.167409 291.446106 1.586119 265.755737 1.179721 251.844666 C 0.482732 227.986694 0.543192 225.055603 2.245424 200.175049 C 3.86937 176.438721 4.011661 170.795715 3.666725 143.807983 C 3.455904 127.313538 2.601463 102.110901 1.767963 87.802429 C 0.994253 74.520203 0.61556 68.019165 0.6355 61.519409 C 0.654616 55.288208 1.040103 49.058105 1.795149 36.855347 C 2.35561 27.797241 2.15682 18.785217 2.028765 12.97998 C 1.962966 9.997009 1.551407 2.054138 1.68737 1.918152 C 3.081425 0.524048 4.096245 0.472839 30.323751 0.472839 C 55.423515 0.472839 59.272316 -0.353516 80.367508 1.73175 C 96.221848 3.298889 106.761024 2.971069 114.782639 2.926758 C 121.142014 2.891663 137.564316 3.934631 151.276642 2.799988 C 164.515549 1.704529 170.724457 1.190796 176.936554 1.148865 C 182.422379 1.111816 187.910721 1.44281 198.245087 2.065979 L 198.2491 2.066223 C 215.851517 3.127686 225.674438 3.311035 247.028244 2.976563 C 261.734222 2.746216 289.050537 2.091248 307.73114 1.521057 C 326.411713 0.950867 354.053192 0.492126 369.156708 0.501587 C 390.083069 0.514648 402.893982 0.928833 422.994324 2.242065 C 435.038635 3.028931 441.583221 2.456543 448.132324 2.54248 C 455.925659 2.644775 463.725372 3.263367 480.806671 2.42804 C 496.681458 1.651672 504.53952 1.267395 512.393066 1.344666 C 520.091125 1.42041 527.784851 1.939636 543.02002 2.967834 C 559.114197 4.054016 566.792542 3.572205 574.476196 3.670349 C 581.486572 3.759888 588.501404 3.499817 601.91626 3.002441 C 620.348206 2.319031 639.245483 2.101501 656.772766 2.371033 C 671.47876 2.597229 697.819458 3.533447 715.307678 3.229431 C 732.795898 2.925354 758.486267 2.344055 772.397339 1.937683 C 796.25531 1.240662 799.186401 0.301147 824.066956 2.003357 C 847.803284 3.627319 853.446472 3.769592 880.434021 3.424683 C 896.92865 3.213867 922.131104 3.359375 936.439575 2.525879 L 936.444275 2.525635 C 949.723511 1.752136 956.223816 1.373474 962.7229 1.393433 C 968.954041 1.412537 975.184082 1.798035 987.386658 2.553101 C 1001.099182 3.40155 1014.393188 2.298584 1016.929077 2.546509 C 1020.008484 2.847595 1021.988708 5.446106 1022.890991 6.348328 C 1023.160217 6.617493 1022.885254 7.851318 1022.281677 9.999451 C 1023.133301 12.530273 1023.769226 18.184692 1023.769226 30.081604 C 1023.769226 55.181519 1022.843994 58.969482 1021.510315 80.125366 C 1020.481934 96.438416 1021.270996 106.518982 1021.315308 114.540588 C 1021.350403 120.900024 1020.307434 137.322266 1021.442078 151.034607 C 1022.537537 164.27356 1023.05127 170.482483 1023.093201 176.69458 C 1023.130188 182.181091 1022.799194 187.670105 1022.175842 198.00708 C 1021.11438 215.609497 1020.93103 225.432312 1021.265503 246.786194 C 1021.49585 261.492065 1022.150818 288.808472 1022.721008 307.489075 C 1023.291199 326.169617 1023.749939 353.811157 1023.74054 368.914612 C 1023.727478 389.841064 1023.313232 402.651917 1022 422.752319 C 1021.213135 434.79657 1020.785522 441.341125 1020.699585 447.890198 C 1020.59729 455.683533 1020.978699 463.483276 1021.814026 480.564575 C 1022.590393 496.439392 1022.97467 504.297424 1022.8974 512.151001 C 1022.821655 519.84906 1022.302429 527.542786 1021.274231 542.777954 C 1020.188049 558.87207 1019.669861 566.550415 1019.571716 574.234131 C 1019.482178 581.244507 1019.742249 588.259277 1020.239624 601.674194 C 1020.923035 620.106201 1021.140564 639.003418 1020.871033 656.530701 C 1020.644836 671.236694 1020.708557 697.577393 1021.012634 715.065674 C 1021.316711 732.553833 1021.89801 758.244141 1022.304382 772.155273 C 1023.001404 796.013245 1022.940918 798.944458 1021.238708 823.824951 C 1019.614746 847.561218 1021.472473 853.204224 1021.817383 880.191956 C 1022.028198 896.686523 1020.882629 921.889038 1021.716187 936.197632 L 1021.716431 936.201782 C 1022.489929 949.481079 1022.868591 955.981384 1022.848633 962.480469 C 1022.829529 968.711731 1022.444031 974.941833 1021.688965 987.144653 C 1020.840515 1000.857056 1022.795959 1021.746704 1021.893738 1022.648987 C 1021.825562 1022.717163 1016.685791 1023.498962 1016.584656 1023.620483 Z"/>
</svg>
