<svg xmlns="http://www.w3.org/2000/svg" width="950" height="261" fill="none" aria-labelledby="logo" viewBox="0 0 950 261">
  <path fill="#212223" d="M305.333 63.55h53.609c28.967 0 48.344 16.899 48.344 43.27 0 16.723-8.847 30.085-22.561 36.582l25.944 50.143h-31.225L357.228 149.9h-23.694v43.645h-28.24V63.55Zm28.24 23.205v39.925h23.142c13.362 0 21.811-7.806 21.811-19.882 0-12.077-8.449-20.059-21.811-20.059h-23.15v.016zm81.129 59.226c0-29.716 19.745-49.01 49.653-49.01 29.915 0 48.543 17.817 48.918 45.857 0 2.801-.184 5.94-.758 8.916h-70.17v1.293c.566 13.546 9.405 21.727 22.76 21.727 10.737 0 18.252-4.645 20.51-13.545h26.158c-3.016 18.573-19.745 33.42-45.536 33.42-32.173 0-51.527-19.117-51.527-48.658h.008zm71.862-11.334c-1.89-11.701-9.987-18.199-22.018-18.199-12.038 0-20.135 6.873-21.627 18.2zm103.361-36.543h26.533v95.456h-23.517l-2.434-11.518c-6.199 7.424-14.656 12.628-28.416 12.628-19.928 0-38.38-9.85-38.38-43.653V98.09h26.541v49.392c0 17.082 5.663 25.447 18.819 25.447 13.163 0 20.87-9.46 20.87-27.115V98.089h-.016l.016.015zm42.23-26.678h26.525v26.732h22.018v22.11H658.68v41.792c0 6.69 2.64 9.467 9.406 9.467h13.722v22.087h-22.026c-18.444 0-27.643-9.084-27.643-27.283V71.433Zm54.038 74.555c0-29.716 19.745-49.01 49.668-49.01s48.535 17.817 48.91 45.857c0 2.801-.206 5.94-.757 8.916h-70.179v1.293c.551 13.546 9.406 21.727 22.76 21.727 10.738 0 18.253-4.645 20.534-13.545h26.135c-3.016 18.573-19.745 33.42-45.52 33.42-32.174 0-51.551-19.117-51.551-48.658zm71.877-11.334c-1.89-11.701-9.987-18.199-22.018-18.199-12.038 0-20.135 6.873-21.627 18.2zm97.377-36.558v23.785h-10.538c-15.811 0-21.811 10.393-21.811 24.888v46.798h-26.533V98.112h24.076l2.457 14.28c5.265-8.54 12.773-14.28 27.834-14.28h4.515v-.016zm29.441 63.711c.95 8.35 8.265 14.112 21.268 14.112 11.09 0 17.87-3.528 17.87-10.209 0-7.798-6.574-8.35-22.202-10.385-22.584-2.602-40.079-7.615-40.079-27.29 0-19.669 16.753-31.378 41.564-31.194 25.951 0 43.844 11.341 45.16 30.818h-25.4c-.742-7.614-8.09-12.26-18.811-12.26-10.714 0-17.112 3.72-17.112 9.842 0 7.247 8.28 7.99 22.209 9.658 22.209 2.22 40.645 7.248 40.645 28.79 0 18.934-18.061 31.01-44.028 31.01-25.959 0-45.137-12.458-46.285-32.861h25.209-.016v-.03z"/>
  <path fill="#d64000" d="M224.938 34.92a17.527 17.527 0 0 1 5.142 12.437 17.564 17.564 0 1 1-29.976-12.436 17.51 17.51 0 0 1 12.42-5.15 17.449 17.449 0 0 1 12.414 5.15zM34.974 225.229a17.61 17.61 0 0 1 0-24.857 17.426 17.426 0 0 1 12.429-5.15c4.699 0 9.107 1.821 12.413 5.15a17.625 17.625 0 0 1 0 24.857 17.434 17.434 0 0 1-12.413 5.15c-4.684 0-9.107-1.82-12.421-5.15zm133.86-188.937-.123-.046a15.199 15.199 0 0 1-8.189-8.28 15.23 15.23 0 0 1 0-11.779 15.337 15.337 0 0 1 14.196-9.505 15.406 15.406 0 0 1 14.197 21.283 15.383 15.383 0 0 1-20.082 8.327zM85.261 222.726c1.99 0 3.98.398 5.863 1.163a15.406 15.406 0 0 1 0 28.431 15.191 15.191 0 0 1-11.763 0 15.406 15.406 0 0 1 5.893-29.617zm57.865-209.54c0 7.072-5.587 12.857-12.566 13.186h-.597a13.194 13.194 0 0 1 0-26.372c7.247 0 13.163 5.939 13.163 13.201zm-26.357 233.83c0-7.285 5.916-13.193 13.17-13.193 7.263 0 13.171 5.923 13.171 13.194 0 7.27-5.908 13.186-13.163 13.186a13.201 13.201 0 0 1-13.178-13.186zM89.502 32.236a10.96 10.96 0 0 1-14.35-5.955 11.005 11.005 0 0 1 10.133-15.206c4.317 0 8.403 2.571 10.171 6.796 1.117 2.732 1.117 5.717 0 8.41a10.79 10.79 0 0 1-5.954 5.955zm80.9 195.718c1.378-.566 2.794-.857 4.217-.857 1.423 0 2.847.29 4.201.842a10.835 10.835 0 0 1 5.947 5.954c1.117 2.732 1.117 5.709 0 8.41a10.99 10.99 0 1 1-14.373-14.357v.008zM53.594 41.25c3.383 3.382 3.429 8.831.168 12.283l-.19.191a8.824 8.824 0 0 1-12.452 0 8.832 8.832 0 0 1 0-12.467 8.765 8.765 0 0 1 6.222-2.571 8.77 8.77 0 0 1 6.23 2.571h.022Zm152.632 165.282a8.801 8.801 0 1 1-.015 0zM17.87 95.51a11.005 11.005 0 0 1 8.418-20.327 11.005 11.005 0 0 1 0 20.319 10.96 10.96 0 0 1-8.403 0h-.015zm224.218 69.221a10.811 10.811 0 0 1 5.946 5.954 10.974 10.974 0 0 1-14.357 14.357 10.814 10.814 0 0 1-5.946-5.961 10.974 10.974 0 0 1 14.357-14.35zM0 130.171c0-7.279 5.908-13.187 13.163-13.187 7.27 0 13.179 5.924 13.179 13.186 0 7.27-5.916 13.186-13.171 13.186A13.21 13.21 0 0 1 0 130.178Zm233.57 0c0-7.279 5.916-13.187 13.179-13.187 7.255 0 13.17 5.924 13.17 13.186 0 7.27-5.915 13.186-13.17 13.186a13.201 13.201 0 0 1-13.171-13.186ZM7.798 180.725a15.413 15.413 0 0 1 8.32-20.104 15.191 15.191 0 0 1 11.762 0 15.374 15.374 0 0 1 8.319 8.326 15.23 15.23 0 0 1 0 11.786 15.337 15.337 0 0 1-8.319 8.319 15.191 15.191 0 0 1-11.763 0 15.337 15.337 0 0 1-8.319-8.327zm215.8-89.502a15.367 15.367 0 0 1 8.32-20.082 15.39 15.39 0 0 1 11.747 28.416 15.191 15.191 0 0 1-11.763 0 15.344 15.344 0 0 1-8.319-8.326h.015zm-56.272 76.285a12.352 12.352 0 1 0 17.456.008 12.413 12.413 0 0 0-17.456-.023zM64.408 122.624a9.79 9.79 0 0 1 5.05-18.918 9.796 9.796 0 0 1-5.058 18.926h.008zm126 33.804a9.803 9.803 0 0 1 4.614-19.056l.46.13a9.796 9.796 0 0 1-5.067 18.903v.023zm-131.005-7.416a7.852 7.852 0 0 1 5.097-9.474l.444-.123a7.829 7.829 0 0 1 8.8 11.503 7.89 7.89 0 0 1-4.76 3.658 7.73 7.73 0 0 1-5.946-.796 7.883 7.883 0 0 1-3.65-4.745zm129.596-28.974-.337-.207a7.852 7.852 0 0 1 2.243-14.158 7.837 7.837 0 1 1-1.898 14.357zM88.201 180.09l-.23.23a5.893 5.893 0 0 1-8.326-8.335 5.893 5.893 0 0 1 8.556 8.105zm91.99-100.347a5.878 5.878 0 0 1 0 8.342 5.893 5.893 0 1 1 .007-8.364v.015zM119.845 189.23a7.837 7.837 0 1 1-4.745-3.643 7.76 7.76 0 0 1 4.745 3.658zm20.166-118.217a7.844 7.844 0 0 1 8.801-11.502 7.843 7.843 0 0 1-4.056 15.153 7.745 7.745 0 0 1-4.745-3.65zm11.763 113.701.413.245a9.796 9.796 0 0 1-10.202 16.684 9.735 9.735 0 0 1-4.56-5.939c-.69-2.525-.33-5.166.971-7.439a9.758 9.758 0 0 1 13.362-3.574l.016.016zM115.599 76.515a9.811 9.811 0 0 1-11.97-6.918 9.796 9.796 0 0 1 9.43-12.306 9.796 9.796 0 0 1 9.45 7.24 9.796 9.796 0 0 1-6.91 11.984zm-31.76 19.66a12.333 12.333 0 1 0-.015-24.665 12.333 12.333 0 0 0 .015 24.666z"/>
</svg>
